SplineFontDB: 3.0
FontName: MonsieurLaDoulaise-Regular
FullName: Monsieur La Doulaise Regular
FamilyName: Monsieur La Doulaise
Weight: Normal
Copyright: Copyright (c) 2006 Alejandro Paul (sudtipos@sudtipos.com),\nwith Reserved Font Name "MonsieurLaDoulaise"
Version: 001.001
ItalicAngle: 0
UnderlinePosition: -50
UnderlineWidth: 50
Ascent: 800
Descent: 200
sfntRevision: 0x00010000
LayerCount: 2
Layer: 0 1 "Back"  1
Layer: 1 1 "Fore"  0
NeedsXUIDChange: 1
XUID: [1021 288 713564382 16674830]
FSType: 0
OS2Version: 2
OS2_WeightWidthSlopeOnly: 0
OS2_UseTypoMetrics: 1
CreationTime: 1322381536
ModificationTime: 1322410378
PfmFamily: 17
TTFWeight: 400
TTFWidth: 5
LineGap: 0
VLineGap: 0
Panose: 2 0 0 0 0 0 0 0 0 0
OS2TypoAscent: 248
OS2TypoAOffset: 1
OS2TypoDescent: -313
OS2TypoDOffset: 1
OS2TypoLinegap: 0
OS2WinAscent: 0
OS2WinAOffset: 1
OS2WinDescent: 0
OS2WinDOffset: 1
HheadAscent: 0
HheadAOffset: 1
HheadDescent: 0
HheadDOffset: 1
OS2SubXSize: 700
OS2SubYSize: 650
OS2SubXOff: 0
OS2SubYOff: 140
OS2SupXSize: 700
OS2SupYSize: 650
OS2SupXOff: 0
OS2SupYOff: 477
OS2StrikeYSize: 50
OS2StrikeYPos: 250
OS2Vendor: 'SUDT'
OS2CodePages: 20000001.00000000
OS2UnicodeRanges: 80000027.5000004b.00000000.00000000
Lookup: 258 0 0 "'kern' Horizontal Kerning in Latin lookup 0"  {"'kern' Horizontal Kerning in Latin lookup 0 subtable"  } ['kern' ('DFLT' <'dflt' > 'latn' <'dflt' > ) ]
MarkAttachClasses: 1
DEI: 91125
TtTable: prep
PUSHW_1
 511
SCANCTRL
PUSHB_1
 4
SCANTYPE
EndTTInstrs
LangName: 1033 "" "" "" "AlejandroPaul: Monsieur La Doulaise Regular: 2006" "MonsieurLaDoulaise-Regular" "Version 1.000" "" "MonsieurLaDoulaise is a trademark of Alejandro Paul." "Alejandro Paul" "Alejandro Paul" "" "http://www.sudtipos.com" "http://www.sudtipos.com" "This Font Software is licensed under the SIL Open Font License,+AA0A-Version 1.1. This license is available with a FAQ at:+AA0A-http://scripts.sil.org/OFL" "http://scripts.sil.org/OFL" 
GaspTable: 1 65535 15
Encoding: UnicodeBmp
UnicodeInterp: none

StartChar: AE
Encoding: 198 198 1
Width: 1501
Flags: HMW
HStem: -207 21G<913 913> 242 112<1305.5 1430> 252 64 252 89 252 154 316 175 341 54 354 33<1398.5 1430> 395 109<734 781.5> 955 20G<803 803>
VStem: 1 33<53 139> 390 35 440 167<528.5 711> 464 26<66 104.5 66 105> 915 50<86 96 96 97.5> 1105 162 1239 28 1418 39<145.5 195> 1705 26<655 698>
LayerCount: 2
Fore
SplineSet
1241 451 m 1,0,1
 1198 446 1198 446 1162 446 c 1,2,3
 1198 484 1198 484 1247 529 c 1,4,5
 1239 500 1239 500 1239 483.5 c 128,-1,6
 1239 467 1239 467 1241 451 c 1,0,1
1304 378 m 1,7,8
 1358 387 1358 387 1412 387 c 128,-1,9
 1466 387 1466 387 1466 373 c 0,10,11
 1466 366 1466 366 1451.5 360 c 128,-1,12
 1437 354 1437 354 1414 354 c 0,13,14
 1342 354 1342 354 1304 378 c 1,7,8
965 86 m 1,15,-1
 965 96 l 2,16,17
 965 162 965 162 1017 226 c 1,18,19
 1081 212 1081 212 1132 184 c 1,20,21
 1103 168 1103 168 1046.5 134 c 128,-1,22
 990 100 990 100 965 86 c 1,15,-1
1245 436 m 1,23,24
 1255 405 1255 405 1276 385 c 1,25,26
 1107 352 1107 352 1003 257 c 1,27,28
 1055 334 1055 334 1146 430 c 1,29,30
 1195.5 430 1195.5 430 1245 436 c 1,23,24
769 239 m 1,31,32
 610 114 610 114 493 48 c 1,33,34
 490 59 490 59 490 70 c 0,35,36
 490 128 490 128 562 178 c 128,-1,37
 634 228 634 228 769 239 c 1,31,32
1215 -14 m 1,38,39
 1166 -27 1166 -27 1118 -27 c 0,40,41
 997 -27 997 -27 970 58 c 1,42,43
 1028.17621145 89.9030837004 1028.17621145 89.9030837004 1084.08810573 125.95154185 c 128,-1,44
 1140 162 1140 162 1155 171 c 1,45,46
 1231 120 1231 120 1231 49 c 0,47,48
 1231 17 1231 17 1215 -14 c 1,38,39
860 255 m 1,49,-1
 814 254 l 1,50,51
 921.2 342.44 921.2 342.44 968.1 382.72 c 128,-1,52
 1015 423 1015 423 1088.5 485.5 c 128,-1,53
 1162 548 1162 548 1201 578.5 c 128,-1,54
 1240 609 1240 609 1309 653.5 c 128,-1,55
 1378 698 1378 698 1430 717 c 0,56,57
 1439 720 1439 720 1441.5 720 c 2,58,-1
 1445 720 l 2,59,60
 1446 720 1446 720 1445 719 c 0,61,62
 1430 707 1430 707 1355 650 c 128,-1,63
 1280 593 1280 593 1239.5 559 c 128,-1,64
 1199 525 1199 525 1136.5 469 c 0,65,66
 1016.06338593 361.088793795 1016.06338593 361.088793795 959 249 c 1,67,68
 912.5 255 912.5 255 860 255 c 1,49,-1
1169 180 m 1,69,70
 1272 242 1272 242 1323 242 c 0,71,72
 1418 242 1418 242 1418 176 c 0,73,74
 1418 127 1418 127 1367 72.5 c 128,-1,75
 1316 18 1316 18 1234 -8 c 1,76,77
 1246 20.5 1246 20.5 1246 49 c 0,78,79
 1246 125 1246 125 1169 180 c 1,69,70
1609 728 m 0,80,81
 1705 728 1705 728 1705 685 c 0,82,83
 1705 651 1705 651 1646 603.5 c 128,-1,84
 1587 556 1587 556 1483 513 c 128,-1,85
 1379 470 1379 470 1267 454 c 1,86,87
 1270 509 1270 509 1321.5 573 c 128,-1,88
 1373 637 1373 637 1453 682.5 c 128,-1,89
 1533 728 1533 728 1609 728 c 0,80,81
919 60 m 1,90,91
 757 -29 757 -29 645 -29 c 128,-1,92
 533 -29 533 -29 500 32 c 1,93,94
 625 98 625 98 800 242 c 1,95,96
 822 243 822 243 857 243 c 128,-1,97
 892 243 892 243 952 236 c 1,98,99
 928 184 928 184 920 131 c 1,100,101
 915 108 915 108 915 90.5 c 128,-1,102
 915 73 915 73 919 60 c 1,90,91
641 504 m 1,103,-1
 655 504 l 2,104,105
 745 504 745 504 828.5 529.5 c 128,-1,106
 912 555 912 555 967 593 c 128,-1,107
 1022 631 1022 631 1054.5 673.5 c 128,-1,108
 1087 716 1087 716 1087 750 c 128,-1,109
 1087 784 1087 784 1058.5 803.5 c 128,-1,110
 1030 823 1030 823 970 823 c 128,-1,111
 910 823 910 823 847 793 c 128,-1,112
 784 763 784 763 739.5 718 c 128,-1,113
 695 673 695 673 667.5 619.5 c 128,-1,114
 640 566 640 566 640 520 c 0,115,116
 640 509 640 509 641 504 c 1,103,-1
803 975 m 1,117,-1
 806 963 l 1,118,119
 650 941 650 941 545 844.5 c 128,-1,120
 440 748 440 748 440 650 c 0,121,122
 440 593 440 593 482.5 554 c 128,-1,123
 525 515 525 515 609 506 c 1,124,125
 607 515 607 515 607 533 c 0,126,127
 607 583 607 583 635 636.5 c 128,-1,128
 663 690 663 690 711 736 c 128,-1,129
 759 782 759 782 831 811.5 c 128,-1,130
 903 841 903 841 973.5 841 c 128,-1,131
 1044 841 1044 841 1074.5 818.5 c 128,-1,132
 1105 796 1105 796 1105 757 c 128,-1,133
 1105 718 1105 718 1072 672.5 c 128,-1,134
 1039 627 1039 627 982 586 c 128,-1,135
 925 545 925 545 836.5 518 c 128,-1,136
 748 491 748 491 649 491 c 2,137,-1
 644 491 l 1,138,139
 664 406 664 406 790 406 c 0,140,141
 854 406 854 406 943 444 c 128,-1,142
 1032 482 1032 482 1126 560 c 1,143,-1
 1132 552 l 1,144,145
 1102 526 1102 526 1056 494.5 c 128,-1,146
 1010 463 1010 463 930 429 c 128,-1,147
 850 395 850 395 785 395 c 0,148,149
 641 395 641 395 612 492 c 1,150,151
 519 499 519 499 472 541 c 128,-1,152
 425 583 425 583 425 646 c 0,153,154
 425 747 425 747 531.5 847 c 128,-1,155
 638 947 638 947 803 975 c 1,117,-1
1618 743 m 0,156,157
 1560 743 1560 743 1507 732 c 1,158,159
 1514 737 1514 737 1528 745 c 0,160,161
 1533 749 1533 749 1533 754 c 0,162,163
 1533 764 1533 764 1522 764 c 0,164,165
 1520 764 1520 764 1508 762 c 0,166,167
 1355 731 1355 731 1037 461 c 0,168,169
 869 318 869 318 785 252 c 1,170,171
 629 240 629 240 546.5 185.5 c 128,-1,172
 464 131 464 131 464 67 c 0,173,174
 464 50 464 50 470 35 c 1,175,176
 323 -43 323 -43 201 -43 c 0,177,178
 118 -43 118 -43 76 -6 c 128,-1,179
 34 31 34 31 34 89 c 0,180,181
 34 172 34 172 108.5 244 c 128,-1,182
 183 316 183 316 295 316 c 0,183,184
 343 316 343 316 366.5 298.5 c 128,-1,185
 390 281 390 281 390 254 c 0,186,187
 390 213 390 213 344.5 173.5 c 128,-1,188
 299 134 299 134 233 127 c 1,189,-1
 233 116 l 1,190,191
 304 123 304 123 359.5 169.5 c 128,-1,192
 415 216 415 216 415 262 c 0,193,194
 415 292 415 292 386.5 310 c 128,-1,195
 358 328 358 328 300 328 c 0,196,197
 169 328 169 328 85 251 c 128,-1,198
 1 174 1 174 1 84 c 0,199,200
 1 22 1 22 47 -18 c 128,-1,201
 93 -58 93 -58 182 -58 c 0,202,203
 320 -58 320 -58 478 21 c 1,204,205
 517 -40 517 -40 624 -40 c 0,206,207
 771 -40 771 -40 928 36 c 1,208,209
 969 -41 969 -41 1107 -41 c 0,210,211
 1154 -41 1154 -41 1206 -31 c 1,212,213
 1172 -83 1172 -83 1097 -126 c 128,-1,214
 1022 -169 1022 -169 912 -194 c 1,215,-1
 913 -207 l 1,216,217
 1033 -182 1033 -182 1113 -134 c 128,-1,218
 1193 -86 1193 -86 1225 -26 c 1,219,220
 1327 -1 1327 -1 1392 58.5 c 128,-1,221
 1457 118 1457 118 1457 174 c 0,222,223
 1457 210 1457 210 1426 232 c 128,-1,224
 1395 254 1395 254 1328.5 254 c 128,-1,225
 1262 254 1262 254 1148 193 c 1,226,227
 1097 223 1097 223 1027 238 c 1,228,229
 1118 342 1118 342 1287 375 c 1,230,231
 1332 341 1332 341 1406 341 c 0,232,233
 1439 341 1439 341 1465 353 c 128,-1,234
 1491 365 1491 365 1491 378 c 0,235,236
 1491 399 1491 399 1424.5 399 c 128,-1,237
 1358 399 1358 399 1292 388 c 1,238,239
 1269 408 1269 408 1267 440 c 1,240,241
 1385 458 1385 458 1495.5 504.5 c 128,-1,242
 1606 551 1606 551 1668.5 603 c 128,-1,243
 1731 655 1731 655 1731 693 c 0,244,245
 1731 743 1731 743 1618 743 c 0,156,157
EndSplineSet
EndChar

StartChar: Aacute
Encoding: 193 193 2
Width: 1417
Flags: HMW
HStem: -197 21G<904 904> 249 146 261 55 261 145 395 109<734 781.5> 406 85 955 20G<803 803>
VStem: 1 33<53 139> 390 35 441 166<529 711> 1162 26<48.5 67> 1162 230<36 207>
LayerCount: 2
Fore
SplineSet
1509 802 m 1,0,-1
 1647 859 l 1,1,2
 1663 864 1663 864 1663 875.5 c 128,-1,3
 1663 887 1663 887 1656 887 c 128,-1,4
 1649 887 1649 887 1589.5 857 c 128,-1,5
 1530 827 1530 827 1505 812 c 1,6,-1
 1509 802 l 1,0,-1
938 120 m 1,7,8
 946 166 946 166 980 222 c 1,9,10
 1021 209 1021 209 1057 189 c 1,11,12
 1025 172 1025 172 938 120 c 1,7,8
1162 43 m 0,13,14
 1162 26 1162 26 1155 2 c 1,15,16
 1100 -13 1100 -13 1061 -13 c 0,17,18
 952 -13 952 -13 938 80 c 1,19,20
 973 101 973 101 1084 172 c 1,21,22
 1162 116 1162 116 1162 43 c 0,13,14
426 62 m 0,23,24
 426 126 426 126 528.5 186.5 c 128,-1,25
 631 247 631 247 781 249 c 1,26,27
 578 87 578 87 442 20 c 1,28,29
 426 37 426 37 426 62 c 0,23,24
823 261 m 1,30,-1
 1013 422 l 2,31,32
 1015 423 1015 423 1088.5 485.5 c 128,-1,33
 1162 548 1162 548 1201 578.5 c 128,-1,34
 1240 609 1240 609 1309 653.5 c 128,-1,35
 1378 698 1378 698 1430 717 c 0,36,37
 1439 720 1439 720 1441.5 720 c 2,38,39
 1445 720 l 2,40,41
 1446 720 1446 720 1445 719 c 0,42,43
 1430 707 1430 707 1354.5 650 c 128,-1,44
 1279 593 1279 593 1238.5 559 c 128,-1,45
 1198 525 1198 525 1135.5 468.5 c 0,46,47
 1015.56938831 360.082727028 1015.56938831 360.082727028 958 247 c 1,48,49
 895 260 895 260 823 261 c 1,30,-1
1188 56 m 0,50,51
 1188 135 1188 135 1110 188 c 1,52,53
 1207 245 1207 245 1266 245 c 0,54,55
 1377 245 1377 245 1377 182 c 0,56,57
 1377 138 1377 138 1318.5 89 c 128,-1,58
 1260 40 1260 40 1181 11 c 1,59,60
 1188 32 1188 32 1188 56 c 0,50,51
808 249 m 1,61,62
 888 246 888 246 949 230 c 1,63,64
 921 167 921 167 918 108 c 1,65,66
 815 46 815 46 737.5 13.5 c 128,-1,67
 660 -19 660 -19 578 -19 c 128,-1,68
 496 -19 496 -19 455 9 c 1,69,70
 606 81 606 81 808 249 c 1,61,62
640 521 m 1,71,-1
 641 504 l 1,72,-1
 655 504 l 2,73,74
 745 504 745 504 828.5 529.5 c 128,-1,75
 912 555 912 555 967 593 c 128,-1,76
 1022 631 1022 631 1054.5 673.5 c 128,-1,77
 1087 716 1087 716 1087 750 c 128,-1,78
 1087 784 1087 784 1058.5 803.5 c 128,-1,79
 1030 823 1030 823 974 823 c 0,80,81
 889 823 889 823 810 773 c 128,-1,82
 731 723 731 723 685.5 653 c 128,-1,83
 640 583 640 583 640 521 c 1,71,-1
803 975 m 1,84,-1
 806 963 l 1,85,86
 650 941 650 941 545.5 844.5 c 128,-1,87
 441 748 441 748 441 650 c 0,88,89
 441 592 441 592 483 553.5 c 128,-1,90
 525 515 525 515 609 506 c 1,91,92
 607 524 607 524 607 534 c 0,93,94
 607 584 607 584 635 637.5 c 128,-1,95
 663 691 663 691 711 736.5 c 128,-1,96
 759 782 759 782 831 811.5 c 128,-1,97
 903 841 903 841 973.5 841 c 128,-1,98
 1044 841 1044 841 1074.5 818.5 c 128,-1,99
 1105 796 1105 796 1105 757 c 128,-1,100
 1105 718 1105 718 1072 672.5 c 128,-1,101
 1039 627 1039 627 982 586 c 128,-1,102
 925 545 925 545 836.5 518 c 128,-1,103
 748 491 748 491 649 491 c 2,104,-1
 643 491 l 1,105,106
 665 406 665 406 790 406 c 0,107,108
 854 406 854 406 943 444 c 128,-1,109
 1032 482 1032 482 1126 560 c 1,110,-1
 1132 552 l 1,111,112
 1102 526 1102 526 1056 494.5 c 128,-1,113
 1010 463 1010 463 930 429 c 128,-1,114
 850 395 850 395 785 395 c 0,115,116
 641 395 641 395 613 492 c 1,117,118
 520 499 520 499 472.5 541 c 128,-1,119
 425 583 425 583 425 646 c 0,120,121
 425 747 425 747 531.5 847 c 128,-1,122
 638 947 638 947 803 975 c 1,84,-1
233 127 m 1,123,-1
 233 116 l 1,124,125
 304 123 304 123 359.5 169.5 c 128,-1,126
 415 216 415 216 415 262 c 0,127,128
 415 292 415 292 386.5 310 c 128,-1,129
 358 328 358 328 300 328 c 0,130,131
 169 328 169 328 85 251 c 128,-1,132
 1 174 1 174 1 84 c 0,133,134
 1 22 1 22 47 -18 c 128,-1,135
 93 -58 93 -58 182 -58 c 0,136,137
 304 -58 304 -58 443 4 c 1,138,139
 485 -30 485 -30 571 -30 c 0,140,141
 745 -30 745 -30 919 69 c 1,142,143
 934 -25 934 -25 1054 -25 c 0,144,145
 1095 -25 1095 -25 1150 -10 c 1,146,147
 1105 -117 1105 -117 904 -187 c 1,148,-1
 904 -197 l 1,149,150
 1010 -169 1010 -169 1080.5 -117 c 128,-1,151
 1151 -65 1151 -65 1176 -3 c 1,152,153
 1264 26 1264 26 1328 79.5 c 128,-1,154
 1392 133 1392 133 1392 186 c 0,155,156
 1392 219 1392 219 1364 238.5 c 128,-1,157
 1336 258 1336 258 1279 258 c 0,158,159
 1193 258 1193 258 1085 204 c 1,160,161
 1047 224 1047 224 991 240 c 1,162,163
 1073 368 1073 368 1238 521 c 128,-1,164
 1403 674 1403 674 1528 745 c 1,165,166
 1533 749 1533 749 1533 754 c 0,167,168
 1533 764 1533 764 1522 764 c 0,169,170
 1520 764 1520 764 1508 762 c 0,171,172
 1355 731 1355 731 1037 461 c 1,173,174
 857 310 857 310 796 261 c 1,175,176
 617 260 617 260 513.5 199.5 c 128,-1,177
 410 139 410 139 410 68 c 0,178,179
 410 38 410 38 431 15 c 1,180,181
 307 -43 307 -43 212.5 -43 c 128,-1,182
 118 -43 118 -43 76 -6 c 128,-1,183
 34 31 34 31 34 89 c 0,184,185
 34 172 34 172 108.5 244 c 128,-1,186
 183 316 183 316 295 316 c 0,187,188
 343 316 343 316 366.5 298.5 c 128,-1,189
 390 281 390 281 390 254 c 0,190,191
 390 213 390 213 344.5 173.5 c 128,-1,192
 299 134 299 134 233 127 c 1,123,-1
EndSplineSet
EndChar

StartChar: Acircumflex
Encoding: 194 194 3
Width: 1417
Flags: HMW
HStem: -197 21G<904 904> 249 146 261 55 261 145 395 109<734 781.5> 406 85 955 20G<803 803>
VStem: 1 33<53 139> 390 35 441 166<529 711> 1162 26<48.5 67> 1162 230<36 207>
LayerCount: 2
Fore
SplineSet
1608 791 m 1,0,-1
 1619 797 l 1,1,-1
 1578 881 l 2,2,3
 1575.5 886 1575.5 886 1565.5 886 c 2,4,-1
 1562 886 l 1,5,-1
 1413 815 l 1,6,-1
 1425 806 l 1,7,-1
 1559 860 l 1,8,-1
 1608 791 l 1,0,-1
938 120 m 1,9,10
 946 166 946 166 980 222 c 1,11,12
 1021 209 1021 209 1057 189 c 1,13,14
 1025 172 1025 172 938 120 c 1,9,10
1162 43 m 0,15,16
 1162 26 1162 26 1155 2 c 1,17,18
 1100 -13 1100 -13 1061 -13 c 0,19,20
 952 -13 952 -13 938 80 c 1,21,22
 973 101 973 101 1084 172 c 1,23,24
 1162 116 1162 116 1162 43 c 0,15,16
426 62 m 0,25,26
 426 126 426 126 528.5 186.5 c 128,-1,27
 631 247 631 247 781 249 c 1,28,29
 578 87 578 87 442 20 c 1,30,31
 426 37 426 37 426 62 c 0,25,26
823 261 m 1,32,-1
 1013 422 l 2,33,34
 1015 423 1015 423 1088.5 485.5 c 128,-1,35
 1162 548 1162 548 1201 578.5 c 128,-1,36
 1240 609 1240 609 1309 653.5 c 128,-1,37
 1378 698 1378 698 1430 717 c 0,38,39
 1439 720 1439 720 1441.5 720 c 2,40,41
 1445 720 l 2,42,43
 1446 720 1446 720 1445 719 c 0,44,45
 1430 707 1430 707 1354.5 650 c 128,-1,46
 1279 593 1279 593 1238.5 559 c 128,-1,47
 1198 525 1198 525 1135.5 468.5 c 0,48,49
 1015.56938831 360.082727028 1015.56938831 360.082727028 958 247 c 1,50,51
 895 260 895 260 823 261 c 1,32,-1
1188 56 m 0,52,53
 1188 135 1188 135 1110 188 c 1,54,55
 1207 245 1207 245 1266 245 c 0,56,57
 1377 245 1377 245 1377 182 c 0,58,59
 1377 138 1377 138 1318.5 89 c 128,-1,60
 1260 40 1260 40 1181 11 c 1,61,62
 1188 32 1188 32 1188 56 c 0,52,53
808 249 m 1,63,64
 888 246 888 246 949 230 c 1,65,66
 921 167 921 167 918 108 c 1,67,68
 815 46 815 46 737.5 13.5 c 128,-1,69
 660 -19 660 -19 578 -19 c 128,-1,70
 496 -19 496 -19 455 9 c 1,71,72
 606 81 606 81 808 249 c 1,63,64
640 521 m 1,73,-1
 641 504 l 1,74,-1
 655 504 l 2,75,76
 745 504 745 504 828.5 529.5 c 128,-1,77
 912 555 912 555 967 593 c 128,-1,78
 1022 631 1022 631 1054.5 673.5 c 128,-1,79
 1087 716 1087 716 1087 750 c 128,-1,80
 1087 784 1087 784 1058.5 803.5 c 128,-1,81
 1030 823 1030 823 974 823 c 0,82,83
 889 823 889 823 810 773 c 128,-1,84
 731 723 731 723 685.5 653 c 128,-1,85
 640 583 640 583 640 521 c 1,73,-1
803 975 m 1,86,-1
 806 963 l 1,87,88
 650 941 650 941 545.5 844.5 c 128,-1,89
 441 748 441 748 441 650 c 0,90,91
 441 592 441 592 483 553.5 c 128,-1,92
 525 515 525 515 609 506 c 1,93,94
 607 524 607 524 607 534 c 0,95,96
 607 584 607 584 635 637.5 c 128,-1,97
 663 691 663 691 711 736.5 c 128,-1,98
 759 782 759 782 831 811.5 c 128,-1,99
 903 841 903 841 973.5 841 c 128,-1,100
 1044 841 1044 841 1074.5 818.5 c 128,-1,101
 1105 796 1105 796 1105 757 c 128,-1,102
 1105 718 1105 718 1072 672.5 c 128,-1,103
 1039 627 1039 627 982 586 c 128,-1,104
 925 545 925 545 836.5 518 c 128,-1,105
 748 491 748 491 649 491 c 2,106,-1
 643 491 l 1,107,108
 665 406 665 406 790 406 c 0,109,110
 854 406 854 406 943 444 c 128,-1,111
 1032 482 1032 482 1126 560 c 1,112,-1
 1132 552 l 1,113,114
 1102 526 1102 526 1056 494.5 c 128,-1,115
 1010 463 1010 463 930 429 c 128,-1,116
 850 395 850 395 785 395 c 0,117,118
 641 395 641 395 613 492 c 1,119,120
 520 499 520 499 472.5 541 c 128,-1,121
 425 583 425 583 425 646 c 0,122,123
 425 747 425 747 531.5 847 c 128,-1,124
 638 947 638 947 803 975 c 1,86,-1
233 127 m 1,125,-1
 233 116 l 1,126,127
 304 123 304 123 359.5 169.5 c 128,-1,128
 415 216 415 216 415 262 c 0,129,130
 415 292 415 292 386.5 310 c 128,-1,131
 358 328 358 328 300 328 c 0,132,133
 169 328 169 328 85 251 c 128,-1,134
 1 174 1 174 1 84 c 0,135,136
 1 22 1 22 47 -18 c 128,-1,137
 93 -58 93 -58 182 -58 c 0,138,139
 304 -58 304 -58 443 4 c 1,140,141
 485 -30 485 -30 571 -30 c 0,142,143
 745 -30 745 -30 919 69 c 1,144,145
 934 -25 934 -25 1054 -25 c 0,146,147
 1095 -25 1095 -25 1150 -10 c 1,148,149
 1105 -117 1105 -117 904 -187 c 1,150,-1
 904 -197 l 1,151,152
 1010 -169 1010 -169 1080.5 -117 c 128,-1,153
 1151 -65 1151 -65 1176 -3 c 1,154,155
 1264 26 1264 26 1328 79.5 c 128,-1,156
 1392 133 1392 133 1392 186 c 0,157,158
 1392 219 1392 219 1364 238.5 c 128,-1,159
 1336 258 1336 258 1279 258 c 0,160,161
 1193 258 1193 258 1085 204 c 1,162,163
 1047 224 1047 224 991 240 c 1,164,165
 1073 368 1073 368 1238 521 c 128,-1,166
 1403 674 1403 674 1528 745 c 1,167,168
 1533 749 1533 749 1533 754 c 0,169,170
 1533 764 1533 764 1522 764 c 0,171,172
 1520 764 1520 764 1508 762 c 0,173,174
 1355 731 1355 731 1037 461 c 1,175,176
 857 310 857 310 796 261 c 1,177,178
 617 260 617 260 513.5 199.5 c 128,-1,179
 410 139 410 139 410 68 c 0,180,181
 410 38 410 38 431 15 c 1,182,183
 307 -43 307 -43 212.5 -43 c 128,-1,184
 118 -43 118 -43 76 -6 c 128,-1,185
 34 31 34 31 34 89 c 0,186,187
 34 172 34 172 108.5 244 c 128,-1,188
 183 316 183 316 295 316 c 0,189,190
 343 316 343 316 366.5 298.5 c 128,-1,191
 390 281 390 281 390 254 c 0,192,193
 390 213 390 213 344.5 173.5 c 128,-1,194
 299 134 299 134 233 127 c 1,125,-1
EndSplineSet
EndChar

StartChar: Adieresis
Encoding: 196 196 4
Width: 1417
Flags: HMW
HStem: -197 21G<904 904> 249 146 316 175 406 85 826 51<1460.5 1500 1486.5 1560> 955 20G<803 803>
VStem: 1 33<53 139> 390 35 441 166<529 711> 1162 26<48.5 67> 1162 230<36 207>
LayerCount: 2
Fore
SplineSet
1554 862.5 m 128,-1,1
 1538 848 1538 848 1538 837 c 128,-1,2
 1538 826 1538 826 1551.5 826 c 128,-1,3
 1565 826 1565 826 1581 839 c 128,-1,4
 1597 852 1597 852 1597 866 c 0,5,6
 1597 877 1597 877 1583.5 877 c 128,-1,0
 1570 877 1570 877 1554 862.5 c 128,-1,1
1466 862.5 m 128,-1,8
 1450 848 1450 848 1450 837 c 128,-1,9
 1450 826 1450 826 1463.5 826 c 128,-1,10
 1477 826 1477 826 1493 839 c 128,-1,11
 1509 852 1509 852 1509 866 c 0,12,13
 1509 877 1509 877 1495.5 877 c 128,-1,7
 1482 877 1482 877 1466 862.5 c 128,-1,8
938 120 m 1,14,15
 946 166 946 166 980 222 c 1,16,17
 1021 209 1021 209 1057 189 c 1,18,19
 1025 172 1025 172 938 120 c 1,14,15
1162 43 m 0,20,21
 1162 26 1162 26 1155 2 c 1,22,23
 1100 -13 1100 -13 1061 -13 c 0,24,25
 952 -13 952 -13 938 80 c 1,26,27
 973 101 973 101 1084 172 c 1,28,29
 1162 116 1162 116 1162 43 c 0,20,21
426 62 m 0,30,31
 426 126 426 126 528.5 186.5 c 128,-1,32
 631 247 631 247 781 249 c 1,33,34
 578 87 578 87 442 20 c 1,35,36
 426 37 426 37 426 62 c 0,30,31
823 261 m 1,37,-1
 1013 422 l 2,38,39
 1015 423 1015 423 1088.5 485.5 c 128,-1,40
 1162 548 1162 548 1201 578.5 c 128,-1,41
 1240 609 1240 609 1309 653.5 c 128,-1,42
 1378 698 1378 698 1430 717 c 0,43,44
 1439 720 1439 720 1441.5 720 c 2,45,-1
 1445 720 l 2,46,47
 1446 720 1446 720 1445 719 c 0,48,49
 1430 707 1430 707 1354.5 650 c 128,-1,50
 1279 593 1279 593 1238.5 559 c 128,-1,51
 1198 525 1198 525 1135.5 468.5 c 0,52,53
 1015.56938831 360.082727028 1015.56938831 360.082727028 958 247 c 1,54,55
 895 260 895 260 823 261 c 1,37,-1
1188 56 m 0,56,57
 1188 135 1188 135 1110 188 c 1,58,59
 1207 245 1207 245 1266 245 c 0,60,61
 1377 245 1377 245 1377 182 c 0,62,63
 1377 138 1377 138 1318.5 89 c 128,-1,64
 1260 40 1260 40 1181 11 c 1,65,66
 1188 32 1188 32 1188 56 c 0,56,57
808 249 m 1,67,68
 888 246 888 246 949 230 c 1,69,70
 921 167 921 167 918 108 c 1,71,72
 815 46 815 46 737.5 13.5 c 128,-1,73
 660 -19 660 -19 578 -19 c 128,-1,74
 496 -19 496 -19 455 9 c 1,75,76
 606 81 606 81 808 249 c 1,67,68
640 521 m 1,77,-1
 641 504 l 1,78,-1
 655 504 l 2,79,80
 745 504 745 504 828.5 529.5 c 128,-1,81
 912 555 912 555 967 593 c 128,-1,82
 1022 631 1022 631 1054.5 673.5 c 128,-1,83
 1087 716 1087 716 1087 750 c 128,-1,84
 1087 784 1087 784 1058.5 803.5 c 128,-1,85
 1030 823 1030 823 974 823 c 0,86,87
 889 823 889 823 810 773 c 128,-1,88
 731 723 731 723 685.5 653 c 128,-1,89
 640 583 640 583 640 521 c 1,77,-1
803 975 m 1,90,-1
 806 963 l 1,91,92
 650 941 650 941 545.5 844.5 c 128,-1,93
 441 748 441 748 441 650 c 0,94,95
 441 592 441 592 483 553.5 c 128,-1,96
 525 515 525 515 609 506 c 1,97,98
 607 524 607 524 607 534 c 0,99,100
 607 584 607 584 635 637.5 c 128,-1,101
 663 691 663 691 711 736.5 c 128,-1,102
 759 782 759 782 831 811.5 c 128,-1,103
 903 841 903 841 973.5 841 c 128,-1,104
 1044 841 1044 841 1074.5 818.5 c 128,-1,105
 1105 796 1105 796 1105 757 c 128,-1,106
 1105 718 1105 718 1072 672.5 c 128,-1,107
 1039 627 1039 627 982 586 c 128,-1,108
 925 545 925 545 836.5 518 c 128,-1,109
 748 491 748 491 649 491 c 2,110,-1
 643 491 l 1,111,112
 665 406 665 406 790 406 c 0,113,114
 854 406 854 406 943 444 c 128,-1,115
 1032 482 1032 482 1126 560 c 1,116,-1
 1132 552 l 1,117,118
 1102 526 1102 526 1056 494.5 c 128,-1,119
 1010 463 1010 463 930 429 c 128,-1,120
 850 395 850 395 785 395 c 0,121,122
 641 395 641 395 613 492 c 1,123,124
 520 499 520 499 472.5 541 c 128,-1,125
 425 583 425 583 425 646 c 0,126,127
 425 747 425 747 531.5 847 c 128,-1,128
 638 947 638 947 803 975 c 1,90,-1
233 127 m 1,129,-1
 233 116 l 1,130,131
 304 123 304 123 359.5 169.5 c 128,-1,132
 415 216 415 216 415 262 c 0,133,134
 415 292 415 292 386.5 310 c 128,-1,135
 358 328 358 328 300 328 c 0,136,137
 169 328 169 328 85 251 c 128,-1,138
 1 174 1 174 1 84 c 0,139,140
 1 22 1 22 47 -18 c 128,-1,141
 93 -58 93 -58 182 -58 c 0,142,143
 304 -58 304 -58 443 4 c 1,144,145
 485 -30 485 -30 571 -30 c 0,146,147
 745 -30 745 -30 919 69 c 1,148,149
 934 -25 934 -25 1054 -25 c 0,150,151
 1095 -25 1095 -25 1150 -10 c 1,152,153
 1105 -117 1105 -117 904 -187 c 1,154,-1
 904 -197 l 1,155,156
 1010 -169 1010 -169 1080.5 -117 c 128,-1,157
 1151 -65 1151 -65 1176 -3 c 1,158,159
 1264 26 1264 26 1328 79.5 c 128,-1,160
 1392 133 1392 133 1392 186 c 0,161,162
 1392 219 1392 219 1364 238.5 c 128,-1,163
 1336 258 1336 258 1279 258 c 0,164,165
 1193 258 1193 258 1085 204 c 1,166,167
 1047 224 1047 224 991 240 c 1,168,169
 1073 368 1073 368 1238 521 c 128,-1,170
 1403 674 1403 674 1528 745 c 1,171,172
 1533 749 1533 749 1533 754 c 0,173,174
 1533 764 1533 764 1522 764 c 0,175,176
 1520 764 1520 764 1508 762 c 0,177,178
 1355 731 1355 731 1037 461 c 1,179,180
 857 310 857 310 796 261 c 1,181,182
 617 260 617 260 513.5 199.5 c 128,-1,183
 410 139 410 139 410 68 c 0,184,185
 410 38 410 38 431 15 c 1,186,187
 307 -43 307 -43 212.5 -43 c 128,-1,188
 118 -43 118 -43 76 -6 c 128,-1,189
 34 31 34 31 34 89 c 0,190,191
 34 172 34 172 108.5 244 c 128,-1,192
 183 316 183 316 295 316 c 0,193,194
 343 316 343 316 366.5 298.5 c 128,-1,195
 390 281 390 281 390 254 c 0,196,197
 390 213 390 213 344.5 173.5 c 128,-1,198
 299 134 299 134 233 127 c 1,129,-1
EndSplineSet
EndChar

StartChar: Agrave
Encoding: 192 192 5
Width: 1417
Flags: HMW
HStem: -197 21G<904 904> 249 146 261 55 261 145 395 109<734 781.5> 406 85 955 20G<803 803>
VStem: 1 33<53 139> 390 35 441 166<529 711> 1162 26<48.5 67> 1162 230<36 207>
LayerCount: 2
Fore
SplineSet
1578 802 m 1,0,-1
 1440 859 l 1,1,2
 1424 864 1424 864 1424 875.5 c 128,-1,3
 1424 887 1424 887 1431 887 c 128,-1,4
 1438 887 1438 887 1497.5 857 c 128,-1,5
 1557 827 1557 827 1582 812 c 1,6,-1
 1578 802 l 1,0,-1
938 120 m 1,7,8
 946 166 946 166 980 222 c 1,9,10
 1021 209 1021 209 1057 189 c 1,11,12
 1025 172 1025 172 938 120 c 1,7,8
1162 43 m 0,13,14
 1162 26 1162 26 1155 2 c 1,15,16
 1100 -13 1100 -13 1061 -13 c 0,17,18
 952 -13 952 -13 938 80 c 1,19,20
 973 101 973 101 1084 172 c 1,21,22
 1162 116 1162 116 1162 43 c 0,13,14
426 62 m 0,23,24
 426 126 426 126 528.5 186.5 c 128,-1,25
 631 247 631 247 781 249 c 1,26,27
 578 87 578 87 442 20 c 1,28,29
 426 37 426 37 426 62 c 0,23,24
823 261 m 1,30,-1
 1013 422 l 2,31,32
 1015 423 1015 423 1088.5 485.5 c 128,-1,33
 1162 548 1162 548 1201 578.5 c 128,-1,34
 1240 609 1240 609 1309 653.5 c 128,-1,35
 1378 698 1378 698 1430 717 c 0,36,37
 1439 720 1439 720 1441.5 720 c 2,38,39
 1445 720 l 2,40,41
 1446 720 1446 720 1445 719 c 0,42,43
 1430 707 1430 707 1354.5 650 c 128,-1,44
 1279 593 1279 593 1238.5 559 c 128,-1,45
 1198 525 1198 525 1135.5 468.5 c 0,46,47
 1015.56938831 360.082727028 1015.56938831 360.082727028 958 247 c 1,48,49
 895 260 895 260 823 261 c 1,30,-1
1188 56 m 0,50,51
 1188 135 1188 135 1110 188 c 1,52,53
 1207 245 1207 245 1266 245 c 0,54,55
 1377 245 1377 245 1377 182 c 0,56,57
 1377 138 1377 138 1318.5 89 c 128,-1,58
 1260 40 1260 40 1181 11 c 1,59,60
 1188 32 1188 32 1188 56 c 0,50,51
808 249 m 1,61,62
 888 246 888 246 949 230 c 1,63,64
 921 167 921 167 918 108 c 1,65,66
 815 46 815 46 737.5 13.5 c 128,-1,67
 660 -19 660 -19 578 -19 c 128,-1,68
 496 -19 496 -19 455 9 c 1,69,70
 606 81 606 81 808 249 c 1,61,62
640 521 m 1,71,-1
 641 504 l 1,72,-1
 655 504 l 2,73,74
 745 504 745 504 828.5 529.5 c 128,-1,75
 912 555 912 555 967 593 c 128,-1,76
 1022 631 1022 631 1054.5 673.5 c 128,-1,77
 1087 716 1087 716 1087 750 c 128,-1,78
 1087 784 1087 784 1058.5 803.5 c 128,-1,79
 1030 823 1030 823 974 823 c 0,80,81
 889 823 889 823 810 773 c 128,-1,82
 731 723 731 723 685.5 653 c 128,-1,83
 640 583 640 583 640 521 c 1,71,-1
803 975 m 1,84,-1
 806 963 l 1,85,86
 650 941 650 941 545.5 844.5 c 128,-1,87
 441 748 441 748 441 650 c 0,88,89
 441 592 441 592 483 553.5 c 128,-1,90
 525 515 525 515 609 506 c 1,91,92
 607 524 607 524 607 534 c 0,93,94
 607 584 607 584 635 637.5 c 128,-1,95
 663 691 663 691 711 736.5 c 128,-1,96
 759 782 759 782 831 811.5 c 128,-1,97
 903 841 903 841 973.5 841 c 128,-1,98
 1044 841 1044 841 1074.5 818.5 c 128,-1,99
 1105 796 1105 796 1105 757 c 128,-1,100
 1105 718 1105 718 1072 672.5 c 128,-1,101
 1039 627 1039 627 982 586 c 128,-1,102
 925 545 925 545 836.5 518 c 128,-1,103
 748 491 748 491 649 491 c 2,104,-1
 643 491 l 1,105,106
 665 406 665 406 790 406 c 0,107,108
 854 406 854 406 943 444 c 128,-1,109
 1032 482 1032 482 1126 560 c 1,110,-1
 1132 552 l 1,111,112
 1102 526 1102 526 1056 494.5 c 128,-1,113
 1010 463 1010 463 930 429 c 128,-1,114
 850 395 850 395 785 395 c 0,115,116
 641 395 641 395 613 492 c 1,117,118
 520 499 520 499 472.5 541 c 128,-1,119
 425 583 425 583 425 646 c 0,120,121
 425 747 425 747 531.5 847 c 128,-1,122
 638 947 638 947 803 975 c 1,84,-1
233 127 m 1,123,-1
 233 116 l 1,124,125
 304 123 304 123 359.5 169.5 c 128,-1,126
 415 216 415 216 415 262 c 0,127,128
 415 292 415 292 386.5 310 c 128,-1,129
 358 328 358 328 300 328 c 0,130,131
 169 328 169 328 85 251 c 128,-1,132
 1 174 1 174 1 84 c 0,133,134
 1 22 1 22 47 -18 c 128,-1,135
 93 -58 93 -58 182 -58 c 0,136,137
 304 -58 304 -58 443 4 c 1,138,139
 485 -30 485 -30 571 -30 c 0,140,141
 745 -30 745 -30 919 69 c 1,142,143
 934 -25 934 -25 1054 -25 c 0,144,145
 1095 -25 1095 -25 1150 -10 c 1,146,147
 1105 -117 1105 -117 904 -187 c 1,148,-1
 904 -197 l 1,149,150
 1010 -169 1010 -169 1080.5 -117 c 128,-1,151
 1151 -65 1151 -65 1176 -3 c 1,152,153
 1264 26 1264 26 1328 79.5 c 128,-1,154
 1392 133 1392 133 1392 186 c 0,155,156
 1392 219 1392 219 1364 238.5 c 128,-1,157
 1336 258 1336 258 1279 258 c 0,158,159
 1193 258 1193 258 1085 204 c 1,160,161
 1047 224 1047 224 991 240 c 1,162,163
 1073 368 1073 368 1238 521 c 128,-1,164
 1403 674 1403 674 1528 745 c 1,165,166
 1533 749 1533 749 1533 754 c 0,167,168
 1533 764 1533 764 1522 764 c 0,169,170
 1520 764 1520 764 1508 762 c 0,171,172
 1355 731 1355 731 1037 461 c 1,173,174
 857 310 857 310 796 261 c 1,175,176
 617 260 617 260 513.5 199.5 c 128,-1,177
 410 139 410 139 410 68 c 0,178,179
 410 38 410 38 431 15 c 1,180,181
 307 -43 307 -43 212.5 -43 c 128,-1,182
 118 -43 118 -43 76 -6 c 128,-1,183
 34 31 34 31 34 89 c 0,184,185
 34 172 34 172 108.5 244 c 128,-1,186
 183 316 183 316 295 316 c 0,187,188
 343 316 343 316 366.5 298.5 c 128,-1,189
 390 281 390 281 390 254 c 0,190,191
 390 213 390 213 344.5 173.5 c 128,-1,192
 299 134 299 134 233 127 c 1,123,-1
EndSplineSet
EndChar

StartChar: Aring
Encoding: 197 197 6
Width: 1417
Flags: HMW
HStem: -197 21G<904 904> 249 146 316 175 406 85 791 83<1529.5 1537.5> 955 20G<803 803>
VStem: 1 33<53 139> 390 35 441 166<529 711> 1162 26<48.5 67> 1162 230<36 207> 1487 93<810.5 854.5>
LayerCount: 2
Fore
SplineSet
1516 848 m 128,-1,1
 1528 861 1528 861 1546.5 861 c 128,-1,2
 1565 861 1565 861 1565 844 c 0,3,4
 1565 830 1565 830 1553 817 c 128,-1,5
 1541 804 1541 804 1522.5 804 c 128,-1,6
 1504 804 1504 804 1504 821 c 0,7,0
 1504 835 1504 835 1516 848 c 128,-1,1
1580 847 m 0,8,9
 1580 874 1580 874 1551 874 c 128,-1,10
 1522 874 1522 874 1504.5 856 c 128,-1,11
 1487 838 1487 838 1487 818 c 0,12,13
 1487 791 1487 791 1516 791 c 128,-1,14
 1545 791 1545 791 1562.5 809 c 128,-1,15
 1580 827 1580 827 1580 847 c 0,8,9
938 120 m 1,16,17
 946 166 946 166 980 222 c 1,18,19
 1021 209 1021 209 1057 189 c 1,20,21
 1025 172 1025 172 938 120 c 1,16,17
1162 43 m 0,22,23
 1162 26 1162 26 1155 2 c 1,24,25
 1100 -13 1100 -13 1061 -13 c 0,26,27
 952 -13 952 -13 938 80 c 1,28,29
 973 101 973 101 1084 172 c 1,30,31
 1162 116 1162 116 1162 43 c 0,22,23
426 62 m 0,32,33
 426 126 426 126 528.5 186.5 c 128,-1,34
 631 247 631 247 781 249 c 1,35,36
 578 87 578 87 442 20 c 1,37,38
 426 37 426 37 426 62 c 0,32,33
823 261 m 1,39,-1
 1013 422 l 2,40,41
 1015 423 1015 423 1088.5 485.5 c 128,-1,42
 1162 548 1162 548 1201 578.5 c 128,-1,43
 1240 609 1240 609 1309 653.5 c 128,-1,44
 1378 698 1378 698 1430 717 c 0,45,46
 1439 720 1439 720 1441.5 720 c 2,47,-1
 1445 720 l 2,48,49
 1446 720 1446 720 1445 719 c 0,50,51
 1430 707 1430 707 1354.5 650 c 128,-1,52
 1279 593 1279 593 1238.5 559 c 128,-1,53
 1198 525 1198 525 1135.5 468.5 c 0,54,55
 1015.56938831 360.082727028 1015.56938831 360.082727028 958 247 c 1,56,57
 895 260 895 260 823 261 c 1,39,-1
1188 56 m 0,58,59
 1188 135 1188 135 1110 188 c 1,60,61
 1207 245 1207 245 1266 245 c 0,62,63
 1377 245 1377 245 1377 182 c 0,64,65
 1377 138 1377 138 1318.5 89 c 128,-1,66
 1260 40 1260 40 1181 11 c 1,67,68
 1188 32 1188 32 1188 56 c 0,58,59
808 249 m 1,69,70
 888 246 888 246 949 230 c 1,71,72
 921 167 921 167 918 108 c 1,73,74
 815 46 815 46 737.5 13.5 c 128,-1,75
 660 -19 660 -19 578 -19 c 128,-1,76
 496 -19 496 -19 455 9 c 1,77,78
 606 81 606 81 808 249 c 1,69,70
640 521 m 1,79,-1
 641 504 l 1,80,-1
 655 504 l 2,81,82
 745 504 745 504 828.5 529.5 c 128,-1,83
 912 555 912 555 967 593 c 128,-1,84
 1022 631 1022 631 1054.5 673.5 c 128,-1,85
 1087 716 1087 716 1087 750 c 128,-1,86
 1087 784 1087 784 1058.5 803.5 c 128,-1,87
 1030 823 1030 823 974 823 c 0,88,89
 889 823 889 823 810 773 c 128,-1,90
 731 723 731 723 685.5 653 c 128,-1,91
 640 583 640 583 640 521 c 1,79,-1
803 975 m 1,92,-1
 806 963 l 1,93,94
 650 941 650 941 545.5 844.5 c 128,-1,95
 441 748 441 748 441 650 c 0,96,97
 441 592 441 592 483 553.5 c 128,-1,98
 525 515 525 515 609 506 c 1,99,100
 607 524 607 524 607 534 c 0,101,102
 607 584 607 584 635 637.5 c 128,-1,103
 663 691 663 691 711 736.5 c 128,-1,104
 759 782 759 782 831 811.5 c 128,-1,105
 903 841 903 841 973.5 841 c 128,-1,106
 1044 841 1044 841 1074.5 818.5 c 128,-1,107
 1105 796 1105 796 1105 757 c 128,-1,108
 1105 718 1105 718 1072 672.5 c 128,-1,109
 1039 627 1039 627 982 586 c 128,-1,110
 925 545 925 545 836.5 518 c 128,-1,111
 748 491 748 491 649 491 c 2,112,-1
 643 491 l 1,113,114
 665 406 665 406 790 406 c 0,115,116
 854 406 854 406 943 444 c 128,-1,117
 1032 482 1032 482 1126 560 c 1,118,-1
 1132 552 l 1,119,120
 1102 526 1102 526 1056 494.5 c 128,-1,121
 1010 463 1010 463 930 429 c 128,-1,122
 850 395 850 395 785 395 c 0,123,124
 641 395 641 395 613 492 c 1,125,126
 520 499 520 499 472.5 541 c 128,-1,127
 425 583 425 583 425 646 c 0,128,129
 425 747 425 747 531.5 847 c 128,-1,130
 638 947 638 947 803 975 c 1,92,-1
233 127 m 1,131,-1
 233 116 l 1,132,133
 304 123 304 123 359.5 169.5 c 128,-1,134
 415 216 415 216 415 262 c 0,135,136
 415 292 415 292 386.5 310 c 128,-1,137
 358 328 358 328 300 328 c 0,138,139
 169 328 169 328 85 251 c 128,-1,140
 1 174 1 174 1 84 c 0,141,142
 1 22 1 22 47 -18 c 128,-1,143
 93 -58 93 -58 182 -58 c 0,144,145
 304 -58 304 -58 443 4 c 1,146,147
 485 -30 485 -30 571 -30 c 0,148,149
 745 -30 745 -30 919 69 c 1,150,151
 934 -25 934 -25 1054 -25 c 0,152,153
 1095 -25 1095 -25 1150 -10 c 1,154,155
 1105 -117 1105 -117 904 -187 c 1,156,-1
 904 -197 l 1,157,158
 1010 -169 1010 -169 1080.5 -117 c 128,-1,159
 1151 -65 1151 -65 1176 -3 c 1,160,161
 1264 26 1264 26 1328 79.5 c 128,-1,162
 1392 133 1392 133 1392 186 c 0,163,164
 1392 219 1392 219 1364 238.5 c 128,-1,165
 1336 258 1336 258 1279 258 c 0,166,167
 1193 258 1193 258 1085 204 c 1,168,169
 1047 224 1047 224 991 240 c 1,170,171
 1073 368 1073 368 1238 521 c 128,-1,172
 1403 674 1403 674 1528 745 c 1,173,174
 1533 749 1533 749 1533 754 c 0,175,176
 1533 764 1533 764 1522 764 c 0,177,178
 1520 764 1520 764 1508 762 c 0,179,180
 1355 731 1355 731 1037 461 c 1,181,182
 857 310 857 310 796 261 c 1,183,184
 617 260 617 260 513.5 199.5 c 128,-1,185
 410 139 410 139 410 68 c 0,186,187
 410 38 410 38 431 15 c 1,188,189
 307 -43 307 -43 212.5 -43 c 128,-1,190
 118 -43 118 -43 76 -6 c 128,-1,191
 34 31 34 31 34 89 c 0,192,193
 34 172 34 172 108.5 244 c 128,-1,194
 183 316 183 316 295 316 c 0,195,196
 343 316 343 316 366.5 298.5 c 128,-1,197
 390 281 390 281 390 254 c 0,198,199
 390 213 390 213 344.5 173.5 c 128,-1,200
 299 134 299 134 233 127 c 1,131,-1
EndSplineSet
EndChar

StartChar: Atilde
Encoding: 195 195 7
Width: 1417
Flags: HMW
HStem: -197 21G<904 904> 249 146 316 175 406 85 809 56<1456.5 1575> 841 24 955 20G<803 803>
VStem: 1 33<53 139> 390 35 441 166<529 711> 1162 26<48.5 67> 1162 230<36 207>
LayerCount: 2
Fore
SplineSet
1623 847 m 1,0,-1
 1614 853 l 1,1,2
 1598 833 1598 833 1582.5 833 c 128,-1,3
 1567 833 1567 833 1533 849 c 128,-1,4
 1499 865 1499 865 1474 865 c 0,5,6
 1427 865 1427 865 1394 823 c 1,7,-1
 1399 818 l 1,8,9
 1431 846 1431 846 1451.5 846 c 128,-1,10
 1472 846 1472 846 1505 827.5 c 128,-1,11
 1538 809 1538 809 1559 809 c 0,12,13
 1601 809 1601 809 1623 847 c 1,0,-1
938 120 m 1,14,15
 946 166 946 166 980 222 c 1,16,17
 1021 209 1021 209 1057 189 c 1,18,19
 1025 172 1025 172 938 120 c 1,14,15
1162 43 m 0,20,21
 1162 26 1162 26 1155 2 c 1,22,23
 1100 -13 1100 -13 1061 -13 c 0,24,25
 952 -13 952 -13 938 80 c 1,26,27
 973 101 973 101 1084 172 c 1,28,29
 1162 116 1162 116 1162 43 c 0,20,21
426 62 m 0,30,31
 426 126 426 126 528.5 186.5 c 128,-1,32
 631 247 631 247 781 249 c 1,33,34
 578 87 578 87 442 20 c 1,35,36
 426 37 426 37 426 62 c 0,30,31
823 261 m 1,37,-1
 1013 422 l 2,38,39
 1015 423 1015 423 1088.5 485.5 c 128,-1,40
 1162 548 1162 548 1201 578.5 c 128,-1,41
 1240 609 1240 609 1309 653.5 c 128,-1,42
 1378 698 1378 698 1430 717 c 0,43,44
 1439 720 1439 720 1441.5 720 c 2,45,-1
 1445 720 l 2,46,47
 1446 720 1446 720 1445 719 c 0,48,49
 1430 707 1430 707 1354.5 650 c 128,-1,50
 1279 593 1279 593 1238.5 559 c 128,-1,51
 1198 525 1198 525 1135.5 468.5 c 0,52,53
 1015.56938831 360.082727028 1015.56938831 360.082727028 958 247 c 1,54,55
 895 260 895 260 823 261 c 1,37,-1
1188 56 m 0,56,57
 1188 135 1188 135 1110 188 c 1,58,59
 1207 245 1207 245 1266 245 c 0,60,61
 1377 245 1377 245 1377 182 c 0,62,63
 1377 138 1377 138 1318.5 89 c 128,-1,64
 1260 40 1260 40 1181 11 c 1,65,66
 1188 32 1188 32 1188 56 c 0,56,57
808 249 m 1,67,68
 888 246 888 246 949 230 c 1,69,70
 921 167 921 167 918 108 c 1,71,72
 815 46 815 46 737.5 13.5 c 128,-1,73
 660 -19 660 -19 578 -19 c 128,-1,74
 496 -19 496 -19 455 9 c 1,75,76
 606 81 606 81 808 249 c 1,67,68
640 521 m 1,77,-1
 641 504 l 1,78,-1
 655 504 l 2,79,80
 745 504 745 504 828.5 529.5 c 128,-1,81
 912 555 912 555 967 593 c 128,-1,82
 1022 631 1022 631 1054.5 673.5 c 128,-1,83
 1087 716 1087 716 1087 750 c 128,-1,84
 1087 784 1087 784 1058.5 803.5 c 128,-1,85
 1030 823 1030 823 974 823 c 0,86,87
 889 823 889 823 810 773 c 128,-1,88
 731 723 731 723 685.5 653 c 128,-1,89
 640 583 640 583 640 521 c 1,77,-1
803 975 m 1,90,-1
 806 963 l 1,91,92
 650 941 650 941 545.5 844.5 c 128,-1,93
 441 748 441 748 441 650 c 0,94,95
 441 592 441 592 483 553.5 c 128,-1,96
 525 515 525 515 609 506 c 1,97,98
 607 524 607 524 607 534 c 0,99,100
 607 584 607 584 635 637.5 c 128,-1,101
 663 691 663 691 711 736.5 c 128,-1,102
 759 782 759 782 831 811.5 c 128,-1,103
 903 841 903 841 973.5 841 c 128,-1,104
 1044 841 1044 841 1074.5 818.5 c 128,-1,105
 1105 796 1105 796 1105 757 c 128,-1,106
 1105 718 1105 718 1072 672.5 c 128,-1,107
 1039 627 1039 627 982 586 c 128,-1,108
 925 545 925 545 836.5 518 c 128,-1,109
 748 491 748 491 649 491 c 2,110,-1
 643 491 l 1,111,112
 665 406 665 406 790 406 c 0,113,114
 854 406 854 406 943 444 c 128,-1,115
 1032 482 1032 482 1126 560 c 1,116,-1
 1132 552 l 1,117,118
 1102 526 1102 526 1056 494.5 c 128,-1,119
 1010 463 1010 463 930 429 c 128,-1,120
 850 395 850 395 785 395 c 0,121,122
 641 395 641 395 613 492 c 1,123,124
 520 499 520 499 472.5 541 c 128,-1,125
 425 583 425 583 425 646 c 0,126,127
 425 747 425 747 531.5 847 c 128,-1,128
 638 947 638 947 803 975 c 1,90,-1
233 127 m 1,129,-1
 233 116 l 1,130,131
 304 123 304 123 359.5 169.5 c 128,-1,132
 415 216 415 216 415 262 c 0,133,134
 415 292 415 292 386.5 310 c 128,-1,135
 358 328 358 328 300 328 c 0,136,137
 169 328 169 328 85 251 c 128,-1,138
 1 174 1 174 1 84 c 0,139,140
 1 22 1 22 47 -18 c 128,-1,141
 93 -58 93 -58 182 -58 c 0,142,143
 304 -58 304 -58 443 4 c 1,144,145
 485 -30 485 -30 571 -30 c 0,146,147
 745 -30 745 -30 919 69 c 1,148,149
 934 -25 934 -25 1054 -25 c 0,150,151
 1095 -25 1095 -25 1150 -10 c 1,152,153
 1105 -117 1105 -117 904 -187 c 1,154,-1
 904 -197 l 1,155,156
 1010 -169 1010 -169 1080.5 -117 c 128,-1,157
 1151 -65 1151 -65 1176 -3 c 1,158,159
 1264 26 1264 26 1328 79.5 c 128,-1,160
 1392 133 1392 133 1392 186 c 0,161,162
 1392 219 1392 219 1364 238.5 c 128,-1,163
 1336 258 1336 258 1279 258 c 0,164,165
 1193 258 1193 258 1085 204 c 1,166,167
 1047 224 1047 224 991 240 c 1,168,169
 1073 368 1073 368 1238 521 c 128,-1,170
 1403 674 1403 674 1528 745 c 1,171,172
 1533 749 1533 749 1533 754 c 0,173,174
 1533 764 1533 764 1522 764 c 0,175,176
 1520 764 1520 764 1508 762 c 0,177,178
 1355 731 1355 731 1037 461 c 1,179,180
 857 310 857 310 796 261 c 1,181,182
 617 260 617 260 513.5 199.5 c 128,-1,183
 410 139 410 139 410 68 c 0,184,185
 410 38 410 38 431 15 c 1,186,187
 307 -43 307 -43 212.5 -43 c 128,-1,188
 118 -43 118 -43 76 -6 c 128,-1,189
 34 31 34 31 34 89 c 0,190,191
 34 172 34 172 108.5 244 c 128,-1,192
 183 316 183 316 295 316 c 0,193,194
 343 316 343 316 366.5 298.5 c 128,-1,195
 390 281 390 281 390 254 c 0,196,197
 390 213 390 213 344.5 173.5 c 128,-1,198
 299 134 299 134 233 127 c 1,129,-1
EndSplineSet
EndChar

StartChar: B
Encoding: 66 66 8
Width: 1371
Flags: HMW
HStem: -217 21G<462 462> -23 196<854 1105.5> 160 246<692 1099> 223 144<380.5 537> 353 53 393 49 772 121
VStem: -8 22<22 68 22 73> -8 230<20.5 122> 573 30<279.5 309> 610 32<457.5 529.5 457.5 530.5> 749 35<-32.5 28.5> 749 83<9 28.5> 900 168 1039 29<668.5 740.5 661 744> 1155 34<267.5 287 247.5 305> 1295 27<-2 67> 1360 32<577 623 562 633> 1697 29<647.5 701>
LayerCount: 2
Fore
SplineSet
1052 422 m 1,0,1
 1041 410 1041 410 1017 386 c 1,2,3
 1057 386 1057 386 1107 395 c 1,4,5
 1084 413 1084 413 1052 422 c 1,0,1
978 432 m 0,6,7
 918 432 918 432 918 415 c 128,-1,8
 918 398 918 398 967 389 c 1,9,10
 995 419 995 419 1006 431 c 1,11,12
 997 432 997 432 978 432 c 0,6,7
1120 159 m 1,13,-1
 1090 160 l 1,14,15
 1003 160 1003 160 917.5 108 c 128,-1,16
 832 56 832 56 832 17 c 0,17,18
 832 -10 832 -10 883 -10 c 0,19,20
 954 -10 954 -10 1018.5 38.5 c 128,-1,21
 1083 87 1083 87 1120 159 c 1,13,-1
259 218 m 1,22,23
 341 233 341 233 415.5 233 c 128,-1,24
 490 233 490 233 552 220 c 1,25,26
 573 260 573 260 573 290 c 0,27,28
 573 353 573 353 490 353 c 0,29,30
 419 353 419 353 357.5 314.5 c 128,-1,31
 296 276 296 276 259 218 c 1,22,23
307 -9 m 1,32,33
 344 -23 344 -23 401.5 -23 c 128,-1,34
 459 -23 459 -23 552 20 c 0,35,36
 646.86 63.86 646.86 63.86 704 121 c 1,37,38
 659 173 659 173 575 199 c 1,39,40
 540 136 540 136 469 79 c 128,-1,41
 398 22 398 22 307 -9 c 1,32,33
14 41 m 0,42,43
 14 11 14 11 46.5 -7.5 c 128,-1,44
 79 -26 79 -26 141 -26 c 128,-1,45
 203 -26 203 -26 265 -6 c 1,46,47
 207 30 207 30 207 103 c 0,48,49
 207 152 207 152 234 202 c 1,50,51
 134 177 134 177 74 130.5 c 128,-1,52
 14 84 14 84 14 41 c 0,42,43
1127 400 m 1,53,54
 1230 426 1230 426 1295 489.5 c 128,-1,55
 1360 553 1360 553 1360 621 c 0,56,57
 1360 658 1360 658 1337 690 c 1,58,59
 1253 631 1253 631 1167 543 c 0,60,61
 1148 524 1148 524 1061 432 c 1,62,63
 1099 422 1099 422 1127 400 c 1,53,54
545 208 m 1,64,65
 480 223 480 223 405.5 223 c 128,-1,66
 331 223 331 223 251 206 c 1,67,68
 222 156 222 156 222 106 c 0,69,70
 222 34 222 34 285 0 c 1,71,72
 369 31 369 31 439 89 c 128,-1,73
 509 147 509 147 545 208 c 1,64,65
668 564.5 m 128,-1,75
 642 518 642 518 642 482 c 128,-1,76
 642 446 642 446 661.5 426 c 128,-1,77
 681 406 681 406 717 406 c 0,78,79
 793 406 793 406 869 460 c 128,-1,80
 945 514 945 514 992 591.5 c 128,-1,81
 1039 669 1039 669 1039 738 c 0,82,83
 1039 757 1039 757 1035 772 c 1,84,85
 944 765 944 765 866.5 732.5 c 128,-1,86
 789 700 789 700 741.5 655.5 c 128,-1,74
 694 611 694 611 668 564.5 c 128,-1,75
1098 173 m 1,87,-1
 1127 172 l 1,88,89
 1155 231 1155 231 1155 289 c 128,-1,90
 1155 347 1155 347 1119 384 c 1,91,92
 1062 374 1062 374 1006 374 c 1,93,94
 864 226 864 226 831 188 c 1,95,96
 801 158 801 158 744 114 c 1,97,98
 784 65 784 65 784 11 c 0,99,100
 784 -66 784 -66 702.5 -129.5 c 128,-1,101
 621 -193 621 -193 462 -217 c 1,102,-1
 462 -206 l 1,103,104
 601 -184 601 -184 675 -122.5 c 128,-1,105
 749 -61 749 -61 749 14 c 0,106,107
 749 58 749 58 722 99 c 1,108,109
 529 -36 529 -36 389 -36 c 0,110,111
 325 -36 325 -36 283 -16 c 1,112,113
 210 -37 210 -37 139 -37 c 128,-1,114
 68 -37 68 -37 30 -14.5 c 128,-1,115
 -8 8 -8 8 -8 43 c 0,116,117
 -8 91 -8 91 58 140.5 c 128,-1,118
 124 190 124 190 241 215 c 1,119,120
 280 280 280 280 349.5 323.5 c 128,-1,121
 419 367 419 367 502 367 c 0,122,123
 553 367 553 367 578 345.5 c 128,-1,124
 603 324 603 324 603 288.25 c 128,-1,125
 603 252.5 603 252.5 582 212 c 1,126,127
 667 187 667 187 721 138 c 1,128,129
 770 186 770 186 954 377 c 1,130,131
 900 386 900 386 900 410 c 0,132,133
 900 423 900 423 923 432.5 c 128,-1,134
 946 442 946 442 972 442 c 128,-1,135
 998 442 998 442 1016 440 c 1,136,-1
 1051 477 l 1,137,138
 1187 625 1187 625 1322 707 c 1,139,140
 1252 774 1252 774 1084 774 c 0,141,142
 1078 774 1078 774 1072 773.5 c 128,-1,143
 1066 773 1066 773 1063 773 c 1,144,145
 1068 753 1068 753 1068 734 c 0,146,147
 1068 660 1068 660 1019.5 581.5 c 128,-1,148
 971 503 971 503 885 448 c 128,-1,149
 799 393 799 393 705 393 c 0,150,151
 659 393 659 393 634.5 416 c 128,-1,152
 610 439 610 439 610 479 c 128,-1,153
 610 519 610 519 638.5 567 c 128,-1,154
 667 615 667 615 717.5 660.5 c 128,-1,155
 768 706 768 706 851.5 739.5 c 128,-1,156
 935 773 935 773 1033 781 c 1,157,158
 1004 878 1004 878 852 878 c 0,159,160
 802 878 802 878 745 861.5 c 128,-1,161
 688 845 688 845 643 821 c 0,162,163
 551.58490566 772.245283019 551.58490566 772.245283019 501 732.5 c 2,164,-1
 480 716 l 1,165,-1
 470 725 l 1,166,167
 494 746 494 746 543.5 779 c 128,-1,168
 593 812 593 812 637 834.5 c 128,-1,169
 681 857 681 857 742.5 875 c 128,-1,170
 804 893 804 893 860 893 c 0,171,172
 1027 893 1027 893 1061 783 c 1,173,174
 1078 784 1078 784 1092 784 c 0,175,176
 1254 784 1254 784 1337 716 c 1,177,178
 1461 788 1461 788 1564 788 c 0,179,180
 1642 788 1642 788 1684 757.5 c 128,-1,181
 1726 727 1726 727 1726 677 c 128,-1,182
 1726 627 1726 627 1670.5 578 c 128,-1,183
 1615 529 1615 529 1517 512 c 1,184,-1
 1507 520 l 1,185,186
 1598 537 1598 537 1647.5 581 c 128,-1,187
 1697 625 1697 625 1697 671 c 128,-1,188
 1697 717 1697 717 1659.5 746 c 128,-1,189
 1622 775 1622 775 1554 775 c 0,190,191
 1465 775 1465 775 1353 701 c 1,192,193
 1392 659 1392 659 1392 606 c 0,194,195
 1392 537 1392 537 1325.5 475.5 c 128,-1,196
 1259 414 1259 414 1140 388 c 1,197,198
 1189 339 1189 339 1189 263 c 0,199,200
 1189 216 1189 216 1169 168 c 1,201,202
 1245 156 1245 156 1283.5 122 c 128,-1,203
 1322 88 1322 88 1322 41 c 0,204,205
 1322 -28 1322 -28 1245.5 -91.5 c 128,-1,206
 1169 -155 1169 -155 1043 -174 c 1,207,-1
 1039 -162 l 1,208,209
 1147 -152 1147 -152 1221 -89.5 c 128,-1,210
 1295 -27 1295 -27 1295 41 c 0,211,212
 1295 82 1295 82 1262.5 112.5 c 128,-1,213
 1230 143 1230 143 1164 154 c 1,214,215
 1129 77 1129 77 1052.5 27 c 128,-1,216
 976 -23 976 -23 872 -23 c 0,217,218
 820 -23 820 -23 820 12 c 0,219,220
 820 60 820 60 904 116.5 c 128,-1,221
 988 173 988 173 1098 173 c 1,87,-1
EndSplineSet
EndChar

StartChar: C
Encoding: 67 67 9
Width: 1028
Flags: HMW
HStem: -207 186<450 705.5> 241 72 542 201 728 115 823 20<585 711> 955 20G<431 431>
VStem: 0 30<34 100 34 107> 134 34<666.5 752> 313 20<460.5 505.5> 445 48<138 152 129.5 166.5> 767 35<21.5 50.5 16 56> 967 26<147 198> 1193 25<614 688>
LayerCount: 2
Fore
SplineSet
510 234 m 1,0,1
 493 181 493 181 493 148.5 c 128,-1,2
 493 116 493 116 498 94 c 1,3,4
 612 163 612 163 658 188 c 1,5,6
 595 223 595 223 510 234 c 1,0,1
677 176 m 1,7,-1
 507 67 l 1,8,9
 548 -21 548 -21 694 -21 c 0,10,11
 723 -21 723 -21 760 -14 c 1,12,13
 767 10 767 10 767 29 c 0,14,15
 767 117 767 117 677 176 c 1,7,-1
967 177 m 0,16,17
 967 210 967 210 944 230 c 128,-1,18
 921 250 921 250 876 250 c 0,19,20
 802 250 802 250 695 187 c 1,21,22
 802 119 802 119 802 20 c 0,23,24
 802 7 802 7 799 -4 c 1,25,26
 875 21 875 21 921 74 c 128,-1,27
 967 127 967 127 967 177 c 0,16,17
388 553 m 0,28,29
 491 553 491 553 585.5 589 c 128,-1,30
 680 625 680 625 732.5 673.5 c 128,-1,31
 785 722 785 722 785 763 c 0,32,33
 785 823 785 823 666.5 823 c 128,-1,34
 548 823 548 823 455 742 c 128,-1,35
 362 661 362 661 339 555 c 1,36,37
 369 553 369 553 388 553 c 0,28,29
407 241 m 0,38,39
 226 241 226 241 128 185 c 128,-1,40
 30 129 30 129 30 60 c 0,41,42
 30 19 30 19 67.5 -8 c 128,-1,43
 105 -35 105 -35 172 -35 c 0,44,45
 279 -35 279 -35 460 72 c 1,46,47
 445 105 445 105 445 149.5 c 128,-1,48
 445 194 445 194 457 239 c 1,49,50
 425 241 425 241 407 241 c 0,38,39
577 313 m 0,51,52
 687 313 687 313 803 353 c 128,-1,53
 919 393 919 393 1002.5 449.5 c 128,-1,54
 1086 506 1086 506 1139.5 567 c 128,-1,55
 1193 628 1193 628 1193 671 c 0,56,57
 1193 728 1193 728 1096 728 c 128,-1,58
 999 728 999 728 886.5 665.5 c 128,-1,59
 774 603 774 603 685.5 509.5 c 128,-1,60
 597 416 597 416 544 314 c 1,61,62
 555 313 555 313 577 313 c 0,51,52
431 975 m 1,63,-1
 434 960 l 1,64,65
 322 941 322 941 245 862 c 128,-1,66
 168 783 168 783 168 700 c 0,67,68
 168 647 168 647 205.5 608.5 c 128,-1,69
 243 570 243 570 320 558 c 1,70,71
 346 671 346 671 445.5 757 c 128,-1,72
 545 843 545 843 677 843 c 0,73,74
 739 843 739 843 770.5 822.5 c 128,-1,75
 802 802 802 802 802 768 c 0,76,77
 802 693 802 693 679.5 617.5 c 128,-1,78
 557 542 557 542 380 542 c 0,79,80
 350 542 350 542 336 543 c 1,81,82
 333 522 333 522 333 502 c 0,83,84
 333 436 333 436 371.5 387.5 c 128,-1,85
 410 339 410 339 489 322 c 1,86,87
 526 400 526 400 589 474 c 128,-1,88
 652 548 652 548 732 608.5 c 128,-1,89
 812 669 812 669 911.5 706 c 128,-1,90
 1011 743 1011 743 1114.5 743 c 128,-1,91
 1218 743 1218 743 1218 676 c 0,92,93
 1218 629 1218 629 1162.5 564.5 c 128,-1,94
 1107 500 1107 500 1019.5 440 c 128,-1,95
 932 380 932 380 809 338.5 c 128,-1,96
 686 297 686 297 566 297 c 0,97,98
 546 297 546 297 536 298 c 1,99,100
 524 272.5 524 272.5 515 247 c 1,101,102
 610 234 610 234 676 197 c 1,103,104
 805 264 805 264 893 264 c 0,105,106
 942 264 942 264 967.5 241.5 c 128,-1,107
 993 219 993 219 993 182 c 0,108,109
 993 126 993 126 939.5 66.5 c 128,-1,110
 886 7 886 7 796 -19 c 1,111,112
 773 -94 773 -94 682 -150.5 c 128,-1,113
 591 -207 591 -207 467 -207 c 0,114,115
 416 -207 416 -207 359 -195 c 1,116,-1
 369 -186 l 1,117,118
 407 -193 407 -193 449 -193 c 0,119,120
 558 -193 558 -193 642 -145.5 c 128,-1,121
 726 -98 726 -98 755 -28 c 1,122,123
 713 -35 713 -35 680 -35 c 0,124,125
 529 -35 529 -35 474 48 c 1,126,127
 306 -48 306 -48 166 -48 c 0,128,129
 90 -48 90 -48 45 -15.5 c 128,-1,130
 0 17 0 17 0 64 c 0,131,132
 0 138 0 138 106.5 196 c 128,-1,133
 213 254 213 254 415 254 c 0,134,135
 431 254 431 254 461 252 c 1,136,137
 472 284 472 284 481 305 c 1,138,139
 396 323 396 323 354.5 375 c 128,-1,140
 313 427 313 427 313 498 c 0,141,142
 313 524 313 524 317 545 c 1,143,144
 225 556 225 556 179.5 597.5 c 128,-1,145
 134 639 134 639 134 697 c 0,146,147
 134 783 134 783 218.5 866.5 c 128,-1,148
 303 950 303 950 431 975 c 1,63,-1
EndSplineSet
EndChar

StartChar: Ccedilla
Encoding: 199 199 10
Width: 1028
Flags: HMW
HStem: -186 124<549 645> -79 58<585 778> 241 72 542 201 728 115 823 20<585 711> 955 20G<431 431>
VStem: 0 30<34 100 34 107> 134 34<666.5 752> 313 20<460.5 505.5> 445 48<138 161 129.5 176> 654 48<-122 -105.5> 967 26<137.5 198> 1193 25<614 688>
LayerCount: 2
Fore
SplineSet
388 553 m 0,0,1
 491 553 491 553 585.5 589 c 128,-1,2
 680 625 680 625 732.5 673.5 c 128,-1,3
 785 722 785 722 785 763 c 0,4,5
 785 823 785 823 666.5 823 c 128,-1,6
 548 823 548 823 455 742 c 128,-1,7
 362 661 362 661 339 555 c 1,8,9
 369 553 369 553 388 553 c 0,0,1
694 -21 m 0,10,11
 811 -21 811 -21 889 44 c 128,-1,12
 967 109 967 109 967 177 c 0,13,14
 967 210 967 210 944 230 c 128,-1,15
 921 250 921 250 878.5 250 c 128,-1,16
 836 250 836 250 786.5 231 c 128,-1,17
 737 212 737 212 703.5 192.5 c 128,-1,18
 670 173 670 173 603 129 c 128,-1,19
 536 85 536 85 507 67 c 1,20,21
 548 -21 548 -21 694 -21 c 0,10,11
577 313 m 0,22,23
 687 313 687 313 803 353 c 128,-1,24
 919 393 919 393 1002.5 449.5 c 128,-1,25
 1086 506 1086 506 1139.5 567 c 128,-1,26
 1193 628 1193 628 1193 671 c 0,27,28
 1193 728 1193 728 1096 728 c 128,-1,29
 999 728 999 728 886.5 665.5 c 128,-1,30
 774 603 774 603 685.5 509.5 c 128,-1,31
 597 416 597 416 544 314 c 1,32,33
 555 313 555 313 577 313 c 0,22,23
415 254 m 1,34,-1
 407 241 l 1,35,36
 226 241 226 241 128 185 c 128,-1,37
 30 129 30 129 30 60 c 0,38,39
 30 19 30 19 67.5 -8 c 128,-1,40
 105 -35 105 -35 172 -35 c 0,41,42
 279 -35 279 -35 460 72 c 1,43,44
 445 105 445 105 445 164.5 c 128,-1,45
 445 224 445 224 481 305 c 1,46,47
 396 323 396 323 354.5 375 c 128,-1,48
 313 427 313 427 313 498 c 0,49,50
 313 524 313 524 317 545 c 1,51,52
 225 556 225 556 179.5 597.5 c 128,-1,53
 134 639 134 639 134 697 c 0,54,55
 134 783 134 783 218.5 866.5 c 128,-1,56
 303 950 303 950 431 975 c 1,57,-1
 434 960 l 1,58,59
 322 941 322 941 245 862 c 128,-1,60
 168 783 168 783 168 700 c 0,61,62
 168 647 168 647 205.5 608.5 c 128,-1,63
 243 570 243 570 320 558 c 1,64,65
 346 671 346 671 445.5 757 c 128,-1,66
 545 843 545 843 677 843 c 0,67,68
 739 843 739 843 770.5 822.5 c 128,-1,69
 802 802 802 802 802 768 c 0,70,71
 802 693 802 693 679.5 617.5 c 128,-1,72
 557 542 557 542 380 542 c 0,73,74
 350 542 350 542 336 543 c 1,75,76
 333 522 333 522 333 502 c 0,77,78
 333 436 333 436 371.5 387.5 c 128,-1,79
 410 339 410 339 489 322 c 1,80,81
 526 400 526 400 589 474 c 128,-1,82
 652 548 652 548 732 608.5 c 128,-1,83
 812 669 812 669 911.5 706 c 128,-1,84
 1011 743 1011 743 1114.5 743 c 128,-1,85
 1218 743 1218 743 1218 676 c 0,86,87
 1218 629 1218 629 1162.5 564.5 c 128,-1,88
 1107 500 1107 500 1019.5 440 c 128,-1,89
 932 380 932 380 809 338.5 c 128,-1,90
 686 297 686 297 566 297 c 0,91,92
 546 297 546 297 536 298 c 1,93,94
 493 206 493 206 493 137 c 0,95,96
 493 116 493 116 498 94 c 1,97,98
 510 101 510 101 554.5 127.5 c 128,-1,99
 599 154 599 154 615.5 163 c 2,100,-1
 670.5 193 l 2,101,102
 712.763157895 216.052631579 712.763157895 216.052631579 763.881578947 235.526315789 c 128,-1,103
 815 255 815 255 841.5 259.5 c 128,-1,104
 868 264 868 264 893 264 c 0,105,106
 942 264 942 264 967.5 241.5 c 128,-1,107
 993 219 993 219 993 183.5 c 128,-1,108
 993 148 993 148 971.5 110.5 c 128,-1,109
 950 73 950 73 911.5 40 c 128,-1,110
 873 7 873 7 812 -14 c 128,-1,111
 751 -35 751 -35 695.5 -35 c 128,-1,112
 640 -35 640 -35 605 -29 c 1,113,-1
 575 -66 l 1,114,115
 592 -62 592 -62 613 -62 c 0,116,117
 702 -62 702 -62 702 -104 c 0,118,119
 702 -133 702 -133 660 -159.5 c 128,-1,120
 618 -186 618 -186 568 -186 c 128,-1,121
 518 -186 518 -186 474 -164 c 1,122,-1
 483 -155 l 1,123,124
 524 -172 524 -172 562.5 -172 c 128,-1,125
 601 -172 601 -172 627.5 -154 c 128,-1,126
 654 -136 654 -136 654 -118 c 128,-1,127
 654 -100 654 -100 637.5 -89.5 c 128,-1,128
 621 -79 621 -79 599 -79 c 128,-1,129
 577 -79 577 -79 561 -83 c 1,130,-1
 557 -73 l 1,131,-1
 587 -25 l 1,132,133
 510 -5 510 -5 474 48 c 1,134,135
 306 -48 306 -48 166 -48 c 0,136,137
 90 -48 90 -48 45 -15.5 c 128,-1,138
 0 17 0 17 0 64 c 0,139,140
 0 138 0 138 106.5 196 c 128,-1,141
 213 254 213 254 415 254 c 1,34,-1
EndSplineSet
EndChar

StartChar: D
Encoding: 68 68 11
Width: 1160
Flags: HMW
HStem: -87 27<147 218.5> -87 151<123 149.5 62 218.5> 373 22<549.5 639> 770 119
VStem: -4 27<4 27> 1258 29<447 564 414.5 584>
LayerCount: 2
Fore
SplineSet
23 21 m 128,-1,1
 23 -7 23 -7 74.5 -33.5 c 128,-1,2
 126 -60 126 -60 206.5 -60 c 128,-1,3
 287 -60 287 -60 382 -14 c 1,4,5
 357 -8 357 -8 289 11.5 c 0,6,7
 158.230769231 49 158.230769231 49 90.6153846154 49 c 128,-1,0
 23 49 23 49 23 21 c 128,-1,1
491 453 m 0,8,9
 491 395 491 395 581 395 c 0,10,11
 627 395 627 395 685 421 c 128,-1,12
 743 447 743 447 795 489 c 128,-1,13
 847 531 847 531 882.5 594 c 128,-1,14
 918 657 918 657 918 723 c 0,15,16
 918 744 918 744 913 764 c 1,17,18
 835 752 835 752 755.5 715 c 128,-1,19
 676 678 676 678 619.5 632 c 128,-1,20
 563 586 563 586 527 537 c 128,-1,21
 491 488 491 488 491 453 c 0,8,9
458 -9 m 1,22,23
 520 -21 520 -21 564 -21 c 0,24,25
 654 -21 654 -21 744.5 6 c 128,-1,26
 835 33 835 33 910 78.5 c 128,-1,27
 985 124 985 124 1050.5 184 c 128,-1,28
 1116 244 1116 244 1161 308.5 c 0,29,30
 1258 447.533333333 1258 447.533333333 1258 564 c 0,31,32
 1258 626 1258 626 1228 673 c 1,33,34
 1116.77393246 588.405526095 1116.77393246 588.405526095 869.5 326.5 c 0,35,36
 785 237 785 237 671.5 141 c 128,-1,37
 558 45 558 45 458 -9 c 1,22,23
748 873 m 0,38,39
 645 873 645 873 515.172413793 818.172413793 c 128,-1,40
 385.344827586 763.344827586 385.344827586 763.344827586 319 697 c 1,41,-1
 306 705 l 1,42,43
 397 783 397 783 525 836 c 128,-1,44
 653 889 653 889 757 889 c 0,45,46
 899 889 899 889 929 786 c 1,47,48
 961 789 961 789 993 789 c 0,49,50
 1149 789 1149 789 1228 702 c 1,51,52
 1353 779 1353 779 1458 779 c 0,53,54
 1521 779 1521 779 1557 751 c 128,-1,55
 1593 723 1593 723 1593 681.5 c 128,-1,56
 1593 640 1593 640 1560.5 600 c 128,-1,57
 1528 560 1528 560 1465 531 c 1,58,-1
 1463 542 l 1,59,60
 1513 562 1513 562 1543.5 601 c 128,-1,61
 1574 640 1574 640 1574 678.5 c 128,-1,62
 1574 717 1574 717 1541.5 741.5 c 128,-1,63
 1509 766 1509 766 1444 766 c 0,64,65
 1354 766 1354 766 1243 684 c 1,66,67
 1287 622 1287 622 1287 542 c 128,-1,68
 1287 462 1287 462 1255.5 383 c 128,-1,69
 1224 304 1224 304 1160 229 c 128,-1,70
 1096 154 1096 154 1009 94.5 c 128,-1,71
 922 35 922 35 800.5 -1.5 c 128,-1,72
 679 -38 679 -38 544 -38 c 0,73,74
 489 -38 489 -38 427 -25 c 1,75,76
 298 -87 298 -87 175 -87 c 0,77,78
 101 -87 101 -87 48.5 -54.5 c 128,-1,79
 -4 -22 -4 -22 -4 13 c 0,80,81
 -4 36 -4 36 21.5 50 c 128,-1,82
 47 64 47 64 96 64 c 128,-1,83
 145 64 145 64 193 55 c 128,-1,84
 241 46 241 46 316.5 25.5 c 128,-1,85
 392 5 392 5 412 0 c 1,86,87
 504 50 504 50 615.5 147 c 128,-1,88
 727 244 727 244 815.5 337 c 128,-1,89
 904 430 904 430 1015 533 c 128,-1,90
 1126 636 1126 636 1212 692 c 1,91,92
 1142 770 1142 770 982 770 c 0,93,94
 957 770 957 770 933 767 c 1,95,96
 936 752 936 752 936 734 c 0,97,98
 936 661 936 661 898 592 c 128,-1,99
 860 523 860 523 804 476 c 128,-1,100
 748 429 748 429 685.5 401 c 128,-1,101
 623 373 623 373 575 373 c 128,-1,102
 527 373 527 373 503 396.5 c 128,-1,103
 479 420 479 420 479 461.5 c 128,-1,104
 479 503 479 503 507.5 553.5 c 128,-1,105
 536 604 536 604 587.5 652 c 128,-1,106
 639 700 639 700 723.5 736.5 c 128,-1,107
 808 773 808 773 908 784 c 1,108,109
 876 873 876 873 748 873 c 0,38,39
EndSplineSet
EndChar

StartChar: E
Encoding: 69 69 12
Width: 1041
Flags: HMW
HStem: -207 21G<449 449> 243 111 243 203 341 58<939 965> 387 235 430 192<635 640.5 523 733> 611 132 728 185<745 1180> 893 20<746.5 878.5> 1024 20G<572 572>
VStem: 0 26<44 110 44 110> 275 34<734 821> 451 43 775 28 954 39<145.5 195> 1245 26<648.5 696>
LayerCount: 2
Fore
SplineSet
950 354 m 0,0,1
 973 354 973 354 987.5 360 c 128,-1,2
 1002 366 1002 366 1002 373 c 0,3,4
 1002 387 1002 387 948 387 c 128,-1,5
 894 387 894 387 840 378 c 1,6,7
 878 354 878 354 950 354 c 0,0,1
501 96 m 2,8,-1
 501 86 l 1,9,10
 513 93 513 93 575 130 c 128,-1,11
 637 167 637 167 669 185 c 1,12,13
 621 211 621 211 553 226 c 1,14,15
 501 162 501 162 501 96 c 2,8,-1
654 -27 m 0,16,17
 703 -27 703 -27 752 -14 c 1,18,19
 767 16 767 16 767 48 c 0,20,21
 767 119 767 119 691 171 c 1,22,23
 676 162 676 162 638 137.5 c 0,24,25
 564.176211454 89.9030837004 564.176211454 89.9030837004 506 58 c 1,26,27
 533 -27 533 -27 654 -27 c 0,16,17
954 176 m 0,28,29
 954 206 954 206 932 224 c 128,-1,30
 910 242 910 242 859 242 c 128,-1,31
 808 242 808 242 705 180 c 1,32,33
 782 125 782 125 782 49 c 0,34,35
 782 19 782 19 770 -8 c 1,36,37
 851 18 851 18 902.5 72.5 c 128,-1,38
 954 127 954 127 954 176 c 0,28,29
1245 682 m 0,39,40
 1245 728 1245 728 1145 728 c 0,41,42
 1068 728 1068 728 987 681.5 c 128,-1,43
 906 635 906 635 855 569.5 c 128,-1,44
 804 504 804 504 803 449 c 1,45,46
 914 460 914 460 1019.5 503 c 128,-1,47
 1125 546 1125 546 1185 595.5 c 128,-1,48
 1245 645 1245 645 1245 682 c 0,39,40
529 622 m 0,49,50
 609 622 609 622 688 645 c 128,-1,51
 767 668 767 668 822.5 701 c 128,-1,52
 878 734 878 734 913 771.5 c 128,-1,53
 948 809 948 809 948 839 c 0,54,55
 948 893 948 893 841 893 c 0,56,57
 706 893 706 893 605.5 807.5 c 128,-1,58
 505 722 505 722 495 623 c 1,59,60
 506 622 506 622 529 622 c 0,49,50
378 243 m 0,61,62
 209 243 209 243 117.5 190 c 128,-1,63
 26 137 26 137 26 71 c 0,64,65
 26 29 26 29 66 0 c 128,-1,66
 106 -29 106 -29 175 -29 c 0,67,68
 293 -29 293 -29 455 60 c 1,69,70
 451 73 451 73 451 91 c 0,71,72
 451 161 451 161 515 233 c 1,73,74
 447 243 447 243 378 243 c 0,61,62
563 238 m 1,75,76
 632 224 632 224 684 193 c 1,77,78
 798 254 798 254 864.5 254 c 128,-1,79
 931 254 931 254 962 232 c 128,-1,80
 993 210 993 210 993 174 c 0,81,82
 993 118 993 118 928 58.5 c 128,-1,83
 863 -1 863 -1 761 -26 c 1,84,85
 729 -86 729 -86 649 -134 c 128,-1,86
 569 -182 569 -182 449 -207 c 1,87,-1
 448 -194 l 1,88,89
 559 -169 559 -169 633.5 -126.5 c 128,-1,90
 708 -84 708 -84 742 -31 c 1,91,92
 690 -41 690 -41 643 -41 c 0,93,94
 505 -41 505 -41 464 36 c 1,95,96
 307 -40 307 -40 160 -40 c 0,97,98
 86 -40 86 -40 43 -9 c 128,-1,99
 0 22 0 22 0 68 c 0,100,101
 0 140 0 140 102 197.5 c 128,-1,102
 204 255 204 255 396 255 c 0,103,104
 471 255 471 255 527 245 c 1,105,106
 629 349 629 349 812 385 c 1,107,108
 792 404 792 404 782 432 c 1,109,110
 762 430 762 430 723 430 c 0,111,112
 598 430 598 430 536.5 478.5 c 128,-1,113
 475 527 475 527 475 603 c 2,114,-1
 475 612 l 1,115,116
 374 621 374 621 324.5 663 c 128,-1,117
 275 705 275 705 275 766 c 0,118,119
 275 852 275 852 359.5 935.5 c 128,-1,120
 444 1019 444 1019 572 1044 c 1,121,-1
 575 1029 l 1,122,123
 463 1010 463 1010 386 931 c 128,-1,124
 309 852 309 852 309 769 c 0,125,126
 309 713 309 713 350.5 673.5 c 128,-1,127
 392 634 392 634 476 625 c 1,128,129
 488 733 488 733 595 823 c 128,-1,130
 702 913 702 913 847 913 c 0,131,132
 965 913 965 913 965 845 c 0,133,134
 965 811 965 811 931.5 771 c 128,-1,135
 898 731 898 731 841.5 695 c 128,-1,136
 785 659 785 659 699.5 635 c 128,-1,137
 614 611 614 611 521 611 c 2,138,-1
 494 611 l 1,139,-1
 494 606 l 2,140,141
 494 536 494 536 553.5 491 c 128,-1,142
 613 446 613 446 734 446 c 0,143,144
 763 446 763 446 778 447 c 1,145,146
 775 462 775 462 775 478 c 0,147,148
 775 523 775 523 800 569 c 128,-1,149
 825 615 825 615 871 654 c 128,-1,150
 917 693 917 693 991 718 c 128,-1,151
 1065 743 1065 743 1154 743 c 0,152,153
 1271 743 1271 743 1271 689 c 0,154,155
 1271 648 1271 648 1207 594 c 128,-1,156
 1143 540 1143 540 1031.5 494 c 128,-1,157
 920 448 920 448 803 435 c 1,158,159
 808 407 808 407 828 388 c 1,160,161
 894 399 894 399 960.5 399 c 128,-1,162
 1027 399 1027 399 1027 378 c 0,163,164
 1027 365 1027 365 1001 353 c 128,-1,165
 975 341 975 341 942 341 c 0,166,167
 866 341 866 341 823 375 c 1,168,169
 656 343 656 343 563 238 c 1,75,76
EndSplineSet
EndChar

StartChar: Eacute
Encoding: 201 201 13
Width: 1052
Flags: HMW
HStem: -207 21G<449 449> 243 111 243 203 341 58<939 965> 387 235 430 192<635 640.5 523 733> 611 132 728 185<745 1180> 893 20<746.5 878.5> 1024 20G<572 572>
VStem: 0 26<44 110 44 110> 275 34<734 821> 451 43 775 28 954 39<145.5 195> 1245 26<648.5 696>
LayerCount: 2
Fore
SplineSet
1175 776 m 1,0,-1
 1313 833 l 1,1,2
 1329 838 1329 838 1329 849.5 c 128,-1,3
 1329 861 1329 861 1322 861 c 128,-1,4
 1315 861 1315 861 1255.5 831 c 128,-1,5
 1196 801 1196 801 1171 786 c 1,6,-1
 1175 776 l 1,0,-1
950 354 m 0,7,8
 973 354 973 354 987.5 360 c 128,-1,9
 1002 366 1002 366 1002 373 c 0,10,11
 1002 387 1002 387 948 387 c 128,-1,12
 894 387 894 387 840 378 c 1,13,14
 878 354 878 354 950 354 c 0,7,8
501 96 m 2,15,-1
 501 86 l 1,16,17
 513 93 513 93 575 130 c 128,-1,18
 637 167 637 167 669 185 c 1,19,20
 621 211 621 211 553 226 c 1,21,22
 501 162 501 162 501 96 c 2,15,-1
654 -27 m 0,23,24
 703 -27 703 -27 752 -14 c 1,25,26
 767 16 767 16 767 48 c 0,27,28
 767 119 767 119 691 171 c 1,29,30
 676 162 676 162 638 137.5 c 0,31,32
 564.176211454 89.9030837004 564.176211454 89.9030837004 506 58 c 1,33,34
 533 -27 533 -27 654 -27 c 0,23,24
954 176 m 0,35,36
 954 206 954 206 932 224 c 128,-1,37
 910 242 910 242 859 242 c 128,-1,38
 808 242 808 242 705 180 c 1,39,40
 782 125 782 125 782 49 c 0,41,42
 782 19 782 19 770 -8 c 1,43,44
 851 18 851 18 902.5 72.5 c 128,-1,45
 954 127 954 127 954 176 c 0,35,36
1245 682 m 0,46,47
 1245 728 1245 728 1145 728 c 0,48,49
 1068 728 1068 728 987 681.5 c 128,-1,50
 906 635 906 635 855 569.5 c 128,-1,51
 804 504 804 504 803 449 c 1,52,53
 914 460 914 460 1019.5 503 c 128,-1,54
 1125 546 1125 546 1185 595.5 c 128,-1,55
 1245 645 1245 645 1245 682 c 0,46,47
529 622 m 0,56,57
 609 622 609 622 688 645 c 128,-1,58
 767 668 767 668 822.5 701 c 128,-1,59
 878 734 878 734 913 771.5 c 128,-1,60
 948 809 948 809 948 839 c 0,61,62
 948 893 948 893 841 893 c 0,63,64
 706 893 706 893 605.5 807.5 c 128,-1,65
 505 722 505 722 495 623 c 1,66,67
 506 622 506 622 529 622 c 0,56,57
378 243 m 0,68,69
 209 243 209 243 117.5 190 c 128,-1,70
 26 137 26 137 26 71 c 0,71,72
 26 29 26 29 66 0 c 128,-1,73
 106 -29 106 -29 175 -29 c 0,74,75
 293 -29 293 -29 455 60 c 1,76,77
 451 73 451 73 451 91 c 0,78,79
 451 161 451 161 515 233 c 1,80,81
 447 243 447 243 378 243 c 0,68,69
563 238 m 1,82,83
 632 224 632 224 684 193 c 1,84,85
 798 254 798 254 864.5 254 c 128,-1,86
 931 254 931 254 962 232 c 128,-1,87
 993 210 993 210 993 174 c 0,88,89
 993 118 993 118 928 58.5 c 128,-1,90
 863 -1 863 -1 761 -26 c 1,91,92
 729 -86 729 -86 649 -134 c 128,-1,93
 569 -182 569 -182 449 -207 c 1,94,-1
 448 -194 l 1,95,96
 559 -169 559 -169 633.5 -126.5 c 128,-1,97
 708 -84 708 -84 742 -31 c 1,98,99
 690 -41 690 -41 643 -41 c 0,100,101
 505 -41 505 -41 464 36 c 1,102,103
 307 -40 307 -40 160 -40 c 0,104,105
 86 -40 86 -40 43 -9 c 128,-1,106
 0 22 0 22 0 68 c 0,107,108
 0 140 0 140 102 197.5 c 128,-1,109
 204 255 204 255 396 255 c 0,110,111
 471 255 471 255 527 245 c 1,112,113
 629 349 629 349 812 385 c 1,114,115
 792 404 792 404 782 432 c 1,116,117
 762 430 762 430 723 430 c 0,118,119
 598 430 598 430 536.5 478.5 c 128,-1,120
 475 527 475 527 475 603 c 2,121,-1
 475 612 l 1,122,123
 374 621 374 621 324.5 663 c 128,-1,124
 275 705 275 705 275 766 c 0,125,126
 275 852 275 852 359.5 935.5 c 128,-1,127
 444 1019 444 1019 572 1044 c 1,128,-1
 575 1029 l 1,129,130
 463 1010 463 1010 386 931 c 128,-1,131
 309 852 309 852 309 769 c 0,132,133
 309 713 309 713 350.5 673.5 c 128,-1,134
 392 634 392 634 476 625 c 1,135,136
 488 733 488 733 595 823 c 128,-1,137
 702 913 702 913 847 913 c 0,138,139
 965 913 965 913 965 845 c 0,140,141
 965 811 965 811 931.5 771 c 128,-1,142
 898 731 898 731 841.5 695 c 128,-1,143
 785 659 785 659 699.5 635 c 128,-1,144
 614 611 614 611 521 611 c 2,145,-1
 494 611 l 1,146,-1
 494 606 l 2,147,148
 494 536 494 536 553.5 491 c 128,-1,149
 613 446 613 446 734 446 c 0,150,151
 763 446 763 446 778 447 c 1,152,153
 775 462 775 462 775 478 c 0,154,155
 775 523 775 523 800 569 c 128,-1,156
 825 615 825 615 871 654 c 128,-1,157
 917 693 917 693 991 718 c 128,-1,158
 1065 743 1065 743 1154 743 c 0,159,160
 1271 743 1271 743 1271 689 c 0,161,162
 1271 648 1271 648 1207 594 c 128,-1,163
 1143 540 1143 540 1031.5 494 c 128,-1,164
 920 448 920 448 803 435 c 1,165,166
 808 407 808 407 828 388 c 1,167,168
 894 399 894 399 960.5 399 c 128,-1,169
 1027 399 1027 399 1027 378 c 0,170,171
 1027 365 1027 365 1001 353 c 128,-1,172
 975 341 975 341 942 341 c 0,173,174
 866 341 866 341 823 375 c 1,175,176
 656 343 656 343 563 238 c 1,82,83
EndSplineSet
EndChar

StartChar: Ecircumflex
Encoding: 202 202 14
Width: 1052
Flags: HMW
HStem: -207 21G<449 449> 243 111 243 203 341 58<939 965> 387 235 430 192<635 640.5 523 733> 611 132 728 185<745 1180> 893 20<746.5 878.5> 1024 20G<572 572>
VStem: 0 26<44 110 44 110> 275 34<734 821> 451 43 775 28 954 39<145.5 195> 1245 26<648.5 696>
LayerCount: 2
Fore
SplineSet
1289 769 m 1,0,-1
 1300 775 l 1,1,-1
 1259 859 l 2,2,3
 1256.5 864 1256.5 864 1246.5 864 c 2,4,-1
 1243 864 l 1,5,-1
 1094 793 l 1,6,-1
 1106 784 l 1,7,-1
 1240 838 l 1,8,-1
 1289 769 l 1,0,-1
950 354 m 0,9,10
 973 354 973 354 987.5 360 c 128,-1,11
 1002 366 1002 366 1002 373 c 0,12,13
 1002 387 1002 387 948 387 c 128,-1,14
 894 387 894 387 840 378 c 1,15,16
 878 354 878 354 950 354 c 0,9,10
501 96 m 2,17,-1
 501 86 l 1,18,19
 513 93 513 93 575 130 c 128,-1,20
 637 167 637 167 669 185 c 1,21,22
 621 211 621 211 553 226 c 1,23,24
 501 162 501 162 501 96 c 2,17,-1
654 -27 m 0,25,26
 703 -27 703 -27 752 -14 c 1,27,28
 767 16 767 16 767 48 c 0,29,30
 767 119 767 119 691 171 c 1,31,32
 676 162 676 162 638 137.5 c 0,33,34
 564.176211454 89.9030837004 564.176211454 89.9030837004 506 58 c 1,35,36
 533 -27 533 -27 654 -27 c 0,25,26
954 176 m 0,37,38
 954 206 954 206 932 224 c 128,-1,39
 910 242 910 242 859 242 c 128,-1,40
 808 242 808 242 705 180 c 1,41,42
 782 125 782 125 782 49 c 0,43,44
 782 19 782 19 770 -8 c 1,45,46
 851 18 851 18 902.5 72.5 c 128,-1,47
 954 127 954 127 954 176 c 0,37,38
1245 682 m 0,48,49
 1245 728 1245 728 1145 728 c 0,50,51
 1068 728 1068 728 987 681.5 c 128,-1,52
 906 635 906 635 855 569.5 c 128,-1,53
 804 504 804 504 803 449 c 1,54,55
 914 460 914 460 1019.5 503 c 128,-1,56
 1125 546 1125 546 1185 595.5 c 128,-1,57
 1245 645 1245 645 1245 682 c 0,48,49
529 622 m 0,58,59
 609 622 609 622 688 645 c 128,-1,60
 767 668 767 668 822.5 701 c 128,-1,61
 878 734 878 734 913 771.5 c 128,-1,62
 948 809 948 809 948 839 c 0,63,64
 948 893 948 893 841 893 c 0,65,66
 706 893 706 893 605.5 807.5 c 128,-1,67
 505 722 505 722 495 623 c 1,68,69
 506 622 506 622 529 622 c 0,58,59
378 243 m 0,70,71
 209 243 209 243 117.5 190 c 128,-1,72
 26 137 26 137 26 71 c 0,73,74
 26 29 26 29 66 0 c 128,-1,75
 106 -29 106 -29 175 -29 c 0,76,77
 293 -29 293 -29 455 60 c 1,78,79
 451 73 451 73 451 91 c 0,80,81
 451 161 451 161 515 233 c 1,82,83
 447 243 447 243 378 243 c 0,70,71
563 238 m 1,84,85
 632 224 632 224 684 193 c 1,86,87
 798 254 798 254 864.5 254 c 128,-1,88
 931 254 931 254 962 232 c 128,-1,89
 993 210 993 210 993 174 c 0,90,91
 993 118 993 118 928 58.5 c 128,-1,92
 863 -1 863 -1 761 -26 c 1,93,94
 729 -86 729 -86 649 -134 c 128,-1,95
 569 -182 569 -182 449 -207 c 1,96,-1
 448 -194 l 1,97,98
 559 -169 559 -169 633.5 -126.5 c 128,-1,99
 708 -84 708 -84 742 -31 c 1,100,101
 690 -41 690 -41 643 -41 c 0,102,103
 505 -41 505 -41 464 36 c 1,104,105
 307 -40 307 -40 160 -40 c 0,106,107
 86 -40 86 -40 43 -9 c 128,-1,108
 0 22 0 22 0 68 c 0,109,110
 0 140 0 140 102 197.5 c 128,-1,111
 204 255 204 255 396 255 c 0,112,113
 471 255 471 255 527 245 c 1,114,115
 629 349 629 349 812 385 c 1,116,117
 792 404 792 404 782 432 c 1,118,119
 762 430 762 430 723 430 c 0,120,121
 598 430 598 430 536.5 478.5 c 128,-1,122
 475 527 475 527 475 603 c 2,123,-1
 475 612 l 1,124,125
 374 621 374 621 324.5 663 c 128,-1,126
 275 705 275 705 275 766 c 0,127,128
 275 852 275 852 359.5 935.5 c 128,-1,129
 444 1019 444 1019 572 1044 c 1,130,-1
 575 1029 l 1,131,132
 463 1010 463 1010 386 931 c 128,-1,133
 309 852 309 852 309 769 c 0,134,135
 309 713 309 713 350.5 673.5 c 128,-1,136
 392 634 392 634 476 625 c 1,137,138
 488 733 488 733 595 823 c 128,-1,139
 702 913 702 913 847 913 c 0,140,141
 965 913 965 913 965 845 c 0,142,143
 965 811 965 811 931.5 771 c 128,-1,144
 898 731 898 731 841.5 695 c 128,-1,145
 785 659 785 659 699.5 635 c 128,-1,146
 614 611 614 611 521 611 c 2,147,-1
 494 611 l 1,148,-1
 494 606 l 2,149,150
 494 536 494 536 553.5 491 c 128,-1,151
 613 446 613 446 734 446 c 0,152,153
 763 446 763 446 778 447 c 1,154,155
 775 462 775 462 775 478 c 0,156,157
 775 523 775 523 800 569 c 128,-1,158
 825 615 825 615 871 654 c 128,-1,159
 917 693 917 693 991 718 c 128,-1,160
 1065 743 1065 743 1154 743 c 0,161,162
 1271 743 1271 743 1271 689 c 0,163,164
 1271 648 1271 648 1207 594 c 128,-1,165
 1143 540 1143 540 1031.5 494 c 128,-1,166
 920 448 920 448 803 435 c 1,167,168
 808 407 808 407 828 388 c 1,169,170
 894 399 894 399 960.5 399 c 128,-1,171
 1027 399 1027 399 1027 378 c 0,172,173
 1027 365 1027 365 1001 353 c 128,-1,174
 975 341 975 341 942 341 c 0,175,176
 866 341 866 341 823 375 c 1,177,178
 656 343 656 343 563 238 c 1,84,85
EndSplineSet
EndChar

StartChar: Edieresis
Encoding: 203 203 15
Width: 1052
Flags: HMW
HStem: -207 21G<449 449> 243 111 243 203 341 58<939 965> 387 235 430 192<635 640.5 523 733> 611 132 728 77<1155.5 1167 1155.5 1180> 893 20G<746.5 878.5> 1024 20G<572 572>
VStem: 0 26<44 110 44 110> 275 34<734 821> 451 43 775 28 782 172<39.5 195> 954 39<145.5 195> 965 239<835 848.5 835 865>
LayerCount: 2
Fore
SplineSet
1249 841.5 m 128,-1,1
 1233 827 1233 827 1233 816 c 128,-1,2
 1233 805 1233 805 1246.5 805 c 128,-1,3
 1260 805 1260 805 1276 818 c 128,-1,4
 1292 831 1292 831 1292 845 c 0,5,6
 1292 856 1292 856 1278.5 856 c 128,-1,0
 1265 856 1265 856 1249 841.5 c 128,-1,1
1161 841.5 m 128,-1,8
 1145 827 1145 827 1145 816 c 128,-1,9
 1145 805 1145 805 1158.5 805 c 128,-1,10
 1172 805 1172 805 1188 818 c 128,-1,11
 1204 831 1204 831 1204 845 c 0,12,13
 1204 856 1204 856 1190.5 856 c 128,-1,7
 1177 856 1177 856 1161 841.5 c 128,-1,8
950 354 m 0,14,15
 973 354 973 354 987.5 360 c 128,-1,16
 1002 366 1002 366 1002 373 c 0,17,18
 1002 387 1002 387 948 387 c 128,-1,19
 894 387 894 387 840 378 c 1,20,21
 878 354 878 354 950 354 c 0,14,15
501 96 m 2,22,-1
 501 86 l 1,23,24
 513 93 513 93 575 130 c 128,-1,25
 637 167 637 167 669 185 c 1,26,27
 621 211 621 211 553 226 c 1,28,29
 501 162 501 162 501 96 c 2,22,-1
654 -27 m 0,30,31
 703 -27 703 -27 752 -14 c 1,32,33
 767 16 767 16 767 48 c 0,34,35
 767 119 767 119 691 171 c 1,36,37
 676 162 676 162 638 137.5 c 0,38,39
 564.176211454 89.9030837004 564.176211454 89.9030837004 506 58 c 1,40,41
 533 -27 533 -27 654 -27 c 0,30,31
954 176 m 0,42,43
 954 206 954 206 932 224 c 128,-1,44
 910 242 910 242 859 242 c 128,-1,45
 808 242 808 242 705 180 c 1,46,47
 782 125 782 125 782 49 c 0,48,49
 782 19 782 19 770 -8 c 1,50,51
 851 18 851 18 902.5 72.5 c 128,-1,52
 954 127 954 127 954 176 c 0,42,43
1245 682 m 0,53,54
 1245 728 1245 728 1145 728 c 0,55,56
 1068 728 1068 728 987 681.5 c 128,-1,57
 906 635 906 635 855 569.5 c 128,-1,58
 804 504 804 504 803 449 c 1,59,60
 914 460 914 460 1019.5 503 c 128,-1,61
 1125 546 1125 546 1185 595.5 c 128,-1,62
 1245 645 1245 645 1245 682 c 0,53,54
529 622 m 0,63,64
 609 622 609 622 688 645 c 128,-1,65
 767 668 767 668 822.5 701 c 128,-1,66
 878 734 878 734 913 771.5 c 128,-1,67
 948 809 948 809 948 839 c 0,68,69
 948 893 948 893 841 893 c 0,70,71
 706 893 706 893 605.5 807.5 c 128,-1,72
 505 722 505 722 495 623 c 1,73,74
 506 622 506 622 529 622 c 0,63,64
378 243 m 0,75,76
 209 243 209 243 117.5 190 c 128,-1,77
 26 137 26 137 26 71 c 0,78,79
 26 29 26 29 66 0 c 128,-1,80
 106 -29 106 -29 175 -29 c 0,81,82
 293 -29 293 -29 455 60 c 1,83,84
 451 73 451 73 451 91 c 0,85,86
 451 161 451 161 515 233 c 1,87,88
 447 243 447 243 378 243 c 0,75,76
563 238 m 1,89,90
 632 224 632 224 684 193 c 1,91,92
 798 254 798 254 864.5 254 c 128,-1,93
 931 254 931 254 962 232 c 128,-1,94
 993 210 993 210 993 174 c 0,95,96
 993 118 993 118 928 58.5 c 128,-1,97
 863 -1 863 -1 761 -26 c 1,98,99
 729 -86 729 -86 649 -134 c 128,-1,100
 569 -182 569 -182 449 -207 c 1,101,-1
 448 -194 l 1,102,103
 559 -169 559 -169 633.5 -126.5 c 128,-1,104
 708 -84 708 -84 742 -31 c 1,105,106
 690 -41 690 -41 643 -41 c 0,107,108
 505 -41 505 -41 464 36 c 1,109,110
 307 -40 307 -40 160 -40 c 0,111,112
 86 -40 86 -40 43 -9 c 128,-1,113
 0 22 0 22 0 68 c 0,114,115
 0 140 0 140 102 197.5 c 128,-1,116
 204 255 204 255 396 255 c 0,117,118
 471 255 471 255 527 245 c 1,119,120
 629 349 629 349 812 385 c 1,121,122
 792 404 792 404 782 432 c 1,123,124
 762 430 762 430 723 430 c 0,125,126
 598 430 598 430 536.5 478.5 c 128,-1,127
 475 527 475 527 475 603 c 2,128,-1
 475 612 l 1,129,130
 374 621 374 621 324.5 663 c 128,-1,131
 275 705 275 705 275 766 c 0,132,133
 275 852 275 852 359.5 935.5 c 128,-1,134
 444 1019 444 1019 572 1044 c 1,135,-1
 575 1029 l 1,136,137
 463 1010 463 1010 386 931 c 128,-1,138
 309 852 309 852 309 769 c 0,139,140
 309 713 309 713 350.5 673.5 c 128,-1,141
 392 634 392 634 476 625 c 1,142,143
 488 733 488 733 595 823 c 128,-1,144
 702 913 702 913 847 913 c 0,145,146
 965 913 965 913 965 845 c 0,147,148
 965 811 965 811 931.5 771 c 128,-1,149
 898 731 898 731 841.5 695 c 128,-1,150
 785 659 785 659 699.5 635 c 128,-1,151
 614 611 614 611 521 611 c 2,152,-1
 494 611 l 1,153,-1
 494 606 l 2,154,155
 494 536 494 536 553.5 491 c 128,-1,156
 613 446 613 446 734 446 c 0,157,158
 763 446 763 446 778 447 c 1,159,160
 775 462 775 462 775 478 c 0,161,162
 775 523 775 523 800 569 c 128,-1,163
 825 615 825 615 871 654 c 128,-1,164
 917 693 917 693 991 718 c 128,-1,165
 1065 743 1065 743 1154 743 c 0,166,167
 1271 743 1271 743 1271 689 c 0,168,169
 1271 648 1271 648 1207 594 c 128,-1,170
 1143 540 1143 540 1031.5 494 c 128,-1,171
 920 448 920 448 803 435 c 1,172,173
 808 407 808 407 828 388 c 1,174,175
 894 399 894 399 960.5 399 c 128,-1,176
 1027 399 1027 399 1027 378 c 0,177,178
 1027 365 1027 365 1001 353 c 128,-1,179
 975 341 975 341 942 341 c 0,180,181
 866 341 866 341 823 375 c 1,182,183
 656 343 656 343 563 238 c 1,89,90
EndSplineSet
EndChar

StartChar: Egrave
Encoding: 200 200 16
Width: 1052
Flags: HMW
HStem: -207 21G<449 449> 243 111 243 203 341 58<939 965> 387 235 430 192<635 640.5 523 733> 611 132 728 185<745 1180> 893 20<746.5 878.5> 1024 20G<572 572>
VStem: 0 26<44 110 44 110> 275 34<734 821> 451 43 775 28 954 39<145.5 195> 1245 26<648.5 696>
LayerCount: 2
Fore
SplineSet
1309 778 m 1,0,-1
 1171 835 l 1,1,2
 1155 840 1155 840 1155 851.5 c 128,-1,3
 1155 863 1155 863 1162 863 c 128,-1,4
 1169 863 1169 863 1228.5 833 c 128,-1,5
 1288 803 1288 803 1313 788 c 1,6,-1
 1309 778 l 1,0,-1
950 354 m 0,7,8
 973 354 973 354 987.5 360 c 128,-1,9
 1002 366 1002 366 1002 373 c 0,10,11
 1002 387 1002 387 948 387 c 128,-1,12
 894 387 894 387 840 378 c 1,13,14
 878 354 878 354 950 354 c 0,7,8
501 96 m 2,15,-1
 501 86 l 1,16,17
 513 93 513 93 575 130 c 128,-1,18
 637 167 637 167 669 185 c 1,19,20
 621 211 621 211 553 226 c 1,21,22
 501 162 501 162 501 96 c 2,15,-1
654 -27 m 0,23,24
 703 -27 703 -27 752 -14 c 1,25,26
 767 16 767 16 767 48 c 0,27,28
 767 119 767 119 691 171 c 1,29,30
 676 162 676 162 638 137.5 c 0,31,32
 564.176211454 89.9030837004 564.176211454 89.9030837004 506 58 c 1,33,34
 533 -27 533 -27 654 -27 c 0,23,24
954 176 m 0,35,36
 954 206 954 206 932 224 c 128,-1,37
 910 242 910 242 859 242 c 128,-1,38
 808 242 808 242 705 180 c 1,39,40
 782 125 782 125 782 49 c 0,41,42
 782 19 782 19 770 -8 c 1,43,44
 851 18 851 18 902.5 72.5 c 128,-1,45
 954 127 954 127 954 176 c 0,35,36
1245 682 m 0,46,47
 1245 728 1245 728 1145 728 c 0,48,49
 1068 728 1068 728 987 681.5 c 128,-1,50
 906 635 906 635 855 569.5 c 128,-1,51
 804 504 804 504 803 449 c 1,52,53
 914 460 914 460 1019.5 503 c 128,-1,54
 1125 546 1125 546 1185 595.5 c 128,-1,55
 1245 645 1245 645 1245 682 c 0,46,47
529 622 m 0,56,57
 609 622 609 622 688 645 c 128,-1,58
 767 668 767 668 822.5 701 c 128,-1,59
 878 734 878 734 913 771.5 c 128,-1,60
 948 809 948 809 948 839 c 0,61,62
 948 893 948 893 841 893 c 0,63,64
 706 893 706 893 605.5 807.5 c 128,-1,65
 505 722 505 722 495 623 c 1,66,67
 506 622 506 622 529 622 c 0,56,57
378 243 m 0,68,69
 209 243 209 243 117.5 190 c 128,-1,70
 26 137 26 137 26 71 c 0,71,72
 26 29 26 29 66 0 c 128,-1,73
 106 -29 106 -29 175 -29 c 0,74,75
 293 -29 293 -29 455 60 c 1,76,77
 451 73 451 73 451 91 c 0,78,79
 451 161 451 161 515 233 c 1,80,81
 447 243 447 243 378 243 c 0,68,69
563 238 m 1,82,83
 632 224 632 224 684 193 c 1,84,85
 798 254 798 254 864.5 254 c 128,-1,86
 931 254 931 254 962 232 c 128,-1,87
 993 210 993 210 993 174 c 0,88,89
 993 118 993 118 928 58.5 c 128,-1,90
 863 -1 863 -1 761 -26 c 1,91,92
 729 -86 729 -86 649 -134 c 128,-1,93
 569 -182 569 -182 449 -207 c 1,94,-1
 448 -194 l 1,95,96
 559 -169 559 -169 633.5 -126.5 c 128,-1,97
 708 -84 708 -84 742 -31 c 1,98,99
 690 -41 690 -41 643 -41 c 0,100,101
 505 -41 505 -41 464 36 c 1,102,103
 307 -40 307 -40 160 -40 c 0,104,105
 86 -40 86 -40 43 -9 c 128,-1,106
 0 22 0 22 0 68 c 0,107,108
 0 140 0 140 102 197.5 c 128,-1,109
 204 255 204 255 396 255 c 0,110,111
 471 255 471 255 527 245 c 1,112,113
 629 349 629 349 812 385 c 1,114,115
 792 404 792 404 782 432 c 1,116,117
 762 430 762 430 723 430 c 0,118,119
 598 430 598 430 536.5 478.5 c 128,-1,120
 475 527 475 527 475 603 c 2,121,-1
 475 612 l 1,122,123
 374 621 374 621 324.5 663 c 128,-1,124
 275 705 275 705 275 766 c 0,125,126
 275 852 275 852 359.5 935.5 c 128,-1,127
 444 1019 444 1019 572 1044 c 1,128,-1
 575 1029 l 1,129,130
 463 1010 463 1010 386 931 c 128,-1,131
 309 852 309 852 309 769 c 0,132,133
 309 713 309 713 350.5 673.5 c 128,-1,134
 392 634 392 634 476 625 c 1,135,136
 488 733 488 733 595 823 c 128,-1,137
 702 913 702 913 847 913 c 0,138,139
 965 913 965 913 965 845 c 0,140,141
 965 811 965 811 931.5 771 c 128,-1,142
 898 731 898 731 841.5 695 c 128,-1,143
 785 659 785 659 699.5 635 c 128,-1,144
 614 611 614 611 521 611 c 2,145,-1
 494 611 l 1,146,-1
 494 606 l 2,147,148
 494 536 494 536 553.5 491 c 128,-1,149
 613 446 613 446 734 446 c 0,150,151
 763 446 763 446 778 447 c 1,152,153
 775 462 775 462 775 478 c 0,154,155
 775 523 775 523 800 569 c 128,-1,156
 825 615 825 615 871 654 c 128,-1,157
 917 693 917 693 991 718 c 128,-1,158
 1065 743 1065 743 1154 743 c 0,159,160
 1271 743 1271 743 1271 689 c 0,161,162
 1271 648 1271 648 1207 594 c 128,-1,163
 1143 540 1143 540 1031.5 494 c 128,-1,164
 920 448 920 448 803 435 c 1,165,166
 808 407 808 407 828 388 c 1,167,168
 894 399 894 399 960.5 399 c 128,-1,169
 1027 399 1027 399 1027 378 c 0,170,171
 1027 365 1027 365 1001 353 c 128,-1,172
 975 341 975 341 942 341 c 0,173,174
 866 341 866 341 823 375 c 1,175,176
 656 343 656 343 563 238 c 1,82,83
EndSplineSet
EndChar

StartChar: Eth
Encoding: 208 208 17
Width: 1160
Flags: HMW
HStem: -87 27<147 218.5> -87 151<123 149.5 62 218.5> 373 22<549.5 639> 770 119
VStem: -4 27<4 27> 1258 29<447 564 414.5 584>
LayerCount: 2
Fore
SplineSet
23 21 m 128,-1,1
 23 -7 23 -7 74.5 -33.5 c 128,-1,2
 126 -60 126 -60 206.5 -60 c 128,-1,3
 287 -60 287 -60 382 -14 c 1,4,5
 357 -8 357 -8 289 11.5 c 0,6,7
 158.230769231 49 158.230769231 49 90.6153846154 49 c 128,-1,0
 23 49 23 49 23 21 c 128,-1,1
491 453 m 0,8,9
 491 395 491 395 581 395 c 0,10,11
 627 395 627 395 685 421 c 128,-1,12
 743 447 743 447 795 489 c 128,-1,13
 847 531 847 531 882.5 594 c 128,-1,14
 918 657 918 657 918 723 c 0,15,16
 918 744 918 744 913 764 c 1,17,18
 835 752 835 752 755.5 715 c 128,-1,19
 676 678 676 678 619.5 632 c 128,-1,20
 563 586 563 586 527 537 c 128,-1,21
 491 488 491 488 491 453 c 0,8,9
458 -9 m 1,22,23
 520 -21 520 -21 564 -21 c 0,24,25
 654 -21 654 -21 744.5 6 c 128,-1,26
 835 33 835 33 910 78.5 c 128,-1,27
 985 124 985 124 1050.5 184 c 128,-1,28
 1116 244 1116 244 1161 308.5 c 0,29,30
 1258 447.533333333 1258 447.533333333 1258 564 c 0,31,32
 1258 626 1258 626 1228 673 c 1,33,34
 1174 632 1174 632 1115.5 576.5 c 128,-1,35
 1057 521 1057 521 966.5 427 c 128,-1,36
 876 333 876 333 842 299 c 1,37,-1
 1010 299 l 2,38,39
 1013 299 1013 299 1013 295 c 0,40,41
 1013 283 1013 283 1004 283 c 2,42,-1
 825 283 l 1,43,44
 618 76 618 76 458 -9 c 1,22,23
748 873 m 0,45,46
 645 873 645 873 515.172413793 818.172413793 c 128,-1,47
 385.344827586 763.344827586 385.344827586 763.344827586 319 697 c 1,48,-1
 306 705 l 1,49,50
 397 783 397 783 525 836 c 128,-1,51
 653 889 653 889 757 889 c 0,52,53
 899 889 899 889 929 786 c 1,54,55
 961 789 961 789 993 789 c 0,56,57
 1149 789 1149 789 1228 702 c 1,58,59
 1353 779 1353 779 1458 779 c 0,60,61
 1521 779 1521 779 1557 751 c 128,-1,62
 1593 723 1593 723 1593 681.5 c 128,-1,63
 1593 640 1593 640 1560.5 600 c 128,-1,64
 1528 560 1528 560 1465 531 c 1,65,-1
 1463 542 l 1,66,67
 1513 562 1513 562 1543.5 601 c 128,-1,68
 1574 640 1574 640 1574 678.5 c 128,-1,69
 1574 717 1574 717 1541.5 741.5 c 128,-1,70
 1509 766 1509 766 1444 766 c 0,71,72
 1354 766 1354 766 1243 684 c 1,73,74
 1287 622 1287 622 1287 542 c 128,-1,75
 1287 462 1287 462 1255.5 383 c 128,-1,76
 1224 304 1224 304 1160 229 c 128,-1,77
 1096 154 1096 154 1009 94.5 c 128,-1,78
 922 35 922 35 800.5 -1.5 c 128,-1,79
 679 -38 679 -38 544 -38 c 0,80,81
 489 -38 489 -38 427 -25 c 1,82,83
 298 -87 298 -87 175 -87 c 0,84,85
 101 -87 101 -87 48.5 -54.5 c 128,-1,86
 -4 -22 -4 -22 -4 13 c 0,87,88
 -4 36 -4 36 21.5 50 c 128,-1,89
 47 64 47 64 96 64 c 128,-1,90
 145 64 145 64 193 55 c 128,-1,91
 241 46 241 46 316.5 25.5 c 128,-1,92
 392 5 392 5 412 0 c 1,93,94
 549 74 549 74 761 282 c 1,95,-1
 607 282 l 2,96,97
 593 282 593 282 593 290.5 c 128,-1,98
 593 299 593 299 601 299 c 2,99,-1
 777 299 l 1,100,101
 793 315 793 315 860.5 383 c 128,-1,102
 928 451 928 451 955 477 c 128,-1,103
 982 503 982 503 1035 552 c 0,104,105
 1123.11937716 633.468858131 1123.11937716 633.468858131 1212 692 c 1,106,107
 1142 770 1142 770 982 770 c 0,108,109
 957 770 957 770 933 767 c 1,110,111
 936 752 936 752 936 734 c 0,112,113
 936 661 936 661 898 592 c 128,-1,114
 860 523 860 523 804 476 c 128,-1,115
 748 429 748 429 685.5 401 c 128,-1,116
 623 373 623 373 575 373 c 128,-1,117
 527 373 527 373 503 396.5 c 128,-1,118
 479 420 479 420 479 461.5 c 128,-1,119
 479 503 479 503 507.5 553.5 c 128,-1,120
 536 604 536 604 587.5 652 c 128,-1,121
 639 700 639 700 723.5 736.5 c 128,-1,122
 808 773 808 773 908 784 c 1,123,124
 876 873 876 873 748 873 c 0,45,46
EndSplineSet
EndChar

StartChar: Euro
Encoding: 8364 8364 18
Width: 597
Flags: HMW
HStem: -75 21G<-126 -75.5> -26 177<255 427.5> 140 87<351 373> 213 64<88 135 55 175 220 363 88 179> 263 76<368.5 384> 321 196<374 599>
VStem: 104 36<87 108 82 117> 459 20<61.5 110>
LayerCount: 2
Fore
SplineSet
287 -16 m 0,0,1
 355 -16 355 -16 407 15 c 128,-1,2
 459 46 459 46 459 98 c 0,3,4
 459 140 459 140 387 140 c 0,5,6
 354.5 140 354.5 140 330.75 130.5 c 128,-1,7
 307 121 307 121 294 115 c 128,-1,8
 281 109 281 109 260 96.5 c 128,-1,9
 239 84 239 84 228.5 77.5 c 128,-1,10
 218 71 218 71 193.5 55 c 128,-1,11
 169 39 169 39 159 33 c 1,12,13
 198 -16 198 -16 287 -16 c 0,0,1
386 339 m 0,14,15
 478 339 478 339 555 376 c 128,-1,16
 632 413 632 413 632 465 c 0,17,18
 632 506 632 506 568 506 c 128,-1,19
 504 506 504 506 429.5 463.5 c 128,-1,20
 355 421 355 421 287 354 c 1,21,22
 328 339 328 339 386 339 c 0,14,15
394 277 m 1,23,-1
 384 263 l 1,24,-1
 210 263 l 1,25,26
 194 239 194 239 187 227 c 1,27,-1
 373 227 l 1,28,-1
 363 213 l 1,29,-1
 179 213 l 1,30,31
 140 144 140 144 140 90 c 0,32,33
 140 67 140 67 149 49 c 1,34,35
 203 82 203 82 236.5 100 c 128,-1,36
 270 118 270 118 316 134.5 c 128,-1,37
 362 151 362 151 399 151 c 0,38,39
 479 151 479 151 479 103 c 0,40,41
 479 43 479 43 420 8.5 c 128,-1,42
 361 -26 361 -26 275 -26 c 128,-1,43
 189 -26 189 -26 139 20 c 1,44,45
 -12 -75 -12 -75 -126 -75 c 1,46,-1
 -122 -66 l 1,47,48
 -86 -66 -86 -66 -40 -49.5 c 128,-1,49
 6 -33 6 -33 38 -15.5 c 128,-1,50
 70 2 70 2 125 35 c 1,51,52
 104 62 104 62 104 106.5 c 128,-1,53
 104 151 104 151 135 213 c 1,54,-1
 55 213 l 1,55,-1
 67 227 l 1,56,-1
 143 227 l 1,57,58
 157 251 157 251 165 263 c 1,59,-1
 76 263 l 1,60,-1
 88 277 l 1,61,-1
 175 277 l 1,62,63
 209 323 209 323 247 359 c 1,64,65
 216 378 216 378 198 405 c 1,66,-1
 211 412 l 1,67,68
 226 387 226 387 256 369 c 1,69,70
 327 436 327 436 410 476.5 c 128,-1,71
 493 517 493 517 571.5 517 c 128,-1,72
 650 517 650 517 650 468 c 0,73,74
 650 407 650 407 571.5 364 c 128,-1,75
 493 321 493 321 395 321 c 0,76,77
 330 321 330 321 277 343 c 1,78,79
 245 310 245 310 220 277 c 1,80,-1
 394 277 l 1,23,-1
EndSplineSet
EndChar

StartChar: F
Encoding: 70 70 19
Width: 1030
Flags: HMW
HStem: -45 233 -44 21G<367.5 469.5> 87 101 177 225 223 150<331 541.5> 361 41 689 24<1536.5 1681.5> 689 91 767 115 894 21G<1699.5 1769>
VStem: 1 20<21 75.5 21 81.5>
LayerCount: 2
Fore
SplineSet
1061 232.5 m 128,-1,1
 1086 252 1086 252 1086 263.5 c 128,-1,2
 1086 275 1086 275 1078 275 c 0,3,4
 1057 275 1057 275 986 200 c 1,5,0
 1036 213 1036 213 1061 232.5 c 128,-1,1
283 231 m 1,6,7
 327 235 327 235 381 234.5 c 128,-1,8
 435 234 435 234 545 218 c 1,9,10
 571 265 571 265 571 301 c 0,11,12
 571 361 571 361 497 361 c 0,13,14
 436 361 436 361 379 324.5 c 128,-1,15
 322 288 322 288 283 231 c 1,6,7
21 43 m 0,16,17
 21 8 21 8 50 -13.5 c 128,-1,18
 79 -35 79 -35 138.5 -35 c 128,-1,19
 198 -35 198 -35 268 -10 c 1,20,21
 221 26 221 26 221 89 c 128,-1,22
 221 152 221 152 259 217 c 1,23,24
 149 201 149 201 85 149 c 128,-1,25
 21 97 21 97 21 43 c 0,16,17
537 206 m 1,26,27
 414 223 414 223 366 223 c 128,-1,28
 318 223 318 223 274 219 c 1,29,30
 234 153 234 153 234 90 c 128,-1,31
 234 27 234 27 282 -5 c 1,32,33
 363 27 363 27 431 85.5 c 128,-1,34
 499 144 499 144 537 206 c 1,26,27
569 201 m 1,35,36
 528 138 528 138 454 79 c 128,-1,37
 380 20 380 20 294 -12 c 1,38,39
 335 -34 335 -34 398 -34 c 0,40,41
 491 -34 491 -34 581 21 c 128,-1,42
 671 76 671 76 771 177 c 1,43,44
 683 183 683 183 569 201 c 1,35,36
628 464 m 0,45,46
 628 402 628 402 724 402 c 0,47,48
 788 402 788 402 865.5 456 c 128,-1,49
 943 510 943 510 997 589 c 128,-1,50
 1051 668 1051 668 1051 735 c 0,51,52
 1051 747 1051 747 1047 767 c 1,53,54
 953 764 953 764 852.5 709.5 c 128,-1,55
 752 655 752 655 690 585 c 128,-1,56
 628 515 628 515 628 464 c 0,45,46
1504 855 m 1,57,58
 1624 915 1624 915 1731 915 c 0,59,60
 1802 915 1802 915 1840 891.5 c 128,-1,61
 1878 868 1878 868 1878 833 c 0,62,63
 1878 779 1878 779 1799 734 c 128,-1,64
 1720 689 1720 689 1586 689 c 0,65,66
 1510 689 1510 689 1319.5 728 c 128,-1,67
 1129 767 1129 767 1062 768 c 1,68,69
 1065 753 1065 753 1065 738 c 0,70,71
 1065 667 1065 667 1010.5 585 c 128,-1,72
 956 503 956 503 873 446.5 c 128,-1,73
 790 390 790 390 715 390 c 0,74,75
 664 390 664 390 638 412.5 c 128,-1,76
 612 435 612 435 612 475 c 128,-1,77
 612 515 612 515 642.5 564.5 c 128,-1,78
 673 614 673 614 726.5 659.5 c 128,-1,79
 780 705 780 705 864 738.5 c 128,-1,80
 948 772 948 772 1043 778 c 1,81,82
 1009 869 1009 869 831 869 c 0,83,84
 781 869 781 869 725.5 852 c 128,-1,85
 670 835 670 835 626 810.5 c 0,86,87
 536.612410987 760.727365209 536.612410987 760.727365209 487.5 720 c 2,88,-1
 467 703 l 1,89,-1
 461 715 l 1,90,91
 478.4 732.4 478.4 732.4 528.2 767.2 c 128,-1,92
 578 802 578 802 620.5 824 c 128,-1,93
 663 846 663 846 724 864 c 128,-1,94
 785 882 785 882 842 882 c 0,95,96
 1026 882 1026 882 1059 779 c 1,97,98
 1072 780 1072 780 1087 780 c 0,99,100
 1177 780 1177 780 1359 746.5 c 128,-1,101
 1541 713 1541 713 1603 713 c 0,102,103
 1720 713 1720 713 1791.5 749 c 128,-1,104
 1863 785 1863 785 1863 828 c 0,105,106
 1863 857 1863 857 1826.5 875.5 c 128,-1,107
 1790 894 1790 894 1709.5 894 c 128,-1,108
 1629 894 1629 894 1511 845 c 1,109,-1
 1504 855 l 1,57,58
782 188 m 1,110,111
 825 232 825 232 897.5 313 c 128,-1,112
 970 394 970 394 1021 447.5 c 128,-1,113
 1072 501 1072 501 1138 560.5 c 0,114,115
 1270.94005322 680.347472218 1270.94005322 680.347472218 1403 704 c 1,116,-1
 1404 698 l 1,117,118
 1345 683 1345 683 1271.5 626 c 128,-1,119
 1198 569 1198 569 1138 504.5 c 128,-1,120
 1078 440 1078 440 987.5 342.5 c 128,-1,121
 897 245 897 245 834 186 c 1,122,-1
 847 186 l 2,123,124
 900 186 900 186 941 192 c 1,125,126
 982 237 982 237 1013.5 261 c 128,-1,127
 1045 285 1045 285 1075 285 c 128,-1,128
 1105 285 1105 285 1105 270 c 0,129,130
 1105 252 1105 252 1069 226.5 c 128,-1,131
 1033 201 1033 201 974 186 c 1,132,133
 879 87 879 87 846 87 c 0,134,135
 842 87 842 87 842 89 c 0,136,137
 842 93 842 93 852 99 c 1,138,139
 879 120 879 120 929 178 c 1,140,141
 902 174 902 174 869 174 c 128,-1,142
 836 174 836 174 822 175 c 1,143,144
 587 -44 587 -44 392 -44 c 0,145,146
 322 -44 322 -44 279 -17 c 1,147,148
 198 -45 198 -45 132.5 -45 c 128,-1,149
 67 -45 67 -45 34 -19 c 128,-1,150
 1 7 1 7 1 46 c 0,151,152
 1 105 1 105 71 159.5 c 128,-1,153
 141 214 141 214 267 229 c 1,154,155
 308 292 308 292 371 332.5 c 128,-1,156
 434 373 434 373 506 373 c 0,157,158
 607 373 607 373 607 301 c 0,159,160
 607 263 607 263 577 214 c 1,161,162
 739 190 739 190 782 188 c 1,110,111
EndSplineSet
EndChar

StartChar: G
Encoding: 71 71 20
Width: 932
Flags: HMW
HStem: -237 21G<471 471> 274 85 348 65 395 227<521.5 552.5 432.5 610.5> 611 151 893 20G<664 790.5> 1024 20G<484 484>
VStem: 1 23<19 72 19 74> 187 34<735 821> 215 22<35 71> 368 20<528.5 576> 591 31<274.5 302 267 304> 591 63<274.5 376> 635 242 1164 26<656.5 713>
LayerCount: 2
Fore
SplineSet
304 219 m 1,0,1
 356 225 356 225 426.5 225 c 128,-1,2
 497 225 497 225 568 212 c 1,3,4
 591 253 591 253 591 285 c 0,5,6
 591 348 591 348 507 348 c 0,7,8
 455 348 455 348 400.5 312 c 128,-1,9
 346 276 346 276 304 219 c 1,0,1
24 42 m 0,10,11
 24 6 24 6 59.5 -17.5 c 128,-1,12
 95 -41 95 -41 146 -41 c 128,-1,13
 197 -41 197 -41 242 -31 c 1,14,15
 215 -1 215 -1 215 47 c 0,16,17
 215 121 215 121 271 203 c 1,18,19
 153 185 153 185 88.5 138 c 128,-1,20
 24 91 24 91 24 42 c 0,10,11
595 191 m 1,21,22
 555 119 555 119 470.5 55.5 c 128,-1,23
 386 -8 386 -8 279 -35 c 1,24,25
 312 -57 312 -57 379.5 -57 c 128,-1,26
 447 -57 447 -57 548.5 -9.5 c 128,-1,27
 650 38 650 38 716 98 c 1,28,-1
 740 119 l 1,29,30
 690 166 690 166 595 191 c 1,21,22
561 199 m 1,31,32
 489 213 489 213 416 213 c 128,-1,33
 343 213 343 213 295 207 c 1,34,35
 237 121 237 121 237 50 c 0,36,37
 237 3 237 3 266 -25 c 1,38,39
 358 2 358 2 438.5 66 c 128,-1,40
 519 130 519 130 561 199 c 1,31,32
441 622 m 0,41,42
 521 622 521 622 600 645 c 128,-1,43
 679 668 679 668 734.5 701 c 128,-1,44
 790 734 790 734 825 771.5 c 128,-1,45
 860 809 860 809 860 839 c 0,46,47
 860 893 860 893 753 893 c 0,48,49
 626 893 626 893 523.5 810 c 128,-1,50
 421 727 421 727 395 624 c 1,51,52
 409 622 409 622 441 622 c 0,41,42
1164 698 m 0,53,54
 1164 747 1164 747 1071 747 c 0,55,56
 996 747 996 747 905.5 692 c 128,-1,57
 815 637 815 637 747.5 559 c 128,-1,58
 680 481 680 481 660 413 c 1,59,60
 750 420 750 420 844.5 453 c 128,-1,61
 939 486 939 486 1007.5 529.5 c 128,-1,62
 1076 573 1076 573 1120 619 c 128,-1,63
 1164 665 1164 665 1164 698 c 0,53,54
1090 425 m 1,64,65
 1095 423.333333333 1095 423.333333333 1095 418 c 2,66,-1
 1095 416 l 1,67,68
 1088 410 1088 410 1079 403 c 1,69,70
 1061 385 1061 385 1032 364 c 1,71,72
 994 334 994 334 971.5 311.5 c 128,-1,73
 949 289 949 289 883.5 210.5 c 128,-1,74
 818 132 818 132 780 97 c 1,75,76
 804 59.5 804 59.5 804 19 c 0,77,78
 804 -61 804 -61 717 -133 c 128,-1,79
 630 -205 630 -205 471 -237 c 1,80,-1
 470 -224 l 1,81,82
 623 -190 623 -190 706 -123 c 128,-1,83
 789 -56 789 -56 789 18 c 0,84,85
 789 54 789 54 768 86 c 1,86,87
 688.638157895 19.8651315789 688.638157895 19.8651315789 569.319078947 -26.0674342105 c 128,-1,88
 450 -72 450 -72 370.5 -72 c 128,-1,89
 291 -72 291 -72 252 -41 c 1,90,91
 200 -52 200 -52 139.5 -52 c 128,-1,92
 79 -52 79 -52 40 -25.5 c 128,-1,93
 1 1 1 1 1 41 c 0,94,95
 1 96 1 96 73 146.5 c 128,-1,96
 145 197 145 197 280 216 c 1,97,98
 325 279 325 279 388 319 c 128,-1,99
 451 359 451 359 510.5 359 c 0,100,101
 622 359 622 359 622 278 c 0,102,103
 622 246 622 246 602 204 c 1,104,105
 699 179 699 179 751 130 c 1,106,107
 904 268 904 268 924.5 289 c 128,-1,108
 945 310 945 310 953 317 c 1,109,110
 863 274 863 274 785 274 c 128,-1,111
 707 274 707 274 672 307.5 c 128,-1,112
 637 341 637 341 635 396 c 1,113,114
 625 395 625 395 606 395 c 0,115,116
 486 395 486 395 427 443.5 c 128,-1,117
 368 492 368 492 368 569 c 0,118,119
 368 594 368 594 372 614 c 1,120,121
 279 624 279 624 233 665.5 c 128,-1,122
 187 707 187 707 187 766 c 0,123,124
 187 852 187 852 271.5 935.5 c 128,-1,125
 356 1019 356 1019 484 1044 c 1,126,-1
 487 1029 l 1,127,128
 375 1010 375 1010 298 931 c 128,-1,129
 221 852 221 852 221 769 c 0,130,131
 221 715 221 715 259.5 676.5 c 128,-1,132
 298 638 298 638 376 626 c 1,133,134
 404 737 404 737 512.5 825 c 128,-1,135
 621 913 621 913 759 913 c 0,136,137
 877 913 877 913 877 845 c 0,138,139
 877 811 877 811 843.5 771 c 128,-1,140
 810 731 810 731 753.5 695 c 128,-1,141
 697 659 697 659 611.5 635 c 128,-1,142
 526 611 526 611 433 611 c 0,143,144
 405 611 405 611 392 612 c 1,145,146
 388 595 388 595 388 573 c 0,147,148
 388 501 388 501 444.5 456 c 128,-1,149
 501 411 501 411 617 411 c 2,150,-1
 635 411 l 1,151,152
 639.260024301 504.720534629 639.260024301 504.720534629 718.5 597 c 0,153,154
 806.270786875 699.214080917 806.270786875 699.214080917 932.5 739.5 c 0,155,156
 1003 762 1003 762 1080 762 c 0,157,158
 1190 762 1190 762 1190 705 c 0,159,160
 1190 656 1190 656 1114 588.5 c 128,-1,161
 1038 521 1038 521 910.5 464.5 c 128,-1,162
 783 408 783 408 657 397 c 1,163,164
 654 383 654 383 654 372 c 0,165,166
 654 285 654 285 781 285 c 0,167,168
 829 285 829 285 884 304 c 128,-1,169
 939 323 939 323 970 342 c 2,170,-1
 1001 361 l 1,171,172
 1076 425 1076 425 1090 425 c 1,64,65
EndSplineSet
EndChar

StartChar: H
Encoding: 72 72 21
Width: 1135
Flags: HMW
HStem: -220 181<772 965.5> 426 151<358.5 428 278 468.5> 986 20G<439 439>
VStem: 69 207<519.5 765> 243 33<519.5 567 519.5 567> 627 31<33 95.5 27 106> 627 145<-50 106> 1058 37<175.5 232.5 158 235>
LayerCount: 2
Fore
SplineSet
11 29 m 0,0,1
 11 -8 11 -8 53 -8 c 128,-1,2
 95 -8 95 -8 160.5 26 c 128,-1,3
 226 60 226 60 292.5 121.5 c 128,-1,4
 359 183 359 183 423 248 c 1,5,6
 209 175 209 175 110 127.5 c 128,-1,7
 11 80 11 80 11 29 c 0,0,1
1393 789 m 0,8,9
 1307 789 1307 789 1156.5 679.5 c 128,-1,10
 1006 570 1006 570 870 419 c 1,11,12
 1091 506 1091 506 1252.50306748 610.67791411 c 128,-1,13
 1414.00613497 715.355828221 1414.00613497 715.355828221 1414.00613497 773.286574579 c 0,14,15
 1414.00613497 789 1414.00613497 789 1393 789 c 0,8,9
772 -39 m 1,16,-1
 782 -39 l 2,17,18
 841 -39 841 -39 895 -11 c 128,-1,19
 949 17 949 17 983.5 58 c 128,-1,20
 1018 99 1018 99 1038 142 c 128,-1,21
 1058 185 1058 185 1058 218 c 0,22,23
 1058 268 1058 268 1011 268 c 0,24,25
 941 268 941 268 856.5 176.5 c 128,-1,26
 772 85 772 85 772 -33 c 2,27,-1
 772 -39 l 1,16,-1
278 577 m 1,28,-1
 303 577 l 2,29,30
 392 577 392 577 473.5 598.5 c 128,-1,31
 555 620 555 620 609 652.5 c 128,-1,32
 663 685 663 685 694.5 722 c 128,-1,33
 726 759 726 759 726 789 c 128,-1,34
 726 819 726 819 697 836.5 c 128,-1,35
 668 854 668 854 610 854 c 0,36,37
 492 854 492 854 392.5 764 c 128,-1,38
 293 674 293 674 278 577 c 1,28,-1
439 1006 m 1,39,-1
 442 994 l 1,40,41
 287 973 287 973 185.5 887 c 128,-1,42
 84 801 84 801 84 713 c 0,43,44
 84 662 84 662 124 626 c 128,-1,45
 164 590 164 590 244 580 c 1,46,47
 248 629 248 629 277.5 680 c 128,-1,48
 307 731 307 731 354.5 774 c 128,-1,49
 402 817 402 817 472 844.5 c 128,-1,50
 542 872 542 872 611.5 872 c 128,-1,51
 681 872 681 872 712.5 851 c 128,-1,52
 744 830 744 830 744 795.5 c 128,-1,53
 744 761 744 761 712 721 c 128,-1,54
 680 681 680 681 624.5 646 c 128,-1,55
 569 611 569 611 482 587.5 c 128,-1,56
 395 564 395 564 297 564 c 2,57,-1
 276 564 l 1,58,-1
 276 552 l 2,59,60
 276 500 276 500 313 468.5 c 128,-1,61
 350 437 350 437 418.5 437 c 128,-1,62
 487 437 487 437 570 470.5 c 128,-1,63
 653 504 653 504 742 574 c 1,64,65
 888 710 888 710 1000 762 c 0,66,67
 1042 781 1042 781 1056 782 c 1,68,-1
 1058 775 l 1,69,70
 972 737 972 737 903 681 c 1,71,72
 834 623 834 623 726 511 c 1,73,-1
 541 309 l 1,74,-1
 525 293 l 1,75,76
 625 328 625 328 784 386 c 1,77,78
 918 554 918 554 1092.5 678 c 128,-1,79
 1267 802 1267 802 1395 802 c 0,80,81
 1429 802 1429 802 1429 778 c 0,82,83
 1429 711 1429 711 1258.5 601 c 128,-1,84
 1088 491 1088 491 854 401 c 1,85,86
 765 298 765 298 711.5 206 c 128,-1,87
 658 114 658 114 658 53 c 0,88,89
 658 -31 658 -31 761 -38 c 1,90,-1
 761 -25 l 2,91,92
 761 42 761 42 787.5 101.5 c 128,-1,93
 814 161 814 161 853.5 199.5 c 128,-1,94
 893 238 893 238 937 260.5 c 128,-1,95
 981 283 981 283 1017.5 283 c 128,-1,96
 1054 283 1054 283 1074.5 263.5 c 128,-1,97
 1095 244 1095 244 1095 207 c 128,-1,98
 1095 170 1095 170 1070.5 125.5 c 128,-1,99
 1046 81 1046 81 1005 42 c 128,-1,100
 964 3 964 3 903.5 -23.5 c 128,-1,101
 843 -50 843 -50 778 -50 c 2,102,-1
 772 -50 l 1,103,104
 777 -121 777 -121 823.5 -165.5 c 128,-1,105
 870 -210 870 -210 959 -210 c 0,106,107
 991 -210 991 -210 1027 -198 c 1,108,-1
 1035 -203 l 1,109,110
 1004 -220 1004 -220 945 -220 c 0,111,112
 860 -220 860 -220 814 -172.5 c 128,-1,113
 768 -125 768 -125 762 -49 c 1,114,115
 627 -43 627 -43 627 66 c 0,116,117
 627 183 627 183 771 370 c 1,118,119
 610 312 610 312 509 277 c 1,120,-1
 396 161 l 1,121,122
 364 120 364 120 248.5 50 c 128,-1,123
 133 -20 133 -20 50 -20 c 0,124,125
 0 -20 0 -20 0 20 c 0,126,127
 0 54 0 54 23 82 c 128,-1,128
 46 110 46 110 108 139.5 c 128,-1,129
 170 169 170 169 215 185.5 c 128,-1,130
 260 202 260 202 336.5 228 c 128,-1,131
 413 254 413 254 438 263 c 1,132,133
 505.5 330.5 505.5 330.5 615.5 448.5 c 2,134,-1
 643 478 l 2,135,136
 660 497 660 497 689 524 c 1,137,138
 538 426 538 426 421 426 c 0,139,140
 332 426 332 426 287.5 464.5 c 128,-1,141
 243 503 243 503 243 565 c 2,142,-1
 243 567 l 1,143,144
 157 576 157 576 113 614.5 c 128,-1,145
 69 653 69 653 69 708 c 0,146,147
 69 799 69 799 172.5 889 c 128,-1,148
 276 979 276 979 439 1006 c 1,39,-1
EndSplineSet
EndChar

StartChar: I
Encoding: 73 73 22
Width: 905
Flags: HMW
HStem: -36 21G<226.5 305.5 592.5 667.5> 645 108
VStem: 788 23<447.5 526 447.5 536>
LayerCount: 2
Fore
SplineSet
1019.5 386.5 m 128,-1,1
 1035 394 1035 394 1035 403 c 128,-1,2
 1035 412 1035 412 1017 416 c 1,3,4
 1012 411 1012 411 999 397 c 128,-1,5
 986 383 986 383 978 376 c 1,6,0
 1004 379 1004 379 1019.5 386.5 c 128,-1,1
915 375 m 1,7,-1
 959 418 l 1,8,9
 900 417 900 417 835 403 c 1,10,11
 860 381 860 381 915 375 c 1,7,-1
1526 722 m 0,12,13
 1526 740 1526 740 1487 740 c 0,14,15
 1390 740 1390 740 1282 664 c 1,16,17
 1403.25 671.578125 1403.25 671.578125 1447.625 678.7890625 c 0,18,19
 1526 691.525 1526 691.525 1526 722 c 0,12,13
1212 641 m 1,20,21
 1012.54991243 623.504378284 1012.54991243 623.504378284 938 595 c 0,22,23
 852.26993865 562.220858896 852.26993865 562.220858896 826.5 516.5 c 0,24,25
 811 489 811 489 811 460 c 128,-1,26
 811 431 811 431 824 414 c 1,27,28
 898 432 898 432 974 433 c 1,29,30
 1121 576 1121 576 1212 641 c 1,20,21
900 361 m 1,31,32
 840 367 840 367 811 397 c 1,33,34
 668 358 668 358 582.5 268.5 c 128,-1,35
 497 179 497 179 497 95 c 0,36,37
 497 64 497 64 509 42 c 1,38,39
 573 76 573 76 646 132.5 c 128,-1,40
 719 189 719 189 770 236 c 128,-1,41
 821 283 821 283 900 361 c 1,31,32
38 123 m 128,-1,43
 31 115 31 115 25.5 115 c 128,-1,44
 20 115 20 115 16 116 c 0,45,46
 12 116 12 116 12 104 c 0,47,48
 12 58 12 58 57 28 c 0,49,50
 132 -22 132 -22 272 -22 c 0,51,52
 379 -22 379 -22 496 35 c 1,53,54
 484 62 484 62 484 95 c 0,55,56
 484 151 484 151 518 210.5 c 128,-1,57
 552 270 552 270 626 325.5 c 128,-1,58
 700 381 700 381 801 409 c 1,59,60
 788 428 788 428 788 458 c 128,-1,61
 788 488 788 488 802.5 516 c 128,-1,62
 817 544 817 544 840.5 564 c 128,-1,63
 864 584 864 584 901 599.5 c 128,-1,64
 938 615 938 615 974 624.5 c 128,-1,65
 1010 634 1010 634 1059.5 641.5 c 0,66,67
 1122.40625 651.03125 1122.40625 651.03125 1239 660 c 1,68,69
 1379 753 1379 753 1502 753 c 0,70,71
 1524 753 1524 753 1532.5 747.5 c 128,-1,72
 1541 742 1541 742 1541 724 c 128,-1,73
 1541 706 1541 706 1520 691.5 c 128,-1,74
 1499 677 1499 677 1455.5 668.5 c 0,75,76
 1381.21266448 653.984083863 1381.21266448 653.984083863 1260.10475165 645.245072881 c 0,77,78
 1259 645 1259 645 1258.5 645 c 2,79,-1
 1257 645 l 1,80,81
 1194.66037736 598.690566038 1194.66037736 598.690566038 1110.5 513 c 0,82,83
 1083 485 1083 485 1031 431 c 1,84,85
 1059 425 1059 425 1059 409.5 c 128,-1,86
 1059 394 1059 394 1033.5 380.5 c 128,-1,87
 1008 367 1008 367 965 362 c 1,88,89
 845 239 845 239 741.5 154.5 c 128,-1,90
 638 70 638 70 524 20 c 1,91,92
 572 -20 572 -20 639 -20 c 0,93,94
 742 -20 742 -20 893 80 c 1,95,-1
 895 65 l 1,96,97
 750 -36 750 -36 637 -36 c 0,98,99
 597 -36 597 -36 565.5 -23.5 c 128,-1,100
 534 -11 534 -11 522 1.5 c 2,101,-1
 510 14 l 1,102,103
 386 -36 386 -36 261 -36 c 0,104,105
 189.2 -36 189.2 -36 105.5 -13.5 c 0,106,107
 59 -1 59 -1 29.5 28 c 128,-1,108
 0 57 0 57 0 99 c 0,109,110
 0 123 0 123 8.5 136.5 c 128,-1,111
 17 150 17 150 25.5 151.5 c 2,112,-1
 34 153 l 1,113,114
 45 152 45 152 45 141.5 c 128,-1,42
 45 131 45 131 38 123 c 128,-1,43
EndSplineSet
EndChar

StartChar: Iacute
Encoding: 205 205 23
Width: 905
Flags: HMW
HStem: -36 21G<226.5 305.5 592.5 667.5> 645 108 854 20G<1614 1621>
VStem: 788 23<447.5 526 447.5 536>
LayerCount: 2
Fore
SplineSet
1610 846 m 1,0,-1
 1472 789 l 1,1,-1
 1468 799 l 1,2,3
 1493 814 1493 814 1552.5 844 c 128,-1,4
 1612 874 1612 874 1619 874 c 128,-1,5
 1626 874 1626 874 1626 862.5 c 128,-1,6
 1626 851 1626 851 1610 846 c 1,0,-1
1019.5 386.5 m 128,-1,8
 1035 394 1035 394 1035 403 c 128,-1,9
 1035 412 1035 412 1017 416 c 1,10,11
 1012 411 1012 411 999 397 c 128,-1,12
 986 383 986 383 978 376 c 1,13,7
 1004 379 1004 379 1019.5 386.5 c 128,-1,8
915 375 m 1,14,-1
 959 418 l 1,15,16
 900 417 900 417 835 403 c 1,17,18
 860 381 860 381 915 375 c 1,14,-1
1526 722 m 0,19,20
 1526 740 1526 740 1487 740 c 0,21,22
 1390 740 1390 740 1282 664 c 1,23,24
 1403.25 671.578125 1403.25 671.578125 1447.625 678.7890625 c 0,25,26
 1526 691.525 1526 691.525 1526 722 c 0,19,20
1212 641 m 1,27,28
 1012.54991243 623.504378284 1012.54991243 623.504378284 938 595 c 0,29,30
 852.26993865 562.220858896 852.26993865 562.220858896 826.5 516.5 c 0,31,32
 811 489 811 489 811 460 c 128,-1,33
 811 431 811 431 824 414 c 1,34,35
 898 432 898 432 974 433 c 1,36,37
 1121 576 1121 576 1212 641 c 1,27,28
900 361 m 1,38,39
 840 367 840 367 811 397 c 1,40,41
 668 358 668 358 582.5 268.5 c 128,-1,42
 497 179 497 179 497 95 c 0,43,44
 497 64 497 64 509 42 c 1,45,46
 573 76 573 76 646 132.5 c 128,-1,47
 719 189 719 189 770 236 c 128,-1,48
 821 283 821 283 900 361 c 1,38,39
38 123 m 128,-1,50
 31 115 31 115 25.5 115 c 128,-1,51
 20 115 20 115 16 116 c 0,52,53
 12 116 12 116 12 104 c 0,54,55
 12 58 12 58 57 28 c 0,56,57
 132 -22 132 -22 272 -22 c 0,58,59
 379 -22 379 -22 496 35 c 1,60,61
 484 62 484 62 484 95 c 0,62,63
 484 151 484 151 518 210.5 c 128,-1,64
 552 270 552 270 626 325.5 c 128,-1,65
 700 381 700 381 801 409 c 1,66,67
 788 428 788 428 788 458 c 128,-1,68
 788 488 788 488 802.5 516 c 128,-1,69
 817 544 817 544 840.5 564 c 128,-1,70
 864 584 864 584 901 599.5 c 128,-1,71
 938 615 938 615 974 624.5 c 128,-1,72
 1010 634 1010 634 1059.5 641.5 c 0,73,74
 1122.40625 651.03125 1122.40625 651.03125 1239 660 c 1,75,76
 1379 753 1379 753 1502 753 c 0,77,78
 1524 753 1524 753 1532.5 747.5 c 128,-1,79
 1541 742 1541 742 1541 724 c 128,-1,80
 1541 706 1541 706 1520 691.5 c 128,-1,81
 1499 677 1499 677 1455.5 668.5 c 0,82,83
 1381.21266448 653.984083863 1381.21266448 653.984083863 1260.10475165 645.245072881 c 0,84,85
 1259 645 1259 645 1258.5 645 c 2,86,-1
 1257 645 l 1,87,88
 1194.66037736 598.690566038 1194.66037736 598.690566038 1110.5 513 c 0,89,90
 1083 485 1083 485 1031 431 c 1,91,92
 1059 425 1059 425 1059 409.5 c 128,-1,93
 1059 394 1059 394 1033.5 380.5 c 128,-1,94
 1008 367 1008 367 965 362 c 1,95,96
 845 239 845 239 741.5 154.5 c 128,-1,97
 638 70 638 70 524 20 c 1,98,99
 572 -20 572 -20 639 -20 c 0,100,101
 742 -20 742 -20 893 80 c 1,102,-1
 895 65 l 1,103,104
 750 -36 750 -36 637 -36 c 0,105,106
 597 -36 597 -36 565.5 -23.5 c 128,-1,107
 534 -11 534 -11 522 1.5 c 2,108,-1
 510 14 l 1,109,110
 386 -36 386 -36 261 -36 c 0,111,112
 189.2 -36 189.2 -36 105.5 -13.5 c 0,113,114
 59 -1 59 -1 29.5 28 c 128,-1,115
 0 57 0 57 0 99 c 0,116,117
 0 123 0 123 8.5 136.5 c 128,-1,118
 17 150 17 150 25.5 151.5 c 2,119,-1
 34 153 l 1,120,121
 45 152 45 152 45 141.5 c 128,-1,49
 45 131 45 131 38 123 c 128,-1,50
EndSplineSet
EndChar

StartChar: Icircumflex
Encoding: 206 206 24
Width: 905
Flags: HMW
HStem: -36 21G<226.5 305.5 592.5 667.5> 645 108 849 20G<1486 1486>
VStem: 788 23<447.5 526 447.5 536>
LayerCount: 2
Fore
SplineSet
1543 780 m 1,0,-1
 1532 774 l 1,1,-1
 1483 843 l 1,2,-1
 1349 789 l 1,3,-1
 1337 798 l 1,4,-1
 1486 869 l 1,5,6
 1499 869 1499 869 1502 864 c 2,7,-1
 1543 780 l 1,0,-1
1019.5 386.5 m 128,-1,9
 1035 394 1035 394 1035 403 c 128,-1,10
 1035 412 1035 412 1017 416 c 1,11,12
 1012 411 1012 411 999 397 c 128,-1,13
 986 383 986 383 978 376 c 1,14,8
 1004 379 1004 379 1019.5 386.5 c 128,-1,9
915 375 m 1,15,-1
 959 418 l 1,16,17
 900 417 900 417 835 403 c 1,18,19
 860 381 860 381 915 375 c 1,15,-1
1526 722 m 0,20,21
 1526 740 1526 740 1487 740 c 0,22,23
 1390 740 1390 740 1282 664 c 1,24,25
 1403.25 671.578125 1403.25 671.578125 1447.625 678.7890625 c 0,26,27
 1526 691.525 1526 691.525 1526 722 c 0,20,21
1212 641 m 1,28,29
 1012.54991243 623.504378284 1012.54991243 623.504378284 938 595 c 0,30,31
 852.26993865 562.220858896 852.26993865 562.220858896 826.5 516.5 c 0,32,33
 811 489 811 489 811 460 c 128,-1,34
 811 431 811 431 824 414 c 1,35,36
 898 432 898 432 974 433 c 1,37,38
 1121 576 1121 576 1212 641 c 1,28,29
900 361 m 1,39,40
 840 367 840 367 811 397 c 1,41,42
 668 358 668 358 582.5 268.5 c 128,-1,43
 497 179 497 179 497 95 c 0,44,45
 497 64 497 64 509 42 c 1,46,47
 573 76 573 76 646 132.5 c 128,-1,48
 719 189 719 189 770 236 c 128,-1,49
 821 283 821 283 900 361 c 1,39,40
38 123 m 128,-1,51
 31 115 31 115 25.5 115 c 128,-1,52
 20 115 20 115 16 116 c 0,53,54
 12 116 12 116 12 104 c 0,55,56
 12 58 12 58 57 28 c 0,57,58
 132 -22 132 -22 272 -22 c 0,59,60
 379 -22 379 -22 496 35 c 1,61,62
 484 62 484 62 484 95 c 0,63,64
 484 151 484 151 518 210.5 c 128,-1,65
 552 270 552 270 626 325.5 c 128,-1,66
 700 381 700 381 801 409 c 1,67,68
 788 428 788 428 788 458 c 128,-1,69
 788 488 788 488 802.5 516 c 128,-1,70
 817 544 817 544 840.5 564 c 128,-1,71
 864 584 864 584 901 599.5 c 128,-1,72
 938 615 938 615 974 624.5 c 128,-1,73
 1010 634 1010 634 1059.5 641.5 c 0,74,75
 1122.40625 651.03125 1122.40625 651.03125 1239 660 c 1,76,77
 1379 753 1379 753 1502 753 c 0,78,79
 1524 753 1524 753 1532.5 747.5 c 128,-1,80
 1541 742 1541 742 1541 724 c 128,-1,81
 1541 706 1541 706 1520 691.5 c 128,-1,82
 1499 677 1499 677 1455.5 668.5 c 0,83,84
 1381.21266448 653.984083863 1381.21266448 653.984083863 1260.10475165 645.245072881 c 0,85,86
 1259 645 1259 645 1258.5 645 c 2,87,-1
 1257 645 l 1,88,89
 1194.66037736 598.690566038 1194.66037736 598.690566038 1110.5 513 c 0,90,91
 1083 485 1083 485 1031 431 c 1,92,93
 1059 425 1059 425 1059 409.5 c 128,-1,94
 1059 394 1059 394 1033.5 380.5 c 128,-1,95
 1008 367 1008 367 965 362 c 1,96,97
 845 239 845 239 741.5 154.5 c 128,-1,98
 638 70 638 70 524 20 c 1,99,100
 572 -20 572 -20 639 -20 c 0,101,102
 742 -20 742 -20 893 80 c 1,103,-1
 895 65 l 1,104,105
 750 -36 750 -36 637 -36 c 0,106,107
 597 -36 597 -36 565.5 -23.5 c 128,-1,108
 534 -11 534 -11 522 1.5 c 2,109,-1
 510 14 l 1,110,111
 386 -36 386 -36 261 -36 c 0,112,113
 189.2 -36 189.2 -36 105.5 -13.5 c 0,114,115
 59 -1 59 -1 29.5 28 c 128,-1,116
 0 57 0 57 0 99 c 0,117,118
 0 123 0 123 8.5 136.5 c 128,-1,119
 17 150 17 150 25.5 151.5 c 2,120,-1
 34 153 l 1,121,122
 45 152 45 152 45 141.5 c 128,-1,50
 45 131 45 131 38 123 c 128,-1,51
EndSplineSet
EndChar

StartChar: Idieresis
Encoding: 207 207 25
Width: 905
Flags: HMW
HStem: -36 21G<226.5 305.5 592.5 667.5> 645 108 808 51<1406.5 1446 1432.5 1506>
VStem: 788 23<447.5 526 447.5 536>
LayerCount: 2
Fore
SplineSet
1527 821 m 128,-1,1
 1511 808 1511 808 1497.5 808 c 128,-1,2
 1484 808 1484 808 1484 819 c 128,-1,3
 1484 830 1484 830 1500 844.5 c 128,-1,4
 1516 859 1516 859 1529.5 859 c 128,-1,5
 1543 859 1543 859 1543 848 c 0,6,0
 1543 834 1543 834 1527 821 c 128,-1,1
1439 821 m 128,-1,8
 1423 808 1423 808 1409.5 808 c 128,-1,9
 1396 808 1396 808 1396 819 c 128,-1,10
 1396 830 1396 830 1412 844.5 c 128,-1,11
 1428 859 1428 859 1441.5 859 c 128,-1,12
 1455 859 1455 859 1455 848 c 0,13,7
 1455 834 1455 834 1439 821 c 128,-1,8
1019.5 386.5 m 128,-1,15
 1035 394 1035 394 1035 403 c 128,-1,16
 1035 412 1035 412 1017 416 c 1,17,18
 1012 411 1012 411 999 397 c 128,-1,19
 986 383 986 383 978 376 c 1,20,14
 1004 379 1004 379 1019.5 386.5 c 128,-1,15
915 375 m 1,21,-1
 959 418 l 1,22,23
 900 417 900 417 835 403 c 1,24,25
 860 381 860 381 915 375 c 1,21,-1
1526 722 m 0,26,27
 1526 740 1526 740 1487 740 c 0,28,29
 1390 740 1390 740 1282 664 c 1,30,31
 1403.25 671.578125 1403.25 671.578125 1447.625 678.7890625 c 0,32,33
 1526 691.525 1526 691.525 1526 722 c 0,26,27
1212 641 m 1,34,35
 1012.54991243 623.504378284 1012.54991243 623.504378284 938 595 c 0,36,37
 852.26993865 562.220858896 852.26993865 562.220858896 826.5 516.5 c 0,38,39
 811 489 811 489 811 460 c 128,-1,40
 811 431 811 431 824 414 c 1,41,42
 898 432 898 432 974 433 c 1,43,44
 1121 576 1121 576 1212 641 c 1,34,35
900 361 m 1,45,46
 840 367 840 367 811 397 c 1,47,48
 668 358 668 358 582.5 268.5 c 128,-1,49
 497 179 497 179 497 95 c 0,50,51
 497 64 497 64 509 42 c 1,52,53
 573 76 573 76 646 132.5 c 128,-1,54
 719 189 719 189 770 236 c 128,-1,55
 821 283 821 283 900 361 c 1,45,46
38 123 m 128,-1,57
 31 115 31 115 25.5 115 c 128,-1,58
 20 115 20 115 16 116 c 0,59,60
 12 116 12 116 12 104 c 0,61,62
 12 58 12 58 57 28 c 0,63,64
 132 -22 132 -22 272 -22 c 0,65,66
 379 -22 379 -22 496 35 c 1,67,68
 484 62 484 62 484 95 c 0,69,70
 484 151 484 151 518 210.5 c 128,-1,71
 552 270 552 270 626 325.5 c 128,-1,72
 700 381 700 381 801 409 c 1,73,74
 788 428 788 428 788 458 c 128,-1,75
 788 488 788 488 802.5 516 c 128,-1,76
 817 544 817 544 840.5 564 c 128,-1,77
 864 584 864 584 901 599.5 c 128,-1,78
 938 615 938 615 974 624.5 c 128,-1,79
 1010 634 1010 634 1059.5 641.5 c 0,80,81
 1122.40625 651.03125 1122.40625 651.03125 1239 660 c 1,82,83
 1379 753 1379 753 1502 753 c 0,84,85
 1524 753 1524 753 1532.5 747.5 c 128,-1,86
 1541 742 1541 742 1541 724 c 128,-1,87
 1541 706 1541 706 1520 691.5 c 128,-1,88
 1499 677 1499 677 1455.5 668.5 c 0,89,90
 1381.21266448 653.984083863 1381.21266448 653.984083863 1260.10475165 645.245072881 c 0,91,92
 1259 645 1259 645 1258.5 645 c 2,93,-1
 1257 645 l 1,94,95
 1194.66037736 598.690566038 1194.66037736 598.690566038 1110.5 513 c 0,96,97
 1083 485 1083 485 1031 431 c 1,98,99
 1059 425 1059 425 1059 409.5 c 128,-1,100
 1059 394 1059 394 1033.5 380.5 c 128,-1,101
 1008 367 1008 367 965 362 c 1,102,103
 845 239 845 239 741.5 154.5 c 128,-1,104
 638 70 638 70 524 20 c 1,105,106
 572 -20 572 -20 639 -20 c 0,107,108
 742 -20 742 -20 893 80 c 1,109,-1
 895 65 l 1,110,111
 750 -36 750 -36 637 -36 c 0,112,113
 597 -36 597 -36 565.5 -23.5 c 128,-1,114
 534 -11 534 -11 522 1.5 c 2,115,-1
 510 14 l 1,116,117
 386 -36 386 -36 261 -36 c 0,118,119
 189.2 -36 189.2 -36 105.5 -13.5 c 0,120,121
 59 -1 59 -1 29.5 28 c 128,-1,122
 0 57 0 57 0 99 c 0,123,124
 0 123 0 123 8.5 136.5 c 128,-1,125
 17 150 17 150 25.5 151.5 c 2,126,-1
 34 153 l 1,127,128
 45 152 45 152 45 141.5 c 128,-1,56
 45 131 45 131 38 123 c 128,-1,57
EndSplineSet
EndChar

StartChar: Igrave
Encoding: 204 204 26
Width: 905
Flags: HMW
HStem: -36 21G<226.5 305.5 592.5 667.5> 645 108 859 20G<1415 1422>
VStem: 788 23<447.5 526 447.5 536>
LayerCount: 2
Fore
SplineSet
1564 794 m 1,0,-1
 1426 851 l 1,1,2
 1410 856 1410 856 1410 867.5 c 128,-1,3
 1410 879 1410 879 1417 879 c 128,-1,4
 1424 879 1424 879 1483.5 849 c 128,-1,5
 1543 819 1543 819 1568 804 c 1,6,-1
 1564 794 l 1,0,-1
1019.5 386.5 m 128,-1,8
 1035 394 1035 394 1035 403 c 128,-1,9
 1035 412 1035 412 1017 416 c 1,10,11
 1012 411 1012 411 999 397 c 128,-1,12
 986 383 986 383 978 376 c 1,13,7
 1004 379 1004 379 1019.5 386.5 c 128,-1,8
915 375 m 1,14,-1
 959 418 l 1,15,16
 900 417 900 417 835 403 c 1,17,18
 860 381 860 381 915 375 c 1,14,-1
1526 722 m 0,19,20
 1526 740 1526 740 1487 740 c 0,21,22
 1390 740 1390 740 1282 664 c 1,23,24
 1403.25 671.578125 1403.25 671.578125 1447.625 678.7890625 c 0,25,26
 1526 691.525 1526 691.525 1526 722 c 0,19,20
1212 641 m 1,27,28
 1012.54991243 623.504378284 1012.54991243 623.504378284 938 595 c 0,29,30
 852.26993865 562.220858896 852.26993865 562.220858896 826.5 516.5 c 0,31,32
 811 489 811 489 811 460 c 128,-1,33
 811 431 811 431 824 414 c 1,34,35
 898 432 898 432 974 433 c 1,36,37
 1121 576 1121 576 1212 641 c 1,27,28
900 361 m 1,38,39
 840 367 840 367 811 397 c 1,40,41
 668 358 668 358 582.5 268.5 c 128,-1,42
 497 179 497 179 497 95 c 0,43,44
 497 64 497 64 509 42 c 1,45,46
 573 76 573 76 646 132.5 c 128,-1,47
 719 189 719 189 770 236 c 128,-1,48
 821 283 821 283 900 361 c 1,38,39
38 123 m 128,-1,50
 31 115 31 115 25.5 115 c 128,-1,51
 20 115 20 115 16 116 c 0,52,53
 12 116 12 116 12 104 c 0,54,55
 12 58 12 58 57 28 c 0,56,57
 132 -22 132 -22 272 -22 c 0,58,59
 379 -22 379 -22 496 35 c 1,60,61
 484 62 484 62 484 95 c 0,62,63
 484 151 484 151 518 210.5 c 128,-1,64
 552 270 552 270 626 325.5 c 128,-1,65
 700 381 700 381 801 409 c 1,66,67
 788 428 788 428 788 458 c 128,-1,68
 788 488 788 488 802.5 516 c 128,-1,69
 817 544 817 544 840.5 564 c 128,-1,70
 864 584 864 584 901 599.5 c 128,-1,71
 938 615 938 615 974 624.5 c 128,-1,72
 1010 634 1010 634 1059.5 641.5 c 0,73,74
 1122.40625 651.03125 1122.40625 651.03125 1239 660 c 1,75,76
 1379 753 1379 753 1502 753 c 0,77,78
 1524 753 1524 753 1532.5 747.5 c 128,-1,79
 1541 742 1541 742 1541 724 c 128,-1,80
 1541 706 1541 706 1520 691.5 c 128,-1,81
 1499 677 1499 677 1455.5 668.5 c 0,82,83
 1381.21266448 653.984083863 1381.21266448 653.984083863 1260.10475165 645.245072881 c 0,84,85
 1259 645 1259 645 1258.5 645 c 2,86,-1
 1257 645 l 1,87,88
 1194.66037736 598.690566038 1194.66037736 598.690566038 1110.5 513 c 0,89,90
 1083 485 1083 485 1031 431 c 1,91,92
 1059 425 1059 425 1059 409.5 c 128,-1,93
 1059 394 1059 394 1033.5 380.5 c 128,-1,94
 1008 367 1008 367 965 362 c 1,95,96
 845 239 845 239 741.5 154.5 c 128,-1,97
 638 70 638 70 524 20 c 1,98,99
 572 -20 572 -20 639 -20 c 0,100,101
 742 -20 742 -20 893 80 c 1,102,-1
 895 65 l 1,103,104
 750 -36 750 -36 637 -36 c 0,105,106
 597 -36 597 -36 565.5 -23.5 c 128,-1,107
 534 -11 534 -11 522 1.5 c 2,108,-1
 510 14 l 1,109,110
 386 -36 386 -36 261 -36 c 0,111,112
 189.2 -36 189.2 -36 105.5 -13.5 c 0,113,114
 59 -1 59 -1 29.5 28 c 128,-1,115
 0 57 0 57 0 99 c 0,116,117
 0 123 0 123 8.5 136.5 c 128,-1,118
 17 150 17 150 25.5 151.5 c 2,119,-1
 34 153 l 1,120,121
 45 152 45 152 45 141.5 c 128,-1,49
 45 131 45 131 38 123 c 128,-1,50
EndSplineSet
EndChar

StartChar: J
Encoding: 74 74 27
Width: 562
Flags: HMW
HStem: -416 20G<-357 -290> -410 21G<-368.5 -285> 54 247<332 380.5 279.5 381.5> 644 30 656 115 758 20G
VStem: 177 26<368 430.5 362 447.5> 463 31<-46 12.5> 1145 35<741 749.5>
LayerCount: 2
Fore
SplineSet
1109 763 m 0,0,1
 1017 763 1017 763 895 670 c 1,2,-1
 952 674 l 2,3,4
 1015 678 1015 678 1061 691 c 0,5,6
 1145 714.739130435 1145 714.739130435 1145 744 c 0,7,8
 1145 763 1145 763 1109 763 c 0,0,1
39 -221 m 1,9,10
 60 -227 60 -227 89 -227 c 0,11,12
 169 -227 169 -227 258.5 -188.5 c 128,-1,13
 348 -150 348 -150 405.5 -98 c 128,-1,14
 463 -46 463 -46 463 -5 c 0,15,16
 463 54 463 54 336 54 c 0,17,18
 320 54 320 54 312 53 c 1,19,20
 147 -129 147 -129 39 -221 c 1,9,10
203 387 m 0,21,22
 203 348 203 348 233 324.5 c 128,-1,23
 263 301 263 301 321 301 c 128,-1,24
 379 301 379 301 452.5 352 c 128,-1,25
 526 403 526 403 576.5 478.5 c 128,-1,26
 627 554 627 554 627 619 c 1,27,-1
 626 635 l 1,28,29
 421 611 421 611 312 536.5 c 128,-1,30
 203 462 203 462 203 387 c 0,21,22
-51 -183 m 1,31,-1
 -42 -177 l 1,32,33
 -30 -191 -30 -191 -6 -204 c 1,34,35
 94 -112 94 -112 243 46 c 1,36,37
 138 29 138 29 19 -23.5 c 128,-1,38
 -100 -76 -100 -76 -191 -137 c 128,-1,39
 -282 -198 -282 -198 -342.5 -259 c 128,-1,40
 -403 -320 -403 -320 -403 -358 c 128,-1,41
 -403 -396 -403 -396 -333 -396 c 0,42,43
 -219 -396 -219 -396 -19 -216 c 1,44,45
 -45 -201 -45 -201 -51 -183 c 1,31,-1
320 62 m 1,46,47
 328 63 328 63 345 63 c 0,48,49
 494 63 494 63 494 -3 c 0,50,51
 494 -47 494 -47 430.5 -102.5 c 128,-1,52
 367 -158 367 -158 267.5 -198.5 c 128,-1,53
 168 -239 168 -239 78 -239 c 0,54,55
 46.5 -239 46.5 -239 24 -233 c 1,56,57
 -185 -410 -185 -410 -344 -410 c 0,58,59
 -415 -410 -415 -410 -415 -362 c 0,60,61
 -415 -329 -415 -329 -380.5 -280 c 128,-1,62
 -346 -231 -346 -231 -282 -178 c 128,-1,63
 -218 -125 -218 -125 -137.5 -76.5 c 128,-1,64
 -57 -28 -57 -28 47 8.5 c 128,-1,65
 151 45 151 45 254 57 c 1,66,67
 279 84 279 84 351.5 162.5 c 128,-1,68
 424 241 424 241 457 276 c 128,-1,69
 490 311 490 311 553 376.5 c 128,-1,70
 616 442 616 442 657 481.5 c 0,71,72
 772.195567145 592.481095176 772.195567145 592.481095176 847 649 c 1,73,74
 814 646 814 646 749 644 c 128,-1,75
 684 642 684 642 640 637 c 1,76,77
 641 632 641 632 641 622 c 0,78,79
 641 570 641 570 610 510 c 128,-1,80
 579 450 579 450 531.5 401.5 c 128,-1,81
 484 353 484 353 422.5 320.5 c 128,-1,82
 361 288 361 288 304.5 288 c 128,-1,83
 248 288 248 288 212.5 319.5 c 128,-1,84
 177 351 177 351 177 394 c 128,-1,85
 177 437 177 437 202 476 c 128,-1,86
 227 515 227 515 277 552 c 128,-1,87
 327 589 327 589 416 617.5 c 128,-1,88
 505 646 505 646 621 657 c 1,89,90
 590 758 590 758 400 758 c 0,91,92
 350 758 350 758 294.5 741 c 128,-1,93
 239 724 239 724 195 699.5 c 0,94,95
 105.612410987 649.727365209 105.612410987 649.727365209 56.5 609 c 2,96,-1
 36 592 l 1,97,-1
 30 604 l 1,98,99
 47.4 621.4 47.4 621.4 97.2 656.2 c 128,-1,100
 147 691 147 691 189.5 713 c 128,-1,101
 232 735 232 735 293 753 c 128,-1,102
 354 771 354 771 411 771 c 0,103,104
 606 771 606 771 636 658 c 1,105,106
 686 663 686 663 737.5 664 c 128,-1,107
 789 665 789 665 874 669 c 1,108,109
 1024 778 1024 778 1127 778 c 0,110,111
 1180 778 1180 778 1180 757 c 0,112,113
 1180 730 1180 730 1107.5 696.5 c 128,-1,114
 1035 663 1035 663 940 656 c 0,115,116
 894 652 894 652 870 651 c 1,117,118
 811 603 811 603 737 528 c 128,-1,119
 663 453 663 453 608 390.5 c 128,-1,120
 553 328 553 328 460.5 222 c 128,-1,121
 368 116 368 116 320 62 c 1,46,47
EndSplineSet
EndChar

StartChar: K
Encoding: 75 75 28
Width: 1495
Flags: HMW
HStem: -226 181<1129 1327.5> 223 144<380.5 537> 353 63 373 141 405 109<714 761.5> 419 95 965 20G<783 783>
VStem: -8 22<22 68 22 73> 405 215<531 719> 573 30<279.5 309> 587 33<539 592.5 531 609.5> 749 35<-32.5 29> 998 22<48.5 106.5 24 143> 998 131<-56 143> 1115 53 1145 23<304 339.5 261.5 358.5> 1420 37<169.5 221.5 152 224.5>
LayerCount: 2
Fore
SplineSet
1058 419 m 0,0,1
 1044 419 1044 419 1044 413 c 128,-1,2
 1044 407 1044 407 1052 400.5 c 0,3,4
 1072.30769231 384 1072.30769231 384 1117 384 c 0,5,6
 1129 384 1129 384 1136 385 c 1,7,8
 1112 419 1112 419 1058 419 c 0,0,1
259 218 m 1,9,10
 341 233 341 233 415.5 233 c 128,-1,11
 490 233 490 233 552 220 c 1,12,13
 573 260 573 260 573 290 c 0,14,15
 573 353 573 353 490 353 c 0,16,17
 419 353 419 353 357.5 314.5 c 128,-1,18
 296 276 296 276 259 218 c 1,9,10
307 -9 m 1,19,20
 344 -23 344 -23 400.5 -23 c 128,-1,21
 457 -23 457 -23 549 24 c 0,22,23
 645.088888889 73.0888888889 645.088888889 73.0888888889 699 127 c 1,24,25
 654 174 654 174 575 199 c 1,26,27
 540 136 540 136 469 79 c 128,-1,28
 398 22 398 22 307 -9 c 1,19,20
207 103 m 0,29,30
 207 152 207 152 234 202 c 1,31,32
 134 177 134 177 74 130.5 c 128,-1,33
 14 84 14 84 14 41 c 0,34,35
 14 11 14 11 46.5 -7.5 c 128,-1,36
 79 -26 79 -26 141 -26 c 128,-1,37
 203 -26 203 -26 265 -6 c 1,38,39
 207 30 207 30 207 103 c 0,29,30
545 208 m 1,40,41
 480 223 480 223 405.5 223 c 128,-1,42
 331 223 331 223 251 206 c 1,43,44
 222 156 222 156 222 106 c 0,45,46
 222 34 222 34 285 0 c 1,47,48
 369 31 369 31 439 89 c 128,-1,49
 509 147 509 147 545 208 c 1,40,41
1129 -45 m 1,50,-1
 1144 -45 l 2,51,52
 1203 -45 1203 -45 1257 -17 c 128,-1,53
 1311 11 1311 11 1345.5 52 c 128,-1,54
 1380 93 1380 93 1400 136 c 128,-1,55
 1420 179 1420 179 1420 212 c 0,56,57
 1420 249 1420 249 1374 249 c 0,58,59
 1342 249 1342 249 1301 229 c 128,-1,60
 1260 209 1260 209 1221 173.5 c 128,-1,61
 1182 138 1182 138 1155.5 81 c 128,-1,62
 1129 24 1129 24 1129 -40 c 2,63,-1
 1129 -45 l 1,50,-1
621 514 m 1,64,-1
 635 514 l 2,65,66
 725 514 725 514 808.5 539.5 c 128,-1,67
 892 565 892 565 947 603 c 128,-1,68
 1002 641 1002 641 1034.5 683.5 c 128,-1,69
 1067 726 1067 726 1067 760 c 128,-1,70
 1067 794 1067 794 1038.5 813.5 c 128,-1,71
 1010 833 1010 833 954 833 c 0,72,73
 869 833 869 833 790 783 c 128,-1,74
 711 733 711 733 665.5 663 c 128,-1,75
 620 593 620 593 620 531 c 1,76,-1
 621 514 l 1,64,-1
783 985 m 1,77,-1
 786 973 l 1,78,79
 630 951 630 951 525.5 854.5 c 128,-1,80
 421 758 421 758 421 660 c 0,81,82
 421 602 421 602 463 563.5 c 128,-1,83
 505 525 505 525 589 516 c 1,84,85
 587 534 587 534 587 544 c 0,86,87
 587 594 587 594 615 647.5 c 128,-1,88
 643 701 643 701 691 746.5 c 128,-1,89
 739 792 739 792 811 821.5 c 128,-1,90
 883 851 883 851 953.5 851 c 128,-1,91
 1024 851 1024 851 1054.5 828.5 c 128,-1,92
 1085 806 1085 806 1085 767 c 128,-1,93
 1085 728 1085 728 1052 682.5 c 128,-1,94
 1019 637 1019 637 962 596 c 128,-1,95
 905 555 905 555 816.5 528 c 128,-1,96
 728 501 728 501 629 501 c 2,97,-1
 623 501 l 1,98,99
 645 416 645 416 770 416 c 0,100,101
 834 416 834 416 923 454 c 128,-1,102
 1012 492 1012 492 1106 570 c 1,103,-1
 1112 562 l 1,104,105
 1082 536 1082 536 1036 504.5 c 128,-1,106
 990 473 990 473 910 439 c 128,-1,107
 830 405 830 405 765 405 c 0,108,109
 621 405 621 405 593 502 c 1,110,111
 500 509 500 509 452.5 551 c 128,-1,112
 405 593 405 593 405 656 c 0,113,114
 405 757 405 757 511.5 857 c 128,-1,115
 618 957 618 957 783 985 c 1,77,-1
1463 772 m 1,116,-1
 1460 762 l 1,117,118
 1333 716 1333 716 1165 548 c 0,119,120
 1145 528 1145 528 1053 431 c 1,121,-1
 1056 431 l 2,122,123
 1075 431 1075 431 1104 421.5 c 128,-1,124
 1133 412 1133 412 1151 387 c 1,125,126
 1241.07164179 402.331343284 1241.07164179 402.331343284 1352.5 493.5 c 0,127,128
 1402 534 1402 534 1454.5 581.5 c 128,-1,129
 1507 629 1507 629 1562.5 675 c 128,-1,130
 1618 721 1618 721 1675 758.5 c 0,131,132
 1801.92 842 1801.92 842 1931 842 c 0,133,134
 1978 842 1978 842 2001.5 820.5 c 128,-1,135
 2025 799 2025 799 2025 764 c 0,136,137
 2025 691 2025 691 1946.5 618.5 c 128,-1,138
 1868 546 1868 546 1761 546 c 0,139,140
 1733 546 1733 546 1718.5 558 c 128,-1,141
 1704 570 1704 570 1704 590 c 0,142,143
 1704 627 1704 627 1745 666.5 c 128,-1,144
 1786 706 1786 706 1846 717 c 1,145,-1
 1846 712 l 1,146,147
 1789 700 1789 700 1752.5 663.5 c 128,-1,148
 1716 627 1716 627 1716 594 c 0,149,150
 1716 556 1716 556 1764 556 c 0,151,152
 1857 556 1857 556 1932.5 626.5 c 128,-1,153
 2008 697 2008 697 2008 765 c 128,-1,154
 2008 833 2008 833 1918 833 c 0,155,156
 1855 833 1855 833 1788.5 802 c 128,-1,157
 1722 771 1722 771 1666.5 724 c 128,-1,158
 1611 677 1611 677 1547 620 c 128,-1,159
 1483 563 1483 563 1426 513 c 128,-1,160
 1369 463 1369 463 1297.5 424.5 c 128,-1,161
 1226 386 1226 386 1157 376 c 1,162,163
 1168 357 1168 357 1168 324.5 c 128,-1,164
 1168 292 1168 292 1153 259.5 c 128,-1,165
 1138 227 1138 227 1116 204 c 128,-1,166
 1094 181 1094 181 1072 158.5 c 0,167,168
 1020 105.318181818 1020 105.318181818 1020 50 c 0,169,170
 1020 -33 1020 -33 1115 -43 c 1,171,-1
 1115 -34 l 2,172,173
 1115 33 1115 33 1142.5 91 c 128,-1,174
 1170 149 1170 149 1211.5 185.5 c 128,-1,175
 1253 222 1253 222 1298.5 242.5 c 128,-1,176
 1344 263 1344 263 1380.5 263 c 0,177,178
 1457 263 1457 263 1457 200 c 0,179,180
 1457 164 1457 164 1432.5 119.5 c 128,-1,181
 1408 75 1408 75 1367 36 c 128,-1,182
 1326 -3 1326 -3 1265.5 -29.5 c 128,-1,183
 1205 -56 1205 -56 1140 -56 c 2,184,-1
 1129 -56 l 1,185,186
 1134 -127 1134 -127 1181.5 -171.5 c 128,-1,187
 1229 -216 1229 -216 1321 -216 c 0,188,189
 1353 -216 1353 -216 1389 -204 c 1,190,-1
 1397 -209 l 1,191,192
 1366 -226 1366 -226 1307 -226 c 0,193,194
 1217 -226 1217 -226 1169.5 -178.5 c 128,-1,195
 1122 -131 1122 -131 1116 -55 c 1,196,197
 1054 -48 1054 -48 1026 -10.5 c 128,-1,198
 998 27 998 27 998 71 c 128,-1,199
 998 115 998 115 1013 146.5 c 128,-1,200
 1028 178 1028 178 1050 202 c 128,-1,201
 1072 226 1072 226 1093.5 249.5 c 0,202,203
 1145 305.790697674 1145 305.790697674 1145 355 c 0,204,205
 1145 362 1145 362 1141 374 c 1,206,207
 1130 373 1130 373 1109 373 c 0,208,209
 1053 373 1053 373 1018 393 c 1,210,-1
 830 193 l 2,211,212
 809 170 809 170 741 117 c 1,213,214
 784 68 784 68 784 11 c 0,215,216
 784 -66 784 -66 702.5 -129.5 c 128,-1,217
 621 -193 621 -193 462 -217 c 1,218,-1
 462 -206 l 1,219,220
 601 -184 601 -184 675 -122.5 c 128,-1,221
 749 -61 749 -61 749 14 c 0,222,223
 749 60 749 60 720 101 c 1,224,225
 529 -36 529 -36 389 -36 c 0,226,227
 325 -36 325 -36 283 -16 c 1,228,229
 210 -37 210 -37 139 -37 c 128,-1,230
 68 -37 68 -37 30 -14.5 c 128,-1,231
 -8 8 -8 8 -8 43 c 0,232,233
 -8 91 -8 91 58 140.5 c 128,-1,234
 124 190 124 190 241 215 c 1,235,236
 280 280 280 280 349.5 323.5 c 128,-1,237
 419 367 419 367 502 367 c 0,238,239
 553 367 553 367 578 345.5 c 128,-1,240
 603 324 603 324 603 288.25 c 128,-1,241
 603 252.5 603 252.5 582 212 c 1,242,243
 663 189 663 189 716 143 c 1,244,-1
 1051 477 l 1,245,246
 1138 573 1138 573 1247 656.5 c 128,-1,247
 1356 740 1356 740 1463 772 c 1,116,-1
EndSplineSet
EndChar

StartChar: L
Encoding: 76 76 29
Width: 1250
Flags: HMW
HStem: -237 207 -43 166<122.5 182 98 229> 117 211<916.5 1003 882.5 1038> 312 231<679.5 1010> 532 226 743 138 861 20<896.5 1027.5> 977 20G<793 793>
VStem: 6 30<33 67 33 70.5> 462 182<478.5 737> 623 21<478.5 535 478.5 535> 1092 26<748.5 813.5> 1128 30<40 74.5 32 75> 1407 33<639 709>
LayerCount: 2
Fore
SplineSet
185 -30 m 0,0,1
 317 -30 317 -30 452 40 c 1,2,3
 203 108 203 108 145 108 c 128,-1,4
 87 108 87 108 61.5 92 c 128,-1,5
 36 76 36 76 36 48.5 c 128,-1,6
 36 21 36 21 76.5 -4.5 c 128,-1,7
 117 -30 117 -30 185 -30 c 0,0,1
708 5 m 1,8,9
 853 -26 853 -26 933.5 -26 c 128,-1,10
 1014 -26 1014 -26 1071 0.5 c 128,-1,11
 1128 27 1128 27 1128 60 c 0,12,13
 1128 84 1128 84 1093 100.5 c 128,-1,14
 1058 117 1058 117 991 117 c 0,15,16
 885 117 885 117 813 86 c 128,-1,17
 741 55 741 55 708 5 c 1,8,9
1169.5 654 m 0,18,19
 1101.58707449 590.88899852 1101.58707449 590.88899852 1002.29353725 483.44449926 c 128,-1,20
 903 376 903 376 857 329 c 1,21,22
 867 328 867 328 888 328 c 0,23,24
 970 328 970 328 1065.5 370 c 128,-1,25
 1161 412 1161 412 1234.5 470 c 128,-1,26
 1308 528 1308 528 1357.5 590.5 c 128,-1,27
 1407 653 1407 653 1407 694 c 0,28,29
 1407 743 1407 743 1336.13586957 743 c 128,-1,30
 1265.27173913 743 1265.27173913 743 1169.5 654 c 0,18,19
1092 794 m 0,31,32
 1092 861 1092 861 983 861 c 0,33,34
 923 861 923 861 859.5 832.5 c 128,-1,35
 796 804 796 804 751 758 c 128,-1,36
 706 712 706 712 678 656 c 128,-1,37
 650 600 650 600 645 545 c 1,38,39
 671 543 671 543 687 543 c 0,40,41
 770 543 770 543 848 569 c 128,-1,42
 926 595 926 595 978 633.5 c 128,-1,43
 1030 672 1030 672 1061 715.5 c 128,-1,44
 1092 759 1092 759 1092 794 c 0,31,32
513 51 m 1,45,46
 586 33 586 33 687 9 c 1,47,48
 720 63 720 63 799.5 96.5 c 128,-1,49
 879 130 879 130 1001 130 c 0,50,51
 1073 130 1073 130 1115.5 108 c 128,-1,52
 1158 86 1158 86 1158 55 c 0,53,54
 1158 17 1158 17 1093.5 -12 c 128,-1,55
 1029 -41 1029 -41 925.5 -41 c 128,-1,56
 822 -41 822 -41 695 -17 c 1,57,58
 685 -41 685 -41 685 -69 c 0,59,60
 685 -134 685 -134 748.5 -180.5 c 128,-1,61
 812 -227 812 -227 925 -227 c 1,62,-1
 929 -235 l 1,63,64
 911 -237 911 -237 902 -237 c 0,65,66
 795 -237 795 -237 730.5 -185.5 c 128,-1,67
 666 -134 666 -134 666 -64 c 0,68,69
 666 -37 666 -37 676 -14 c 1,70,71
 577 7 577 7 478 33 c 1,72,73
 326 -43 326 -43 175 -43 c 0,74,75
 100 -43 100 -43 53 -13.5 c 128,-1,76
 6 16 6 16 6 49 c 128,-1,77
 6 82 6 82 42 102.5 c 128,-1,78
 78 123 78 123 149.5 123 c 128,-1,79
 221 123 221 123 485 58 c 1,80,81
 623 138 623 138 798 320 c 1,82,83
 711 339 711 339 667 396.5 c 128,-1,84
 623 454 623 454 623 533 c 2,85,-1
 623 535 l 1,86,87
 541 544 541 544 501.5 582 c 128,-1,88
 462 620 462 620 462 676 c 0,89,90
 462 771 462 771 560 870.5 c 128,-1,91
 658 970 658 970 793 997 c 1,92,-1
 796 988 l 1,93,94
 661 960 661 960 569 867.5 c 128,-1,95
 477 775 477 775 477 685 c 0,96,97
 477 632 477 632 513 595.5 c 128,-1,98
 549 559 549 559 623 547 c 1,99,100
 626 607 626 607 654 665.5 c 128,-1,101
 682 724 682 724 728.5 772.5 c 128,-1,102
 775 821 775 821 846 851 c 128,-1,103
 917 881 917 881 988 881 c 0,104,105
 1118 881 1118 881 1118 800 c 0,106,107
 1118 761 1118 761 1085 714.5 c 128,-1,108
 1052 668 1052 668 996.5 627.5 c 128,-1,109
 941 587 941 587 856.5 559.5 c 128,-1,110
 772 532 772 532 679 532 c 0,111,112
 655 532 655 532 644 533 c 1,113,-1
 644 523 l 2,114,115
 644 452 644 452 685.5 401.5 c 128,-1,116
 727 351 727 351 812 335 c 1,117,118
 844 368 844 368 906.5 436 c 128,-1,119
 969 504 969 504 1001.5 538 c 128,-1,120
 1034 572 1034 572 1087 622 c 128,-1,121
 1140 672 1140 672 1176.5 696 c 0,122,123
 1270.79166667 758 1270.79166667 758 1345 758 c 0,124,125
 1440 758 1440 758 1440 695 c 0,126,127
 1440 649 1440 649 1388.5 583 c 128,-1,128
 1337 517 1337 517 1259 457 c 128,-1,129
 1181 397 1181 397 1076.5 354.5 c 128,-1,130
 972 312 972 312 877 312 c 0,131,132
 853 312 853 312 842 313 c 1,133,134
 663 134 663 134 513 51 c 1,45,46
EndSplineSet
EndChar

StartChar: Lslash
Encoding: 321 321 30
Width: 1260
Flags: HMW
HStem: -237 207 -43 166<122.5 182 98 229> 117 130<916.5 940 940 941> 230 98<882.5 934> 312 231<679.5 1010> 532 226 743 138 861 20<896.5 1027.5> 977 20G<793 793>
VStem: 6 30<33 67 33 70.5> 462 182<478.5 737> 623 21<478.5 535 478.5 535> 1092 26<748.5 813.5> 1128 30<40 74.5 32 75> 1407 33<639 709>
LayerCount: 2
Fore
SplineSet
185 -30 m 0,0,1
 317 -30 317 -30 452 40 c 1,2,3
 203 108 203 108 145 108 c 128,-1,4
 87 108 87 108 61.5 92 c 128,-1,5
 36 76 36 76 36 48.5 c 128,-1,6
 36 21 36 21 76.5 -4.5 c 128,-1,7
 117 -30 117 -30 185 -30 c 0,0,1
708 5 m 1,8,9
 853 -26 853 -26 933.5 -26 c 128,-1,10
 1014 -26 1014 -26 1071 0.5 c 128,-1,11
 1128 27 1128 27 1128 60 c 0,12,13
 1128 84 1128 84 1093 100.5 c 128,-1,14
 1058 117 1058 117 991 117 c 0,15,16
 885 117 885 117 813 86 c 128,-1,17
 741 55 741 55 708 5 c 1,8,9
1169.5 654 m 0,18,19
 1101.58707449 590.88899852 1101.58707449 590.88899852 1002.29353725 483.44449926 c 128,-1,20
 903 376 903 376 857 329 c 1,21,22
 867 328 867 328 888 328 c 0,23,24
 970 328 970 328 1065.5 370 c 128,-1,25
 1161 412 1161 412 1234.5 470 c 128,-1,26
 1308 528 1308 528 1357.5 590.5 c 128,-1,27
 1407 653 1407 653 1407 694 c 0,28,29
 1407 743 1407 743 1336.13586957 743 c 128,-1,30
 1265.27173913 743 1265.27173913 743 1169.5 654 c 0,18,19
1092 794 m 0,31,32
 1092 861 1092 861 983 861 c 0,33,34
 923 861 923 861 859.5 832.5 c 128,-1,35
 796 804 796 804 751 758 c 128,-1,36
 706 712 706 712 678 656 c 128,-1,37
 650 600 650 600 645 545 c 1,38,39
 671 543 671 543 687 543 c 0,40,41
 770 543 770 543 848 569 c 128,-1,42
 926 595 926 595 978 633.5 c 128,-1,43
 1030 672 1030 672 1061 715.5 c 128,-1,44
 1092 759 1092 759 1092 794 c 0,31,32
513 51 m 1,45,46
 586 33 586 33 687 9 c 1,47,48
 720 63 720 63 799.5 96.5 c 128,-1,49
 879 130 879 130 1001 130 c 0,50,51
 1073 130 1073 130 1115.5 108 c 128,-1,52
 1158 86 1158 86 1158 55 c 0,53,54
 1158 17 1158 17 1093.5 -12 c 128,-1,55
 1029 -41 1029 -41 925.5 -41 c 128,-1,56
 822 -41 822 -41 695 -17 c 1,57,58
 685 -41 685 -41 685 -69 c 0,59,60
 685 -134 685 -134 748.5 -180.5 c 128,-1,61
 812 -227 812 -227 925 -227 c 1,62,-1
 929 -235 l 1,63,64
 911 -237 911 -237 902 -237 c 0,65,66
 795 -237 795 -237 730.5 -185.5 c 128,-1,67
 666 -134 666 -134 666 -64 c 0,68,69
 666 -37 666 -37 676 -14 c 1,70,71
 577 7 577 7 478 33 c 1,72,73
 326 -43 326 -43 175 -43 c 0,74,75
 100 -43 100 -43 53 -13.5 c 128,-1,76
 6 16 6 16 6 49 c 128,-1,77
 6 82 6 82 42 102.5 c 128,-1,78
 78 123 78 123 149.5 123 c 128,-1,79
 221 123 221 123 485 58 c 1,80,81
 591 120 591 120 708 230 c 1,82,-1
 537 230 l 2,83,84
 523 230 523 230 523 238.5 c 128,-1,85
 523 247 523 247 531 247 c 2,86,-1
 725 247 l 1,87,88
 762 283 762 283 798 320 c 1,89,90
 711 339 711 339 667 396.5 c 128,-1,91
 623 454 623 454 623 533 c 2,92,-1
 623 535 l 1,93,94
 541 544 541 544 501.5 582 c 128,-1,95
 462 620 462 620 462 676 c 0,96,97
 462 771 462 771 560 870.5 c 128,-1,98
 658 970 658 970 793 997 c 1,99,-1
 796 988 l 1,100,101
 661 960 661 960 569 867.5 c 128,-1,102
 477 775 477 775 477 685 c 0,103,104
 477 632 477 632 513 595.5 c 128,-1,105
 549 559 549 559 623 547 c 1,106,107
 626 607 626 607 654 665.5 c 128,-1,108
 682 724 682 724 728.5 772.5 c 128,-1,109
 775 821 775 821 846 851 c 128,-1,110
 917 881 917 881 988 881 c 0,111,112
 1118 881 1118 881 1118 800 c 0,113,114
 1118 761 1118 761 1085 714.5 c 128,-1,115
 1052 668 1052 668 996.5 627.5 c 128,-1,116
 941 587 941 587 856.5 559.5 c 128,-1,117
 772 532 772 532 679 532 c 0,118,119
 655 532 655 532 644 533 c 1,120,-1
 644 523 l 2,121,122
 644 452 644 452 685.5 401.5 c 128,-1,123
 727 351 727 351 812 335 c 1,124,125
 844 368 844 368 906.5 436 c 128,-1,126
 969 504 969 504 1001.5 538 c 128,-1,127
 1034 572 1034 572 1087 622 c 128,-1,128
 1140 672 1140 672 1176.5 696 c 0,129,130
 1270.79166667 758 1270.79166667 758 1345 758 c 0,131,132
 1440 758 1440 758 1440 695 c 0,133,134
 1440 649 1440 649 1388.5 583 c 128,-1,135
 1337 517 1337 517 1259 457 c 128,-1,136
 1181 397 1181 397 1076.5 354.5 c 128,-1,137
 972 312 972 312 877 312 c 0,138,139
 853 312 853 312 842 313 c 1,140,141
 797 268 797 268 774 247 c 1,142,-1
 940 247 l 2,143,144
 943 247 943 247 943 239.5 c 128,-1,145
 943 232 943 232 934 230 c 1,146,-1
 756 230 l 1,147,148
 625 113 625 113 513 51 c 1,45,46
EndSplineSet
EndChar

StartChar: M
Encoding: 77 77 31
Width: 1609
Flags: HMW
HStem: -207 21G<452 452> -173 144<1254 1430.5> 233 144<370.5 527> 363 63 415 109<724 771.5> 975 20G<793 793>
VStem: -18 22<32 78 32 83> 415 215<537.5 729> 563 30<289.5 319> 597 33<549 602.5 537.5 619.5> 739 35<-22.5 40.5> 1138 26<64 159.5 64 198> 1138 107<-28 198> 1541 37<186.5 246 169 249>
LayerCount: 2
Fore
SplineSet
249 228 m 1,0,1
 331 243 331 243 405.5 243 c 128,-1,2
 480 243 480 243 542 230 c 1,3,4
 563 270 563 270 563 300 c 0,5,6
 563 363 563 363 480 363 c 0,7,8
 409 363 409 363 347.5 324.5 c 128,-1,9
 286 286 286 286 249 228 c 1,0,1
297 1 m 1,10,11
 334 -13 334 -13 389 -13 c 0,12,13
 534 -13 534 -13 696 129 c 1,14,15
 648 183 648 183 565 209 c 1,16,17
 530 146 530 146 459 89 c 128,-1,18
 388 32 388 32 297 1 c 1,10,11
197 113 m 0,19,20
 197 162 197 162 224 212 c 1,21,22
 124 187 124 187 64 140.5 c 128,-1,23
 4 94 4 94 4 51 c 0,24,25
 4 21 4 21 36.5 2.5 c 128,-1,26
 69 -16 69 -16 130.5 -16 c 128,-1,27
 192 -16 192 -16 255 3 c 1,28,29
 197 41 197 41 197 113 c 0,19,20
535 218 m 1,30,31
 470 233 470 233 395.5 233 c 128,-1,32
 321 233 321 233 241 216 c 1,33,34
 212 166 212 166 212 116 c 0,35,36
 212 44 212 44 275 10 c 1,37,38
 359 41 359 41 429 99 c 128,-1,39
 499 157 499 157 535 218 c 1,30,31
1256 -29 m 0,40,41
 1334 -29 1334 -29 1402.5 18.5 c 128,-1,42
 1471 66 1471 66 1506 125 c 128,-1,43
 1541 184 1541 184 1541 229 c 0,44,45
 1541 286 1541 286 1491 286 c 0,46,47
 1438 286 1438 286 1380 236.5 c 128,-1,48
 1322 187 1322 187 1283.5 114 c 128,-1,49
 1245 41 1245 41 1245 -23 c 2,50,-1
 1245 -28 l 1,51,52
 1248 -29 1248 -29 1256 -29 c 0,40,41
630 541 m 1,53,-1
 631 524 l 1,54,-1
 645 524 l 2,55,56
 735 524 735 524 818.5 549.5 c 128,-1,57
 902 575 902 575 957 613 c 128,-1,58
 1012 651 1012 651 1044.5 693.5 c 128,-1,59
 1077 736 1077 736 1077 770 c 128,-1,60
 1077 804 1077 804 1048.5 823.5 c 128,-1,61
 1020 843 1020 843 964 843 c 0,62,63
 879 843 879 843 800 793 c 128,-1,64
 721 743 721 743 675.5 673 c 128,-1,65
 630 603 630 603 630 541 c 1,53,-1
793 995 m 1,66,-1
 796 983 l 1,67,68
 640 961 640 961 535.5 864.5 c 128,-1,69
 431 768 431 768 431 670 c 0,70,71
 431 612 431 612 473 573.5 c 128,-1,72
 515 535 515 535 599 526 c 1,73,74
 597 544 597 544 597 554 c 0,75,76
 597 604 597 604 625 657.5 c 128,-1,77
 653 711 653 711 701 756.5 c 128,-1,78
 749 802 749 802 821 831.5 c 128,-1,79
 893 861 893 861 963.5 861 c 128,-1,80
 1034 861 1034 861 1064.5 838.5 c 128,-1,81
 1095 816 1095 816 1095 777 c 128,-1,82
 1095 738 1095 738 1062 692.5 c 128,-1,83
 1029 647 1029 647 972 606 c 128,-1,84
 915 565 915 565 826.5 538 c 128,-1,85
 738 511 738 511 639 511 c 2,86,-1
 633 511 l 1,87,88
 655 426 655 426 780 426 c 0,89,90
 844 426 844 426 933 464 c 128,-1,91
 1022 502 1022 502 1116 580 c 1,92,-1
 1122 572 l 1,93,94
 1092 546 1092 546 1046 514.5 c 128,-1,95
 1000 483 1000 483 920 449 c 128,-1,96
 840 415 840 415 775 415 c 0,97,98
 631 415 631 415 603 512 c 1,99,100
 510 519 510 519 462.5 561 c 128,-1,101
 415 603 415 603 415 666 c 0,102,103
 415 767 415 767 521.5 867 c 128,-1,104
 628 967 628 967 793 995 c 1,66,-1
1424 -163 m 0,105,106
 1456 -163 1456 -163 1492 -151 c 1,107,-1
 1500 -156 l 1,108,109
 1469 -173 1469 -173 1410 -173 c 0,110,111
 1321 -173 1321 -173 1277.5 -135.5 c 128,-1,112
 1234 -98 1234 -98 1231 -35 c 1,113,114
 1190 -25 1190 -25 1164 10.5 c 128,-1,115
 1138 46 1138 46 1138 92.5 c 128,-1,116
 1138 139 1138 139 1161 191 c 128,-1,117
 1184 243 1184 243 1216.5 290 c 128,-1,118
 1249 337 1249 337 1303 396 c 128,-1,119
 1357 455 1357 455 1398 496 c 128,-1,120
 1439 537 1439 537 1502 592.5 c 0,121,122
 1587.73684211 668.030075188 1587.73684211 668.030075188 1671 736 c 1,123,-1
 1669 738 l 1,124,125
 1365 553 1365 553 918 72 c 1,126,-1
 862 -1 l 1,127,128
 857 -4 857 -4 853 -4 c 128,-1,129
 849 -4 849 -4 849 2 c 1,130,-1
 861 23 l 1,131,-1
 961 181 l 1,132,133
 1058 343 1058 343 1097 406 c 0,134,135
 1234 629 1234 629 1350 734 c 1,136,137
 1333 734 1333 734 1258 663.5 c 2,138,-1
 1233 640 l 1,139,140
 891.753117207 288.877805486 891.753117207 288.877805486 723 137 c 1,141,142
 774 83 774 83 774 21 c 0,143,144
 774 -56 774 -56 692.5 -119.5 c 128,-1,145
 611 -183 611 -183 452 -207 c 1,146,-1
 452 -196 l 1,147,148
 591 -174 591 -174 665 -112.5 c 128,-1,149
 739 -51 739 -51 739 24 c 0,150,151
 739 74 739 74 704 120 c 1,152,153
 623 50 623 50 546 12 c 128,-1,154
 469 -26 469 -26 392 -26 c 128,-1,155
 315 -26 315 -26 273 -6 c 1,156,157
 200 -27 200 -27 129 -27 c 128,-1,158
 58 -27 58 -27 20 -4.5 c 128,-1,159
 -18 18 -18 18 -18 53 c 0,160,161
 -18 101 -18 101 48 150.5 c 128,-1,162
 114 200 114 200 231 225 c 1,163,164
 270 290 270 290 339.5 333.5 c 128,-1,165
 409 377 409 377 492 377 c 0,166,167
 543 377 543 377 568 355.5 c 128,-1,168
 593 334 593 334 593 298.25 c 128,-1,169
 593 262.5 593 262.5 572 222 c 1,170,171
 663 195 663 195 714 145 c 1,172,173
 722 153 722 153 769 196 c 128,-1,174
 816 239 816 239 936.5 359 c 128,-1,175
 1057 479 1057 479 1139.5 563.5 c 2,176,-1
 1222 648 l 1,177,178
 1350 773 1350 773 1441 793 c 1,179,180
 1452 793 1452 793 1452 787.5 c 128,-1,181
 1452 782 1452 782 1446 780 c 0,182,183
 1400 766 1400 766 1360 718.5 c 128,-1,184
 1320 671 1320 671 1263 588 c 128,-1,185
 1206 505 1206 505 1176 456 c 2,186,-1
 1004 183 l 2,187,188
 1004 182 1004 182 1007 182 c 1,189,-1
 1020 192 l 1,190,191
 1210 392 1210 392 1372.5 533.5 c 128,-1,192
 1535 675 1535 675 1717 781 c 1,193,194
 1756 807 1756 807 1761.5 807 c 128,-1,195
 1767 807 1767 807 1767 801 c 128,-1,196
 1767 795 1767 795 1765 793 c 128,-1,197
 1763 791 1763 791 1722.5 759 c 128,-1,198
 1682 727 1682 727 1648 696 c 128,-1,199
 1614 665 1614 665 1588 641 c 128,-1,200
 1562 617 1562 617 1502 558 c 128,-1,201
 1442 499 1442 499 1404.5 458.5 c 128,-1,202
 1367 418 1367 418 1316 357.5 c 128,-1,203
 1265 297 1265 297 1236 251 c 0,204,205
 1164 136.793103448 1164 136.793103448 1164 64 c 0,206,207
 1164 18.8888888889 1164 18.8888888889 1198.5 -10.5 c 0,208,209
 1212 -22 1212 -22 1231 -26 c 1,210,211
 1231 43 1231 43 1271 119.5 c 128,-1,212
 1311 196 1311 196 1374.5 249 c 128,-1,213
 1438 302 1438 302 1500 302 c 0,214,215
 1535 302 1535 302 1556.5 280.5 c 128,-1,216
 1578 259 1578 259 1578 220 c 128,-1,217
 1578 181 1578 181 1553.5 136.5 c 128,-1,218
 1529 92 1529 92 1488 53 c 128,-1,219
 1447 14 1447 14 1386.5 -12.5 c 128,-1,220
 1326 -39 1326 -39 1261 -39 c 1,221,-1
 1246 -38 l 1,222,223
 1257 -163 1257 -163 1424 -163 c 0,105,106
EndSplineSet
EndChar

StartChar: N
Encoding: 78 78 32
Width: 1099
Flags: HMW
HStem: -207 21G<452 452> 233 140 363 63 415 109<694 741.5> 751 110 975 20G<763 763>
VStem: -18 22<32 78 32 83> 385 215<537.5 729> 567 33<549 602.5 537.5 619.5> 739 35<-22.5 40.5> 1917 27<606.5 677.5 581.5 687>
LayerCount: 2
Fore
SplineSet
249 228 m 1,0,1
 331 243 331 243 405.5 243 c 128,-1,2
 480 243 480 243 542 230 c 1,3,4
 563 270 563 270 563 300 c 0,5,6
 563 363 563 363 480 363 c 0,7,8
 409 363 409 363 347.5 324.5 c 128,-1,9
 286 286 286 286 249 228 c 1,0,1
297 1 m 1,10,11
 334 -13 334 -13 389 -13 c 0,12,13
 534 -13 534 -13 696 129 c 1,14,15
 648 183 648 183 565 209 c 1,16,17
 530 146 530 146 459 89 c 128,-1,18
 388 32 388 32 297 1 c 1,10,11
197 113 m 0,19,20
 197 162 197 162 224 212 c 1,21,22
 124 187 124 187 64 140.5 c 128,-1,23
 4 94 4 94 4 51 c 0,24,25
 4 21 4 21 36.5 2.5 c 128,-1,26
 69 -16 69 -16 130.5 -16 c 128,-1,27
 192 -16 192 -16 255 3 c 1,28,29
 197 41 197 41 197 113 c 0,19,20
535 218 m 1,30,31
 470 233 470 233 395.5 233 c 128,-1,32
 321 233 321 233 241 216 c 1,33,34
 212 166 212 166 212 116 c 0,35,36
 212 44 212 44 275 10 c 1,37,38
 359 41 359 41 429 99 c 128,-1,39
 499 157 499 157 535 218 c 1,30,31
600 541 m 1,40,-1
 601 524 l 1,41,-1
 615 524 l 2,42,43
 705 524 705 524 788.5 549.5 c 128,-1,44
 872 575 872 575 927 613 c 128,-1,45
 982 651 982 651 1014.5 693.5 c 128,-1,46
 1047 736 1047 736 1047 770 c 128,-1,47
 1047 804 1047 804 1018.5 823.5 c 128,-1,48
 990 843 990 843 934 843 c 0,49,50
 849 843 849 843 770 793 c 128,-1,51
 691 743 691 743 645.5 673 c 128,-1,52
 600 603 600 603 600 541 c 1,40,-1
763 995 m 1,53,-1
 766 983 l 1,54,55
 610 961 610 961 505.5 864.5 c 128,-1,56
 401 768 401 768 401 670 c 0,57,58
 401 612 401 612 443 573.5 c 128,-1,59
 485 535 485 535 569 526 c 1,60,61
 567 544 567 544 567 554 c 0,62,63
 567 604 567 604 595 657.5 c 128,-1,64
 623 711 623 711 671 756.5 c 128,-1,65
 719 802 719 802 791 831.5 c 128,-1,66
 863 861 863 861 933.5 861 c 128,-1,67
 1004 861 1004 861 1034.5 838.5 c 128,-1,68
 1065 816 1065 816 1065 777 c 128,-1,69
 1065 738 1065 738 1032 692.5 c 128,-1,70
 999 647 999 647 942 606 c 128,-1,71
 885 565 885 565 796.5 538 c 128,-1,72
 708 511 708 511 609 511 c 2,73,-1
 603 511 l 1,74,75
 625 426 625 426 750 426 c 0,76,77
 814 426 814 426 903 464 c 128,-1,78
 992 502 992 502 1086 580 c 1,79,-1
 1092 572 l 1,80,81
 1062 546 1062 546 1016 514.5 c 128,-1,82
 970 483 970 483 890 449 c 128,-1,83
 810 415 810 415 745 415 c 0,84,85
 601 415 601 415 573 512 c 1,86,87
 480 519 480 519 432.5 561 c 128,-1,88
 385 603 385 603 385 666 c 0,89,90
 385 767 385 767 491.5 867 c 128,-1,91
 598 967 598 967 763 995 c 1,53,-1
1891 726.5 m 128,-1,93
 1865 751 1865 751 1809 751 c 128,-1,94
 1753 751 1753 751 1687.5 728 c 128,-1,95
 1622 705 1622 705 1564 672 c 128,-1,96
 1506 639 1506 639 1436.5 583 c 128,-1,97
 1367 527 1367 527 1316.5 481 c 128,-1,98
 1266 435 1266 435 1200 366 c 128,-1,99
 1134 297 1134 297 1099 257 c 128,-1,100
 1064 217 1064 217 1008 152.5 c 128,-1,101
 952 88 952 88 938 72 c 1,102,-1
 882 -1 l 1,103,104
 877 -4 877 -4 873 -4 c 128,-1,105
 869 -4 869 -4 869 2 c 1,106,-1
 881 23 l 1,107,108
 895 41 895 41 944.5 146 c 2,109,-1
 961 181 l 2,110,111
 1038 343 1038 343 1077 406 c 0,112,113
 1214 629 1214 629 1330 734 c 1,114,115
 1313 734 1313 734 1238 663.5 c 2,116,-1
 1213 640 l 1,117,118
 902.466437177 298.51979346 902.466437177 298.51979346 723 137 c 1,119,120
 774 83 774 83 774 21 c 0,121,122
 774 -56 774 -56 692.5 -119.5 c 128,-1,123
 611 -183 611 -183 452 -207 c 1,124,-1
 452 -196 l 1,125,126
 591 -174 591 -174 665 -112.5 c 128,-1,127
 739 -51 739 -51 739 24 c 0,128,129
 739 74 739 74 704 120 c 1,130,131
 623 50 623 50 546 12 c 128,-1,132
 469 -26 469 -26 392 -26 c 128,-1,133
 315 -26 315 -26 273 -6 c 1,134,135
 200 -27 200 -27 129 -27 c 128,-1,136
 58 -27 58 -27 20 -4.5 c 128,-1,137
 -18 18 -18 18 -18 53 c 0,138,139
 -18 101 -18 101 48 150.5 c 128,-1,140
 114 200 114 200 231 225 c 1,141,142
 270 290 270 290 339.5 333.5 c 128,-1,143
 409 377 409 377 492 377 c 0,144,145
 543 377 543 377 568 355.5 c 128,-1,146
 593 334 593 334 593 298.25 c 128,-1,147
 593 262.5 593 262.5 572 222 c 1,148,149
 663 195 663 195 714 145 c 1,150,151
 722 153 722 153 769 196 c 128,-1,152
 816 239 816 239 931.5 359 c 128,-1,153
 1047 479 1047 479 1124.5 563.5 c 2,154,-1
 1202 648 l 1,155,156
 1330 773 1330 773 1421 793 c 1,157,158
 1432 793 1432 793 1432 787.5 c 128,-1,159
 1432 782 1432 782 1426 780 c 0,160,161
 1380 766 1380 766 1339.5 717.5 c 128,-1,162
 1299 669 1299 669 1240.5 585 c 128,-1,163
 1182 501 1182 501 1139.5 429 c 0,164,165
 1038.09756098 257.212338594 1038.09756098 257.212338594 1012.5 201.5 c 2,166,-1
 1004 183 l 2,167,168
 1004 182 1004 182 1007 182 c 1,169,-1
 1020 192 l 1,170,171
 1041 214 1041 214 1084.5 261 c 128,-1,172
 1128 308 1128 308 1155 336.5 c 128,-1,173
 1182 365 1182 365 1227.5 411.5 c 128,-1,174
 1273 458 1273 458 1305.5 488 c 128,-1,175
 1338 518 1338 518 1384.5 558 c 128,-1,176
 1431 598 1431 598 1468.5 624 c 128,-1,177
 1506 650 1506 650 1552.5 678.5 c 128,-1,178
 1599 707 1599 707 1640.5 723 c 0,179,180
 1736.46875 760 1736.46875 760 1808.234375 760 c 128,-1,181
 1880 760 1880 760 1912 728 c 128,-1,182
 1944 696 1944 696 1944 640.5 c 128,-1,183
 1944 585 1944 585 1881 516.5 c 128,-1,184
 1818 448 1818 448 1734.5 404 c 128,-1,185
 1651 360 1651 360 1590 360 c 0,186,187
 1518 360 1518 360 1518 428 c 0,188,189
 1518 475 1518 475 1562 523.5 c 128,-1,190
 1606 572 1606 572 1679 590 c 1,191,-1
 1682 580 l 1,192,193
 1613 559 1613 559 1573 516 c 128,-1,194
 1533 473 1533 473 1533 431 c 0,195,196
 1533 373 1533 373 1586 373 c 128,-1,197
 1639 373 1639 373 1718 421.5 c 128,-1,198
 1797 470 1797 470 1857 539.5 c 128,-1,199
 1917 609 1917 609 1917 655.5 c 128,-1,92
 1917 702 1917 702 1891 726.5 c 128,-1,93
EndSplineSet
EndChar

StartChar: Ntilde
Encoding: 209 209 33
Width: 1099
Flags: HMW
HStem: -207 21G<452 452> -13 246<370.5 425 370.5 449> 233 140 243 120<430.5 439> 415 109<694 741.5> 426 85 751 79<1651.5 1682 1645.5 1848.5> 760 83 861 25 975 20G<763 763>
VStem: -18 22<32 78 32 83> 385 215<537.5 729> 567 33<549 602.5 537.5 619.5> 739 35<-22.5 40.5> 1917 27<606.5 677.5 581.5 687>
LayerCount: 2
Fore
SplineSet
1730 868 m 1,0,-1
 1721 874 l 1,1,2
 1705 854 1705 854 1689.5 854 c 128,-1,3
 1674 854 1674 854 1640 870 c 128,-1,4
 1606 886 1606 886 1581 886 c 0,5,6
 1534 886 1534 886 1501 844 c 1,7,-1
 1506 839 l 1,8,9
 1538 867 1538 867 1559 867 c 128,-1,10
 1580 867 1580 867 1612 848.5 c 128,-1,11
 1644 830 1644 830 1666 830 c 0,12,13
 1708 830 1708 830 1730 868 c 1,0,-1
249 228 m 1,14,15
 331 243 331 243 405.5 243 c 128,-1,16
 480 243 480 243 542 230 c 1,17,18
 563 270 563 270 563 300 c 0,19,20
 563 363 563 363 480 363 c 0,21,22
 409 363 409 363 347.5 324.5 c 128,-1,23
 286 286 286 286 249 228 c 1,14,15
297 1 m 1,24,25
 334 -13 334 -13 389 -13 c 0,26,27
 534 -13 534 -13 696 129 c 1,28,29
 648 183 648 183 565 209 c 1,30,31
 530 146 530 146 459 89 c 128,-1,32
 388 32 388 32 297 1 c 1,24,25
197 113 m 0,33,34
 197 162 197 162 224 212 c 1,35,36
 124 187 124 187 64 140.5 c 128,-1,37
 4 94 4 94 4 51 c 0,38,39
 4 21 4 21 36.5 2.5 c 128,-1,40
 69 -16 69 -16 130.5 -16 c 128,-1,41
 192 -16 192 -16 255 3 c 1,42,43
 197 41 197 41 197 113 c 0,33,34
535 218 m 1,44,45
 470 233 470 233 395.5 233 c 128,-1,46
 321 233 321 233 241 216 c 1,47,48
 212 166 212 166 212 116 c 0,49,50
 212 44 212 44 275 10 c 1,51,52
 359 41 359 41 429 99 c 128,-1,53
 499 157 499 157 535 218 c 1,44,45
600 541 m 1,54,-1
 601 524 l 1,55,-1
 615 524 l 2,56,57
 705 524 705 524 788.5 549.5 c 128,-1,58
 872 575 872 575 927 613 c 128,-1,59
 982 651 982 651 1014.5 693.5 c 128,-1,60
 1047 736 1047 736 1047 770 c 128,-1,61
 1047 804 1047 804 1018.5 823.5 c 128,-1,62
 990 843 990 843 934 843 c 0,63,64
 849 843 849 843 770 793 c 128,-1,65
 691 743 691 743 645.5 673 c 128,-1,66
 600 603 600 603 600 541 c 1,54,-1
763 995 m 1,67,-1
 766 983 l 1,68,69
 610 961 610 961 505.5 864.5 c 128,-1,70
 401 768 401 768 401 670 c 0,71,72
 401 612 401 612 443 573.5 c 128,-1,73
 485 535 485 535 569 526 c 1,74,75
 567 544 567 544 567 554 c 0,76,77
 567 604 567 604 595 657.5 c 128,-1,78
 623 711 623 711 671 756.5 c 128,-1,79
 719 802 719 802 791 831.5 c 128,-1,80
 863 861 863 861 933.5 861 c 128,-1,81
 1004 861 1004 861 1034.5 838.5 c 128,-1,82
 1065 816 1065 816 1065 777 c 128,-1,83
 1065 738 1065 738 1032 692.5 c 128,-1,84
 999 647 999 647 942 606 c 128,-1,85
 885 565 885 565 796.5 538 c 128,-1,86
 708 511 708 511 609 511 c 2,87,-1
 603 511 l 1,88,89
 625 426 625 426 750 426 c 0,90,91
 814 426 814 426 903 464 c 128,-1,92
 992 502 992 502 1086 580 c 1,93,-1
 1092 572 l 1,94,95
 1062 546 1062 546 1016 514.5 c 128,-1,96
 970 483 970 483 890 449 c 128,-1,97
 810 415 810 415 745 415 c 0,98,99
 601 415 601 415 573 512 c 1,100,101
 480 519 480 519 432.5 561 c 128,-1,102
 385 603 385 603 385 666 c 0,103,104
 385 767 385 767 491.5 867 c 128,-1,105
 598 967 598 967 763 995 c 1,67,-1
1891 726.5 m 128,-1,107
 1865 751 1865 751 1809 751 c 128,-1,108
 1753 751 1753 751 1687.5 728 c 128,-1,109
 1622 705 1622 705 1564 672 c 128,-1,110
 1506 639 1506 639 1436.5 583 c 128,-1,111
 1367 527 1367 527 1316.5 481 c 128,-1,112
 1266 435 1266 435 1200 366 c 128,-1,113
 1134 297 1134 297 1099 257 c 128,-1,114
 1064 217 1064 217 1008 152.5 c 128,-1,115
 952 88 952 88 938 72 c 1,116,-1
 882 -1 l 1,117,118
 877 -4 877 -4 873 -4 c 128,-1,119
 869 -4 869 -4 869 2 c 1,120,-1
 881 23 l 1,121,122
 895 41 895 41 944.5 146 c 2,123,-1
 961 181 l 2,124,125
 1038 343 1038 343 1077 406 c 0,126,127
 1214 629 1214 629 1330 734 c 1,128,129
 1313 734 1313 734 1238 663.5 c 2,130,-1
 1213 640 l 1,131,132
 902.466437177 298.51979346 902.466437177 298.51979346 723 137 c 1,133,134
 774 83 774 83 774 21 c 0,135,136
 774 -56 774 -56 692.5 -119.5 c 128,-1,137
 611 -183 611 -183 452 -207 c 1,138,-1
 452 -196 l 1,139,140
 591 -174 591 -174 665 -112.5 c 128,-1,141
 739 -51 739 -51 739 24 c 0,142,143
 739 74 739 74 704 120 c 1,144,145
 623 50 623 50 546 12 c 128,-1,146
 469 -26 469 -26 392 -26 c 128,-1,147
 315 -26 315 -26 273 -6 c 1,148,149
 200 -27 200 -27 129 -27 c 128,-1,150
 58 -27 58 -27 20 -4.5 c 128,-1,151
 -18 18 -18 18 -18 53 c 0,152,153
 -18 101 -18 101 48 150.5 c 128,-1,154
 114 200 114 200 231 225 c 1,155,156
 270 290 270 290 339.5 333.5 c 128,-1,157
 409 377 409 377 492 377 c 0,158,159
 543 377 543 377 568 355.5 c 128,-1,160
 593 334 593 334 593 298.25 c 128,-1,161
 593 262.5 593 262.5 572 222 c 1,162,163
 663 195 663 195 714 145 c 1,164,165
 722 153 722 153 769 196 c 128,-1,166
 816 239 816 239 931.5 359 c 128,-1,167
 1047 479 1047 479 1124.5 563.5 c 2,168,-1
 1202 648 l 1,169,170
 1330 773 1330 773 1421 793 c 1,171,172
 1432 793 1432 793 1432 787.5 c 128,-1,173
 1432 782 1432 782 1426 780 c 0,174,175
 1380 766 1380 766 1339.5 717.5 c 128,-1,176
 1299 669 1299 669 1240.5 585 c 128,-1,177
 1182 501 1182 501 1139.5 429 c 0,178,179
 1038.09756098 257.212338594 1038.09756098 257.212338594 1012.5 201.5 c 2,180,-1
 1004 183 l 2,181,182
 1004 182 1004 182 1007 182 c 1,183,-1
 1020 192 l 1,184,185
 1041 214 1041 214 1084.5 261 c 128,-1,186
 1128 308 1128 308 1155 336.5 c 128,-1,187
 1182 365 1182 365 1227.5 411.5 c 128,-1,188
 1273 458 1273 458 1305.5 488 c 128,-1,189
 1338 518 1338 518 1384.5 558 c 128,-1,190
 1431 598 1431 598 1468.5 624 c 128,-1,191
 1506 650 1506 650 1552.5 678.5 c 128,-1,192
 1599 707 1599 707 1640.5 723 c 0,193,194
 1736.46875 760 1736.46875 760 1808.234375 760 c 128,-1,195
 1880 760 1880 760 1912 728 c 128,-1,196
 1944 696 1944 696 1944 640.5 c 128,-1,197
 1944 585 1944 585 1881 516.5 c 128,-1,198
 1818 448 1818 448 1734.5 404 c 128,-1,199
 1651 360 1651 360 1590 360 c 0,200,201
 1518 360 1518 360 1518 428 c 0,202,203
 1518 475 1518 475 1562 523.5 c 128,-1,204
 1606 572 1606 572 1679 590 c 1,205,-1
 1682 580 l 1,206,207
 1613 559 1613 559 1573 516 c 128,-1,208
 1533 473 1533 473 1533 431 c 0,209,210
 1533 373 1533 373 1586 373 c 128,-1,211
 1639 373 1639 373 1718 421.5 c 128,-1,212
 1797 470 1797 470 1857 539.5 c 128,-1,213
 1917 609 1917 609 1917 655.5 c 128,-1,106
 1917 702 1917 702 1891 726.5 c 128,-1,107
EndSplineSet
EndChar

StartChar: O
Encoding: 79 79 34
Width: 679
Flags: HMW
HStem: -76 21G<139.5 337> 362 244<84.5 251 84.5 231> 595 117 942 20G<319 449.5> 1028 20G<137 137>
VStem: -160 34<725 815.5> 17 20<520 564> 41 38<18.5 81.5 9 102> 518 224<621 895.5> 722 20<623 674.5> 949 20<591.5 716>
LayerCount: 2
Fore
SplineSet
678 697 m 0,0,1
 592 697 592 697 470 604 c 128,-1,2
 348 511 348 511 243 378 c 1,3,-1
 262 378 l 2,4,5
 332 378 332 378 403 399.5 c 128,-1,6
 474 421 474 421 529.5 455 c 128,-1,7
 585 489 585 489 629.5 528 c 128,-1,8
 674 567 674 567 698 603 c 128,-1,9
 722 639 722 639 722 664 c 0,10,11
 722 697 722 697 678 697 c 0,0,1
94 606 m 0,12,13
 174 606 174 606 254 634.5 c 128,-1,14
 334 663 334 663 390.5 704.5 c 128,-1,15
 447 746 447 746 482.5 792.5 c 128,-1,16
 518 839 518 839 518 876 c 0,17,18
 518 942 518 942 412 942 c 0,19,20
 323 942 323 942 241 891 c 128,-1,21
 159 840 159 840 107 764 c 128,-1,22
 55 688 55 688 41 609 c 1,23,24
 67 606 67 606 94 606 c 0,12,13
79 40 m 0,25,26
 79 -63 79 -63 201 -63 c 0,27,28
 294 -63 294 -63 427 27 c 128,-1,29
 560 117 560 117 673.5 238.5 c 128,-1,30
 787 360 787 360 868 489.5 c 128,-1,31
 949 619 949 619 949 692.5 c 0,32,33
 949 766 949 766 867 766 c 0,34,35
 846 766 846 766 808.5 752.5 c 128,-1,36
 771 739 771 739 754 723 c 1,37,38
 739 727 739 727 739 734 c 0,39,40
 739 744 739 744 785 760.5 c 128,-1,41
 831 777 831 777 871 777 c 0,42,43
 969 777 969 777 969 691 c 0,44,45
 969 638 969 638 931 559 c 128,-1,46
 893 480 893 480 832 395.5 c 128,-1,47
 771 311 771 311 689 226 c 128,-1,48
 607 141 607 141 522.5 74.5 c 128,-1,49
 438 8 438 8 350 -34 c 128,-1,50
 262 -76 262 -76 189 -76 c 0,51,52
 116 -76 116 -76 78.5 -40 c 128,-1,53
 41 -4 41 -4 41 59 c 0,54,55
 41 190 41 190 170 370 c 1,56,57
 92 387 92 387 54.5 437 c 128,-1,58
 17 487 17 487 17 557 c 0,59,60
 17 576 17 576 20 599 c 1,61,62
 -70 610 -70 610 -115 653.5 c 128,-1,63
 -160 697 -160 697 -160 758 c 0,64,65
 -160 848 -160 848 -75 935.5 c 128,-1,66
 10 1023 10 1023 137 1048 c 1,67,-1
 140 1033 l 1,68,69
 28 1014 28 1014 -49 931 c 128,-1,70
 -126 848 -126 848 -126 760 c 0,71,72
 -126 704 -126 704 -89.5 664.5 c 128,-1,73
 -53 625 -53 625 22 611 c 1,74,75
 38 695 38 695 92.5 774.5 c 128,-1,76
 147 854 147 854 234.5 908 c 128,-1,77
 322 962 322 962 418 962 c 0,78,79
 476 962 476 962 505.5 939.5 c 128,-1,80
 535 917 535 917 535 878 c 0,81,82
 535 839 535 839 501 790 c 128,-1,83
 467 741 467 741 410 697 c 128,-1,84
 353 653 353 653 266.5 624 c 128,-1,85
 180 595 180 595 86 595 c 0,86,87
 54 595 54 595 39 597 c 1,88,89
 37 573 37 573 37 561 c 0,90,91
 37 496 37 496 73 449.5 c 128,-1,92
 109 403 109 403 182 386 c 1,93,94
 286 525 286 525 422 618.5 c 128,-1,95
 558 712 558 712 684 712 c 0,96,97
 742 712 742 712 742 668 c 0,98,99
 742 632 742 632 702.5 580.5 c 128,-1,100
 663 529 663 529 599 480 c 128,-1,101
 535 431 535 431 441 396.5 c 128,-1,102
 347 362 347 362 251 362 c 2,103,-1
 231 362 l 1,104,105
 162 272 162 272 120.5 186 c 128,-1,106
 79 100 79 100 79 40 c 0,25,26
EndSplineSet
EndChar

StartChar: OE
Encoding: 338 338 35
Width: 1189
Flags: HMW
HStem: -207 21G<597 597> -76 49 243 111 243 135 243 204 341 58<1087 1113> 362 244<84.5 251 84.5 231> 595 117 728 49 942 20G<319 449.5> 1028 20G<137 137>
VStem: -160 34<725 815.5> 17 20<520 564> 41 38<18.5 81.5 9 102> 148 26<44 110 44 110> 518 224<651 895.5> 599 60 633 26<575.5 593> 722 20<651 670> 923 28 949 20<663 716> 1102 39<145.5 195> 1393 26<648.5 696>
LayerCount: 2
Fore
SplineSet
1098 354 m 0,0,1
 1121 354 1121 354 1135.5 360 c 128,-1,2
 1150 366 1150 366 1150 373 c 0,3,4
 1150 387 1150 387 1096 387 c 128,-1,5
 1042 387 1042 387 988 378 c 1,6,7
 1026 354 1026 354 1098 354 c 0,0,1
722 664 m 0,8,9
 722 682 722 682 707 691 c 1,10,11
 659 637 659 637 659 579 c 0,12,13
 659 564 659 564 661 557 c 1,14,15
 722 623 722 623 722 664 c 0,8,9
770 317 m 1,16,17
 853 365 853 365 960 385 c 1,18,19
 940 404 940 404 930 432 c 1,20,21
 910 430 910 430 871 430 c 2,22,-1
 856 430 l 1,23,24
 819 375 819 375 770 317 c 1,16,17
366 -26 m 1,25,26
 466 -15 466 -15 603 60 c 1,27,28
 599 73 599 73 599 95.5 c 128,-1,29
 599 118 599 118 610 149 c 1,30,31
 485 34 485 34 366 -26 c 1,25,26
649 96 m 2,32,-1
 649 86 l 1,33,34
 661 93 661 93 723 130 c 128,-1,35
 785 167 785 167 817 185 c 1,36,37
 769 211 769 211 701 226 c 1,38,39
 649 162 649 162 649 96 c 2,32,-1
802 -27 m 0,40,41
 851 -27 851 -27 900 -14 c 1,42,43
 915 16 915 16 915 48 c 0,44,45
 915 119 915 119 839 171 c 1,46,47
 824 162 824 162 786 137.5 c 0,48,49
 712.176211454 89.9030837004 712.176211454 89.9030837004 654 58 c 1,50,51
 681 -27 681 -27 802 -27 c 0,40,41
1102 176 m 0,52,53
 1102 206 1102 206 1080 224 c 128,-1,54
 1058 242 1058 242 1007 242 c 128,-1,55
 956 242 956 242 853 180 c 1,56,57
 930 125 930 125 930 49 c 0,58,59
 930 19 930 19 918 -8 c 1,60,61
 999 18 999 18 1050.5 72.5 c 128,-1,62
 1102 127 1102 127 1102 176 c 0,52,53
243 378 m 1,63,-1
 262 378 l 2,64,65
 367 378 367 378 467 423.5 c 128,-1,66
 567 469 567 469 638 535 c 1,67,68
 633 550 633 550 633 572 c 0,69,70
 633 636 633 636 688 696 c 1,71,72
 685 697 685 697 678 697 c 0,73,74
 592 697 592 697 470 604 c 128,-1,75
 348 511 348 511 243 378 c 1,63,-1
742 668 m 0,76,77
 742 614 742 614 666 538 c 1,78,79
 699 458 699 458 842 447 c 1,80,81
 949 607 949 607 949 693 c 0,82,83
 949 766 949 766 867 766 c 128,-1,84
 785 766 785 766 721 705 c 1,85,86
 742 693 742 693 742 668 c 0,76,77
1393 682 m 0,87,88
 1393 728 1393 728 1293 728 c 0,89,90
 1216 728 1216 728 1135 681.5 c 128,-1,91
 1054 635 1054 635 1003 569.5 c 128,-1,92
 952 504 952 504 951 449 c 1,93,94
 1062 460 1062 460 1167.5 503 c 128,-1,95
 1273 546 1273 546 1333 595.5 c 128,-1,96
 1393 645 1393 645 1393 682 c 0,87,88
643 208 m 0,97,98
 646 212 646 212 653 220.5 c 128,-1,99
 660 229 660 229 663 233 c 1,100,101
 595 243 595 243 526 243 c 0,102,103
 357 243 357 243 265.5 190 c 128,-1,104
 174 137 174 137 174 71 c 0,105,106
 174 29 174 29 214 0 c 128,-1,107
 254 -29 254 -29 323 -29 c 2,108,-1
 331 -29 l 1,109,110
 474 38 474 38 643 208 c 0,97,98
94 606 m 0,111,112
 174 606 174 606 254 634.5 c 128,-1,113
 334 663 334 663 390.5 704.5 c 128,-1,114
 447 746 447 746 482.5 792.5 c 128,-1,115
 518 839 518 839 518 876 c 0,116,117
 518 942 518 942 412 942 c 0,118,119
 323 942 323 942 241 891 c 128,-1,120
 159 840 159 840 107 764 c 128,-1,121
 55 688 55 688 41 609 c 1,122,123
 67 606 67 606 94 606 c 0,111,112
251 362 m 2,124,-1
 231 362 l 1,125,126
 162 272 162 272 120.5 186 c 128,-1,127
 79 100 79 100 79 40 c 0,128,129
 79 -63 79 -63 201 -63 c 0,130,131
 248 -63 248 -63 305 -40 c 1,132,133
 232 -39 232 -39 190 -8.5 c 128,-1,134
 148 22 148 22 148 68 c 0,135,136
 148 140 148 140 250 197.5 c 128,-1,137
 352 255 352 255 544 255 c 0,138,139
 619 255 619 255 675 245 c 1,140,141
 683 253 683 253 701 269 c 1,142,143
 775 352 775 352 830 431 c 1,144,145
 685 441 685 441 646 518 c 1,146,147
 571 451 571 451 467.5 406.5 c 128,-1,148
 364 362 364 362 251 362 c 2,124,-1
703 710 m 1,149,150
 775 777 775 777 872 777 c 128,-1,151
 969 777 969 777 969 691 c 0,152,153
 969 602 969 602 867 446 c 1,154,-1
 882 446 l 2,155,156
 911 446 911 446 926 447 c 1,157,158
 923 462 923 462 923 478 c 0,159,160
 923 523 923 523 948 569 c 128,-1,161
 973 615 973 615 1019 654 c 128,-1,162
 1065 693 1065 693 1139 718 c 128,-1,163
 1213 743 1213 743 1302 743 c 0,164,165
 1419 743 1419 743 1419 689 c 0,166,167
 1419 648 1419 648 1355 594 c 128,-1,168
 1291 540 1291 540 1179.5 494 c 128,-1,169
 1068 448 1068 448 951 435 c 1,170,171
 956 407 956 407 976 388 c 1,172,173
 1042 399 1042 399 1108.5 399 c 128,-1,174
 1175 399 1175 399 1175 378 c 0,175,176
 1175 365 1175 365 1149 353 c 128,-1,177
 1123 341 1123 341 1090 341 c 0,178,179
 1014 341 1014 341 971 375 c 1,180,181
 804 343 804 343 711 238 c 1,182,183
 780 224 780 224 832 193 c 1,184,185
 946 254 946 254 1012.5 254 c 128,-1,186
 1079 254 1079 254 1110 232 c 128,-1,187
 1141 210 1141 210 1141 174 c 0,188,189
 1141 118 1141 118 1076 58.5 c 128,-1,190
 1011 -1 1011 -1 909 -26 c 1,191,192
 877 -86 877 -86 797 -134 c 128,-1,193
 717 -182 717 -182 597 -207 c 1,194,-1
 596 -194 l 1,195,196
 707 -169 707 -169 781.5 -126.5 c 128,-1,197
 856 -84 856 -84 890 -31 c 1,198,199
 838 -41 838 -41 791 -41 c 0,200,201
 653 -41 653 -41 612 36 c 1,202,203
 473 -31 473 -31 340 -39 c 1,204,205
 256 -76 256 -76 186 -76 c 128,-1,206
 116 -76 116 -76 78.5 -40 c 128,-1,207
 41 -4 41 -4 41 59 c 0,208,209
 41 190 41 190 170 370 c 1,210,211
 92 387 92 387 54.5 437 c 128,-1,212
 17 487 17 487 17 557 c 0,213,214
 17 576 17 576 20 599 c 1,215,216
 -70 610 -70 610 -115 653.5 c 128,-1,217
 -160 697 -160 697 -160 758 c 0,218,219
 -160 848 -160 848 -75 935.5 c 128,-1,220
 10 1023 10 1023 137 1048 c 1,221,-1
 140 1033 l 1,222,223
 28 1014 28 1014 -49 931 c 128,-1,224
 -126 848 -126 848 -126 760 c 0,225,226
 -126 704 -126 704 -89.5 664.5 c 128,-1,227
 -53 625 -53 625 22 611 c 1,228,229
 38 695 38 695 92.5 774.5 c 128,-1,230
 147 854 147 854 234.5 908 c 128,-1,231
 322 962 322 962 418 962 c 0,232,233
 476 962 476 962 505.5 939.5 c 128,-1,234
 535 917 535 917 535 878 c 128,-1,235
 535 839 535 839 501 790 c 128,-1,236
 467 741 467 741 410 697 c 128,-1,237
 353 653 353 653 266.5 624 c 128,-1,238
 180 595 180 595 86 595 c 0,239,240
 54 595 54 595 39 597 c 1,241,242
 37 573 37 573 37 561 c 0,243,244
 37 496 37 496 73 449.5 c 128,-1,245
 109 403 109 403 182 386 c 1,246,247
 286 525 286 525 422 618.5 c 128,-1,248
 558 712 558 712 684 712 c 0,249,250
 691 712 691 712 703 710 c 1,149,150
EndSplineSet
EndChar

StartChar: Oacute
Encoding: 211 211 36
Width: 679
Flags: HMW
HStem: -76 21G<139.5 337> 362 244<84.5 251 84.5 231> 595 117 942 20G<319 449.5> 1028 20G<137 137>
VStem: -160 34<725 815.5> 17 20<520 564> 41 38<18.5 81.5 9 102> 518 224<621 895.5> 722 20<623 674.5> 949 20<591.5 716>
LayerCount: 2
Fore
SplineSet
918 822 m 1,0,-1
 1056 879 l 1,1,2
 1072 884 1072 884 1072 895.5 c 0,3,4
 1072 907 1072 907 1065 907 c 128,-1,5
 1058 907 1058 907 998.5 877 c 128,-1,6
 939 847 939 847 914 832 c 1,7,-1
 918 822 l 1,0,-1
678 697 m 0,8,9
 592 697 592 697 470 604 c 128,-1,10
 348 511 348 511 243 378 c 1,11,-1
 262 378 l 2,12,13
 332 378 332 378 403 399.5 c 128,-1,14
 474 421 474 421 529.5 455 c 128,-1,15
 585 489 585 489 629.5 528 c 128,-1,16
 674 567 674 567 698 603 c 128,-1,17
 722 639 722 639 722 664 c 0,18,19
 722 697 722 697 678 697 c 0,8,9
94 606 m 0,20,21
 174 606 174 606 254 634.5 c 128,-1,22
 334 663 334 663 390.5 704.5 c 128,-1,23
 447 746 447 746 482.5 792.5 c 128,-1,24
 518 839 518 839 518 876 c 0,25,26
 518 942 518 942 412 942 c 0,27,28
 323 942 323 942 241 891 c 128,-1,29
 159 840 159 840 107 764 c 128,-1,30
 55 688 55 688 41 609 c 1,31,32
 67 606 67 606 94 606 c 0,20,21
79 40 m 0,33,34
 79 -63 79 -63 201 -63 c 0,35,36
 294 -63 294 -63 427 27 c 128,-1,37
 560 117 560 117 673.5 238.5 c 128,-1,38
 787 360 787 360 868 489.5 c 128,-1,39
 949 619 949 619 949 692.5 c 0,40,41
 949 766 949 766 867 766 c 0,42,43
 846 766 846 766 808.5 752.5 c 128,-1,44
 771 739 771 739 754 723 c 1,45,46
 739 727 739 727 739 734 c 0,47,48
 739 744 739 744 785 760.5 c 128,-1,49
 831 777 831 777 871 777 c 0,50,51
 969 777 969 777 969 691 c 0,52,53
 969 638 969 638 931 559 c 128,-1,54
 893 480 893 480 832 395.5 c 128,-1,55
 771 311 771 311 689 226 c 128,-1,56
 607 141 607 141 522.5 74.5 c 128,-1,57
 438 8 438 8 350 -34 c 128,-1,58
 262 -76 262 -76 189 -76 c 0,59,60
 116 -76 116 -76 78.5 -40 c 128,-1,61
 41 -4 41 -4 41 59 c 0,62,63
 41 190 41 190 170 370 c 1,64,65
 92 387 92 387 54.5 437 c 128,-1,66
 17 487 17 487 17 557 c 0,67,68
 17 576 17 576 20 599 c 1,69,70
 -70 610 -70 610 -115 653.5 c 128,-1,71
 -160 697 -160 697 -160 758 c 0,72,73
 -160 848 -160 848 -75 935.5 c 128,-1,74
 10 1023 10 1023 137 1048 c 1,75,-1
 140 1033 l 1,76,77
 28 1014 28 1014 -49 931 c 128,-1,78
 -126 848 -126 848 -126 760 c 0,79,80
 -126 704 -126 704 -89.5 664.5 c 128,-1,81
 -53 625 -53 625 22 611 c 1,82,83
 38 695 38 695 92.5 774.5 c 128,-1,84
 147 854 147 854 234.5 908 c 128,-1,85
 322 962 322 962 418 962 c 0,86,87
 476 962 476 962 505.5 939.5 c 128,-1,88
 535 917 535 917 535 878 c 0,89,90
 535 839 535 839 501 790 c 128,-1,91
 467 741 467 741 410 697 c 128,-1,92
 353 653 353 653 266.5 624 c 128,-1,93
 180 595 180 595 86 595 c 0,94,95
 54 595 54 595 39 597 c 1,96,97
 37 573 37 573 37 561 c 0,98,99
 37 496 37 496 73 449.5 c 128,-1,100
 109 403 109 403 182 386 c 1,101,102
 286 525 286 525 422 618.5 c 128,-1,103
 558 712 558 712 684 712 c 0,104,105
 742 712 742 712 742 668 c 0,106,107
 742 632 742 632 702.5 580.5 c 128,-1,108
 663 529 663 529 599 480 c 128,-1,109
 535 431 535 431 441 396.5 c 128,-1,110
 347 362 347 362 251 362 c 2,111,-1
 231 362 l 1,112,113
 162 272 162 272 120.5 186 c 128,-1,114
 79 100 79 100 79 40 c 0,33,34
EndSplineSet
EndChar

StartChar: Ocircumflex
Encoding: 212 212 37
Width: 679
Flags: HMW
HStem: -76 21G<139.5 337> 362 244<84.5 251 84.5 231> 595 117 942 20G<319 449.5> 1028 20G<137 137>
VStem: -160 34<725 815.5> 17 20<520 564> 41 38<18.5 81.5 9 102> 518 224<621 895.5> 722 20<623 674.5> 949 20<591.5 716>
LayerCount: 2
Fore
SplineSet
961 809 m 1,0,-1
 972 815 l 1,1,-1
 931 899 l 2,2,3
 928.5 904 928.5 904 918.5 904 c 2,4,-1
 915 904 l 1,5,-1
 766 833 l 1,6,-1
 778 824 l 1,7,-1
 912 878 l 1,8,-1
 961 809 l 1,0,-1
678 697 m 0,9,10
 592 697 592 697 470 604 c 128,-1,11
 348 511 348 511 243 378 c 1,12,-1
 262 378 l 2,13,14
 332 378 332 378 403 399.5 c 128,-1,15
 474 421 474 421 529.5 455 c 128,-1,16
 585 489 585 489 629.5 528 c 128,-1,17
 674 567 674 567 698 603 c 128,-1,18
 722 639 722 639 722 664 c 0,19,20
 722 697 722 697 678 697 c 0,9,10
94 606 m 0,21,22
 174 606 174 606 254 634.5 c 128,-1,23
 334 663 334 663 390.5 704.5 c 128,-1,24
 447 746 447 746 482.5 792.5 c 128,-1,25
 518 839 518 839 518 876 c 0,26,27
 518 942 518 942 412 942 c 0,28,29
 323 942 323 942 241 891 c 128,-1,30
 159 840 159 840 107 764 c 128,-1,31
 55 688 55 688 41 609 c 1,32,33
 67 606 67 606 94 606 c 0,21,22
79 40 m 0,34,35
 79 -63 79 -63 201 -63 c 0,36,37
 294 -63 294 -63 427 27 c 128,-1,38
 560 117 560 117 673.5 238.5 c 128,-1,39
 787 360 787 360 868 489.5 c 128,-1,40
 949 619 949 619 949 692.5 c 128,-1,41
 949 766 949 766 867 766 c 0,42,43
 846 766 846 766 808.5 752.5 c 128,-1,44
 771 739 771 739 754 723 c 1,45,46
 739 727 739 727 739 734 c 0,47,48
 739 744 739 744 785 760.5 c 128,-1,49
 831 777 831 777 871 777 c 0,50,51
 969 777 969 777 969 691 c 0,52,53
 969 638 969 638 931 559 c 128,-1,54
 893 480 893 480 832 395.5 c 128,-1,55
 771 311 771 311 689 226 c 128,-1,56
 607 141 607 141 522.5 74.5 c 128,-1,57
 438 8 438 8 350 -34 c 128,-1,58
 262 -76 262 -76 189 -76 c 128,-1,59
 116 -76 116 -76 78.5 -40 c 128,-1,60
 41 -4 41 -4 41 59 c 0,61,62
 41 190 41 190 170 370 c 1,63,64
 92 387 92 387 54.5 437 c 128,-1,65
 17 487 17 487 17 557 c 0,66,67
 17 576 17 576 20 599 c 1,68,69
 -70 610 -70 610 -115 653.5 c 128,-1,70
 -160 697 -160 697 -160 758 c 0,71,72
 -160 848 -160 848 -75 935.5 c 128,-1,73
 10 1023 10 1023 137 1048 c 1,74,-1
 140 1033 l 1,75,76
 28 1014 28 1014 -49 931 c 128,-1,77
 -126 848 -126 848 -126 760 c 0,78,79
 -126 704 -126 704 -89.5 664.5 c 128,-1,80
 -53 625 -53 625 22 611 c 1,81,82
 38 695 38 695 92.5 774.5 c 128,-1,83
 147 854 147 854 234.5 908 c 128,-1,84
 322 962 322 962 418 962 c 0,85,86
 476 962 476 962 505.5 939.5 c 128,-1,87
 535 917 535 917 535 878 c 128,-1,88
 535 839 535 839 501 790 c 128,-1,89
 467 741 467 741 410 697 c 128,-1,90
 353 653 353 653 266.5 624 c 128,-1,91
 180 595 180 595 86 595 c 0,92,93
 54 595 54 595 39 597 c 1,94,95
 37 573 37 573 37 561 c 0,96,97
 37 496 37 496 73 449.5 c 128,-1,98
 109 403 109 403 182 386 c 1,99,100
 286 525 286 525 422 618.5 c 128,-1,101
 558 712 558 712 684 712 c 0,102,103
 742 712 742 712 742 668 c 0,104,105
 742 632 742 632 702.5 580.5 c 128,-1,106
 663 529 663 529 599 480 c 128,-1,107
 535 431 535 431 441 396.5 c 128,-1,108
 347 362 347 362 251 362 c 2,109,-1
 231 362 l 1,110,111
 162 272 162 272 120.5 186 c 128,-1,112
 79 100 79 100 79 40 c 0,34,35
EndSplineSet
EndChar

StartChar: Odieresis
Encoding: 214 214 38
Width: 679
Flags: HMW
HStem: -76 21G<139.5 337> 362 244<84.5 251 84.5 231> 595 117 766 75<807.5 895.5> 942 20G<319 449.5> 1028 20G<137 137>
VStem: -160 34<725 815.5> 17 20<520 564> 41 38<18.5 81.5 9 102> 518 224<621 895.5> 722 20<623 674.5> 949 20<591.5 716>
LayerCount: 2
Fore
SplineSet
901 877.5 m 128,-1,1
 885 863 885 863 885 852 c 128,-1,2
 885 841 885 841 898.5 841 c 128,-1,3
 912 841 912 841 928 854 c 128,-1,4
 944 867 944 867 944 881 c 0,5,6
 944 892 944 892 930.5 892 c 128,-1,0
 917 892 917 892 901 877.5 c 128,-1,1
813 877.5 m 128,-1,8
 797 863 797 863 797 852 c 128,-1,9
 797 841 797 841 810.5 841 c 128,-1,10
 824 841 824 841 840 854 c 128,-1,11
 856 867 856 867 856 881 c 0,12,13
 856 892 856 892 842.5 892 c 128,-1,7
 829 892 829 892 813 877.5 c 128,-1,8
678 697 m 0,14,15
 592 697 592 697 470 604 c 128,-1,16
 348 511 348 511 243 378 c 1,17,-1
 262 378 l 2,18,19
 332 378 332 378 403 399.5 c 128,-1,20
 474 421 474 421 529.5 455 c 128,-1,21
 585 489 585 489 629.5 528 c 128,-1,22
 674 567 674 567 698 603 c 128,-1,23
 722 639 722 639 722 664 c 0,24,25
 722 697 722 697 678 697 c 0,14,15
94 606 m 0,26,27
 174 606 174 606 254 634.5 c 128,-1,28
 334 663 334 663 390.5 704.5 c 128,-1,29
 447 746 447 746 482.5 792.5 c 128,-1,30
 518 839 518 839 518 876 c 0,31,32
 518 942 518 942 412 942 c 0,33,34
 323 942 323 942 241 891 c 128,-1,35
 159 840 159 840 107 764 c 128,-1,36
 55 688 55 688 41 609 c 1,37,38
 67 606 67 606 94 606 c 0,26,27
79 40 m 0,39,40
 79 -63 79 -63 201 -63 c 0,41,42
 294 -63 294 -63 427 27 c 128,-1,43
 560 117 560 117 673.5 238.5 c 128,-1,44
 787 360 787 360 868 489.5 c 128,-1,45
 949 619 949 619 949 692.5 c 128,-1,46
 949 766 949 766 867 766 c 0,47,48
 846 766 846 766 808.5 752.5 c 128,-1,49
 771 739 771 739 754 723 c 1,50,51
 739 727 739 727 739 734 c 0,52,53
 739 744 739 744 785 760.5 c 128,-1,54
 831 777 831 777 871 777 c 0,55,56
 969 777 969 777 969 691 c 0,57,58
 969 638 969 638 931 559 c 128,-1,59
 893 480 893 480 832 395.5 c 128,-1,60
 771 311 771 311 689 226 c 128,-1,61
 607 141 607 141 522.5 74.5 c 128,-1,62
 438 8 438 8 350 -34 c 128,-1,63
 262 -76 262 -76 189 -76 c 128,-1,64
 116 -76 116 -76 78.5 -40 c 128,-1,65
 41 -4 41 -4 41 59 c 0,66,67
 41 190 41 190 170 370 c 1,68,69
 92 387 92 387 54.5 437 c 128,-1,70
 17 487 17 487 17 557 c 0,71,72
 17 576 17 576 20 599 c 1,73,74
 -70 610 -70 610 -115 653.5 c 128,-1,75
 -160 697 -160 697 -160 758 c 0,76,77
 -160 848 -160 848 -75 935.5 c 128,-1,78
 10 1023 10 1023 137 1048 c 1,79,-1
 140 1033 l 1,80,81
 28 1014 28 1014 -49 931 c 128,-1,82
 -126 848 -126 848 -126 760 c 0,83,84
 -126 704 -126 704 -89.5 664.5 c 128,-1,85
 -53 625 -53 625 22 611 c 1,86,87
 38 695 38 695 92.5 774.5 c 128,-1,88
 147 854 147 854 234.5 908 c 128,-1,89
 322 962 322 962 418 962 c 0,90,91
 476 962 476 962 505.5 939.5 c 128,-1,92
 535 917 535 917 535 878 c 128,-1,93
 535 839 535 839 501 790 c 128,-1,94
 467 741 467 741 410 697 c 128,-1,95
 353 653 353 653 266.5 624 c 128,-1,96
 180 595 180 595 86 595 c 0,97,98
 54 595 54 595 39 597 c 1,99,100
 37 573 37 573 37 561 c 0,101,102
 37 496 37 496 73 449.5 c 128,-1,103
 109 403 109 403 182 386 c 1,104,105
 286 525 286 525 422 618.5 c 128,-1,106
 558 712 558 712 684 712 c 0,107,108
 742 712 742 712 742 668 c 0,109,110
 742 632 742 632 702.5 580.5 c 128,-1,111
 663 529 663 529 599 480 c 128,-1,112
 535 431 535 431 441 396.5 c 128,-1,113
 347 362 347 362 251 362 c 2,114,-1
 231 362 l 1,115,116
 162 272 162 272 120.5 186 c 128,-1,117
 79 100 79 100 79 40 c 0,39,40
EndSplineSet
EndChar

StartChar: Ograve
Encoding: 210 210 39
Width: 679
Flags: HMW
HStem: -76 21G<139.5 337> 362 244<84.5 251 84.5 231> 595 117 942 20G<319 449.5> 1028 20G<137 137>
VStem: -160 34<725 815.5> 17 20<520 564> 41 38<18.5 81.5 9 102> 518 224<621 895.5> 722 20<623 674.5> 949 20<591.5 716>
LayerCount: 2
Fore
SplineSet
973 813 m 1,0,-1
 835 870 l 1,1,2
 819 875 819 875 819 886.5 c 0,3,4
 819 898 819 898 826 898 c 128,-1,5
 833 898 833 898 892.5 868 c 128,-1,6
 952 838 952 838 977 823 c 1,7,-1
 973 813 l 1,0,-1
678 697 m 0,8,9
 592 697 592 697 470 604 c 128,-1,10
 348 511 348 511 243 378 c 1,11,-1
 262 378 l 2,12,13
 332 378 332 378 403 399.5 c 128,-1,14
 474 421 474 421 529.5 455 c 128,-1,15
 585 489 585 489 629.5 528 c 128,-1,16
 674 567 674 567 698 603 c 128,-1,17
 722 639 722 639 722 664 c 0,18,19
 722 697 722 697 678 697 c 0,8,9
94 606 m 0,20,21
 174 606 174 606 254 634.5 c 128,-1,22
 334 663 334 663 390.5 704.5 c 128,-1,23
 447 746 447 746 482.5 792.5 c 128,-1,24
 518 839 518 839 518 876 c 0,25,26
 518 942 518 942 412 942 c 0,27,28
 323 942 323 942 241 891 c 128,-1,29
 159 840 159 840 107 764 c 128,-1,30
 55 688 55 688 41 609 c 1,31,32
 67 606 67 606 94 606 c 0,20,21
79 40 m 0,33,34
 79 -63 79 -63 201 -63 c 0,35,36
 294 -63 294 -63 427 27 c 128,-1,37
 560 117 560 117 673.5 238.5 c 128,-1,38
 787 360 787 360 868 489.5 c 128,-1,39
 949 619 949 619 949 692.5 c 0,40,41
 949 766 949 766 867 766 c 0,42,43
 846 766 846 766 808.5 752.5 c 128,-1,44
 771 739 771 739 754 723 c 1,45,46
 739 727 739 727 739 734 c 0,47,48
 739 744 739 744 785 760.5 c 128,-1,49
 831 777 831 777 871 777 c 0,50,51
 969 777 969 777 969 691 c 0,52,53
 969 638 969 638 931 559 c 128,-1,54
 893 480 893 480 832 395.5 c 128,-1,55
 771 311 771 311 689 226 c 128,-1,56
 607 141 607 141 522.5 74.5 c 128,-1,57
 438 8 438 8 350 -34 c 128,-1,58
 262 -76 262 -76 189 -76 c 0,59,60
 116 -76 116 -76 78.5 -40 c 128,-1,61
 41 -4 41 -4 41 59 c 0,62,63
 41 190 41 190 170 370 c 1,64,65
 92 387 92 387 54.5 437 c 128,-1,66
 17 487 17 487 17 557 c 0,67,68
 17 576 17 576 20 599 c 1,69,70
 -70 610 -70 610 -115 653.5 c 128,-1,71
 -160 697 -160 697 -160 758 c 0,72,73
 -160 848 -160 848 -75 935.5 c 128,-1,74
 10 1023 10 1023 137 1048 c 1,75,-1
 140 1033 l 1,76,77
 28 1014 28 1014 -49 931 c 128,-1,78
 -126 848 -126 848 -126 760 c 0,79,80
 -126 704 -126 704 -89.5 664.5 c 128,-1,81
 -53 625 -53 625 22 611 c 1,82,83
 38 695 38 695 92.5 774.5 c 128,-1,84
 147 854 147 854 234.5 908 c 128,-1,85
 322 962 322 962 418 962 c 0,86,87
 476 962 476 962 505.5 939.5 c 128,-1,88
 535 917 535 917 535 878 c 0,89,90
 535 839 535 839 501 790 c 128,-1,91
 467 741 467 741 410 697 c 128,-1,92
 353 653 353 653 266.5 624 c 128,-1,93
 180 595 180 595 86 595 c 0,94,95
 54 595 54 595 39 597 c 1,96,97
 37 573 37 573 37 561 c 0,98,99
 37 496 37 496 73 449.5 c 128,-1,100
 109 403 109 403 182 386 c 1,101,102
 286 525 286 525 422 618.5 c 128,-1,103
 558 712 558 712 684 712 c 0,104,105
 742 712 742 712 742 668 c 0,106,107
 742 632 742 632 702.5 580.5 c 128,-1,108
 663 529 663 529 599 480 c 128,-1,109
 535 431 535 431 441 396.5 c 128,-1,110
 347 362 347 362 251 362 c 2,111,-1
 231 362 l 1,112,113
 162 272 162 272 120.5 186 c 128,-1,114
 79 100 79 100 79 40 c 0,33,34
EndSplineSet
EndChar

StartChar: Oslash
Encoding: 216 216 40
Width: 679
Flags: HMW
HStem: -127 21G<253 253> 362 244<84.5 251 84.5 231> 595 117 942 20G<319 449.5> 1028 20G<137 137>
VStem: -160 34<725 815.5> 17 20<520 564> 41 38<18.5 81.5 9 102> 722 247<659.5 674.5> 949 20<604.5 716>
LayerCount: 2
Fore
SplineSet
678 697 m 0,0,1
 592 697 592 697 470 604 c 128,-1,2
 348 511 348 511 243 378 c 1,3,-1
 262 378 l 2,4,5
 384 378 384 378 497.5 437.5 c 128,-1,6
 611 497 611 497 676 574 c 1,7,-1
 715 635 l 1,8,9
 722 654 722 654 722 664 c 0,10,11
 722 697 722 697 678 697 c 0,0,1
94 606 m 0,12,13
 174 606 174 606 254 634.5 c 128,-1,14
 334 663 334 663 390.5 704.5 c 128,-1,15
 447 746 447 746 482.5 792.5 c 128,-1,16
 518 839 518 839 518 876 c 0,17,18
 518 942 518 942 412 942 c 0,19,20
 323 942 323 942 241 891 c 128,-1,21
 159 840 159 840 107 764 c 128,-1,22
 55 688 55 688 41 609 c 1,23,24
 67 606 67 606 94 606 c 0,12,13
79 40 m 0,25,26
 79 -63 79 -63 201 -63 c 0,27,28
 230 -63 230 -63 273 -51 c 1,29,-1
 633 507 l 1,30,31
 558 444 558 444 458.5 403 c 128,-1,32
 359 362 359 362 251 362 c 2,33,-1
 231 362 l 1,34,35
 162 272 162 272 120.5 186 c 128,-1,36
 79 100 79 100 79 40 c 0,25,26
949 693 m 0,37,38
 949 766 949 766 867 766 c 0,39,40
 851 766 851 766 824 758 c 1,41,-1
 310 -38 l 1,42,43
 438 15 438 15 591 157.5 c 128,-1,44
 744 300 744 300 846.5 453 c 128,-1,45
 949 606 949 606 949 693 c 0,37,38
799 765 m 1,46,-1
 878 888 l 1,47,-1
 900 876 l 1,48,-1
 834 773 l 1,49,50
 858 777 858 777 871 777 c 0,51,52
 969 777 969 777 969 691 c 0,53,54
 969 621 969 621 904 508 c 128,-1,55
 839 395 839 395 742.5 284 c 128,-1,56
 646 173 646 173 524 77 c 128,-1,57
 402 -19 402 -19 299 -55 c 1,58,-1
 253 -127 l 1,59,-1
 230 -119 l 1,60,-1
 264 -66 l 1,61,62
 222 -76 222 -76 193 -76 c 0,63,64
 116 -76 116 -76 78.5 -40 c 128,-1,65
 41 -4 41 -4 41 59 c 0,66,67
 41 190 41 190 170 370 c 1,68,69
 92 387 92 387 54.5 437 c 128,-1,70
 17 487 17 487 17 557 c 0,71,72
 17 576 17 576 20 599 c 1,73,74
 -70 610 -70 610 -115 653.5 c 128,-1,75
 -160 697 -160 697 -160 758 c 0,76,77
 -160 848 -160 848 -75 935.5 c 128,-1,78
 10 1023 10 1023 137 1048 c 1,79,-1
 140 1033 l 1,80,81
 28 1014 28 1014 -49 931 c 128,-1,82
 -126 848 -126 848 -126 760 c 0,83,84
 -126 704 -126 704 -89.5 664.5 c 128,-1,85
 -53 625 -53 625 22 611 c 1,86,87
 38 695 38 695 92.5 774.5 c 128,-1,88
 147 854 147 854 234.5 908 c 128,-1,89
 322 962 322 962 418 962 c 0,90,91
 476 962 476 962 505.5 939.5 c 128,-1,92
 535 917 535 917 535 878 c 0,93,94
 535 839 535 839 501 790 c 128,-1,95
 467 741 467 741 410 697 c 128,-1,96
 353 653 353 653 266.5 624 c 128,-1,97
 180 595 180 595 86 595 c 0,98,99
 54 595 54 595 39 597 c 1,100,101
 37 573 37 573 37 561 c 0,102,103
 37 496 37 496 73 449.5 c 128,-1,104
 109 403 109 403 182 386 c 1,105,106
 286 525 286 525 422 618.5 c 128,-1,107
 558 712 558 712 684 712 c 0,108,109
 736 712 736 712 741 676 c 1,110,-1
 784 742 l 1,111,112
 762 731 762 731 754 723 c 1,113,114
 739 727 739 727 739 734 c 0,115,116
 739 747 739 747 799 765 c 1,46,-1
EndSplineSet
EndChar

StartChar: Otilde
Encoding: 213 213 41
Width: 679
Flags: HMW
HStem: -76 21G<139.5 337> 362 244<84.5 251 84.5 231> 595 117 766 61<854 979> 766 98<854 877.5 852 895.5> 942 20G<319 449.5> 1028 20G<137 137>
VStem: -160 34<725 815.5> 17 20<520 564> 41 38<18.5 81.5 9 102> 518 224<621 895.5> 722 20<623 674.5> 949 20<591.5 716>
LayerCount: 2
Fore
SplineSet
1027 865 m 1,0,-1
 1018 871 l 1,1,2
 1002 851 1002 851 986.5 851 c 0,3,4
 971 851 971 851 937 867 c 128,-1,5
 903 883 903 883 878 883 c 0,6,7
 831 883 831 883 798 841 c 1,8,-1
 803 836 l 1,9,10
 835 864 835 864 855.5 864 c 0,11,12
 876 864 876 864 909 845.5 c 128,-1,13
 942 827 942 827 963 827 c 0,14,15
 1005 827 1005 827 1027 865 c 1,0,-1
678 697 m 0,16,17
 592 697 592 697 470 604 c 128,-1,18
 348 511 348 511 243 378 c 1,19,-1
 262 378 l 2,20,21
 332 378 332 378 403 399.5 c 128,-1,22
 474 421 474 421 529.5 455 c 128,-1,23
 585 489 585 489 629.5 528 c 128,-1,24
 674 567 674 567 698 603 c 128,-1,25
 722 639 722 639 722 664 c 0,26,27
 722 697 722 697 678 697 c 0,16,17
94 606 m 0,28,29
 174 606 174 606 254 634.5 c 128,-1,30
 334 663 334 663 390.5 704.5 c 128,-1,31
 447 746 447 746 482.5 792.5 c 128,-1,32
 518 839 518 839 518 876 c 0,33,34
 518 942 518 942 412 942 c 0,35,36
 323 942 323 942 241 891 c 128,-1,37
 159 840 159 840 107 764 c 128,-1,38
 55 688 55 688 41 609 c 1,39,40
 67 606 67 606 94 606 c 0,28,29
79 40 m 0,41,42
 79 -63 79 -63 201 -63 c 0,43,44
 294 -63 294 -63 427 27 c 128,-1,45
 560 117 560 117 673.5 238.5 c 128,-1,46
 787 360 787 360 868 489.5 c 128,-1,47
 949 619 949 619 949 692.5 c 0,48,49
 949 766 949 766 867 766 c 0,50,51
 846 766 846 766 808.5 752.5 c 128,-1,52
 771 739 771 739 754 723 c 1,53,54
 739 727 739 727 739 734 c 0,55,56
 739 744 739 744 785 760.5 c 128,-1,57
 831 777 831 777 871 777 c 0,58,59
 969 777 969 777 969 691 c 0,60,61
 969 638 969 638 931 559 c 128,-1,62
 893 480 893 480 832 395.5 c 128,-1,63
 771 311 771 311 689 226 c 128,-1,64
 607 141 607 141 522.5 74.5 c 128,-1,65
 438 8 438 8 350 -34 c 128,-1,66
 262 -76 262 -76 189 -76 c 0,67,68
 116 -76 116 -76 78.5 -40 c 128,-1,69
 41 -4 41 -4 41 59 c 0,70,71
 41 190 41 190 170 370 c 1,72,73
 92 387 92 387 54.5 437 c 128,-1,74
 17 487 17 487 17 557 c 0,75,76
 17 576 17 576 20 599 c 1,77,78
 -70 610 -70 610 -115 653.5 c 128,-1,79
 -160 697 -160 697 -160 758 c 0,80,81
 -160 848 -160 848 -75 935.5 c 128,-1,82
 10 1023 10 1023 137 1048 c 1,83,-1
 140 1033 l 1,84,85
 28 1014 28 1014 -49 931 c 128,-1,86
 -126 848 -126 848 -126 760 c 0,87,88
 -126 704 -126 704 -89.5 664.5 c 128,-1,89
 -53 625 -53 625 22 611 c 1,90,91
 38 695 38 695 92.5 774.5 c 128,-1,92
 147 854 147 854 234.5 908 c 128,-1,93
 322 962 322 962 418 962 c 0,94,95
 476 962 476 962 505.5 939.5 c 128,-1,96
 535 917 535 917 535 878 c 0,97,98
 535 839 535 839 501 790 c 128,-1,99
 467 741 467 741 410 697 c 128,-1,100
 353 653 353 653 266.5 624 c 128,-1,101
 180 595 180 595 86 595 c 0,102,103
 54 595 54 595 39 597 c 1,104,105
 37 573 37 573 37 561 c 0,106,107
 37 496 37 496 73 449.5 c 128,-1,108
 109 403 109 403 182 386 c 1,109,110
 286 525 286 525 422 618.5 c 128,-1,111
 558 712 558 712 684 712 c 0,112,113
 742 712 742 712 742 668 c 0,114,115
 742 632 742 632 702.5 580.5 c 128,-1,116
 663 529 663 529 599 480 c 128,-1,117
 535 431 535 431 441 396.5 c 128,-1,118
 347 362 347 362 251 362 c 2,119,-1
 231 362 l 1,120,121
 162 272 162 272 120.5 186 c 128,-1,122
 79 100 79 100 79 40 c 0,41,42
EndSplineSet
EndChar

StartChar: P
Encoding: 80 80 42
Width: 953
Flags: HMW
HStem: -217 21G<472 472> 223 144<390.5 547> 340 54 353 41 760 121
VStem: 2 22<22 68 22 73> 2 230<20.5 122> 583 30<279.5 309> 620 32<445.5 517.5 445.5 518.5> 759 35<-32.5 28.5> 1049 29<656.5 728.5 649 732> 1363 40<554 619 540.5 625> 1707 29<647.5 701>
LayerCount: 2
Fore
SplineSet
269 218 m 1,0,1
 351 233 351 233 425.5 233 c 128,-1,2
 500 233 500 233 562 220 c 1,3,4
 583 260 583 260 583 290 c 0,5,6
 583 353 583 353 500 353 c 0,7,8
 429 353 429 353 367.5 314.5 c 128,-1,9
 306 276 306 276 269 218 c 1,0,1
317 -9 m 1,10,11
 354 -23 354 -23 411.5 -23 c 128,-1,12
 469 -23 469 -23 562 20 c 0,13,14
 656.86 63.86 656.86 63.86 714 121 c 1,15,16
 669 173 669 173 585 199 c 1,17,18
 550 136 550 136 479 79 c 128,-1,19
 408 22 408 22 317 -9 c 1,10,11
24 41 m 0,20,21
 24 11 24 11 56.5 -7.5 c 128,-1,22
 89 -26 89 -26 151 -26 c 128,-1,23
 213 -26 213 -26 275 -6 c 1,24,25
 217 30 217 30 217 103 c 0,26,27
 217 152 217 152 244 202 c 1,28,29
 144 177 144 177 84 130.5 c 128,-1,30
 24 84 24 84 24 41 c 0,20,21
1177 543 m 0,31,32
 1142 508 1142 508 998 355 c 1,33,-1
 1011 355 l 2,34,35
 1152 355 1152 355 1257.5 437.5 c 128,-1,36
 1363 520 1363 520 1363 612 c 0,37,38
 1363 652 1363 652 1338 684 c 1,39,40
 1260 627 1260 627 1177 543 c 0,31,32
555 208 m 1,41,42
 490 223 490 223 415.5 223 c 128,-1,43
 341 223 341 223 261 206 c 1,44,45
 232 156 232 156 232 106 c 0,46,47
 232 34 232 34 295 0 c 1,48,49
 379 31 379 31 449 89 c 128,-1,50
 519 147 519 147 555 208 c 1,41,42
678 552.5 m 128,-1,52
 652 506 652 506 652 470 c 128,-1,53
 652 434 652 434 671.5 414 c 128,-1,54
 691 394 691 394 727 394 c 0,55,56
 803 394 803 394 879 448 c 128,-1,57
 955 502 955 502 1002 579.5 c 128,-1,58
 1049 657 1049 657 1049 726 c 0,59,60
 1049 745 1049 745 1045 760 c 1,61,62
 954 753 954 753 876.5 720.5 c 128,-1,63
 799 688 799 688 751.5 643.5 c 128,-1,51
 704 599 704 599 678 552.5 c 128,-1,52
908 354 m 1,64,-1
 918 365 l 1,65,66
 938 361 938 361 948 360 c 1,67,-1
 1061 477 l 1,68,69
 1192 620 1192 620 1322 701 c 1,70,71
 1256 762 1256 762 1094 762 c 1,72,-1
 1073 761 l 1,73,74
 1078 741 1078 741 1078 722 c 0,75,76
 1078 648 1078 648 1029.5 569.5 c 128,-1,77
 981 491 981 491 895 436 c 128,-1,78
 809 381 809 381 715 381 c 0,79,80
 669 381 669 381 644.5 404 c 128,-1,81
 620 427 620 427 620 467 c 128,-1,82
 620 507 620 507 648.5 555 c 128,-1,83
 677 603 677 603 727.5 648.5 c 128,-1,84
 778 694 778 694 861.5 727.5 c 128,-1,85
 945 761 945 761 1043 769 c 1,86,87
 1014 866 1014 866 862 866 c 0,88,89
 812 866 812 866 755 849.5 c 128,-1,90
 698 833 698 833 653 809 c 0,91,92
 561.58490566 760.245283019 561.58490566 760.245283019 511 720.5 c 2,93,-1
 490 704 l 1,94,-1
 480 713 l 1,95,96
 504 734 504 734 553.5 767 c 128,-1,97
 603 800 603 800 647 822.5 c 128,-1,98
 691 845 691 845 752.5 863 c 128,-1,99
 814 881 814 881 870 881 c 0,100,101
 1037 881 1037 881 1071 771 c 1,102,103
 1092 772 1092 772 1102 772 c 0,104,105
 1264 772 1264 772 1343 713 c 1,106,107
 1468 788 1468 788 1574 788 c 0,108,109
 1652 788 1652 788 1694 757.5 c 128,-1,110
 1736 727 1736 727 1736 677 c 128,-1,111
 1736 627 1736 627 1680.5 578 c 128,-1,112
 1625 529 1625 529 1527 512 c 1,113,-1
 1517 520 l 1,114,115
 1608 537 1608 537 1657.5 581 c 128,-1,116
 1707 625 1707 625 1707 671 c 128,-1,117
 1707 717 1707 717 1669.5 746 c 128,-1,118
 1632 775 1632 775 1564 775 c 0,119,120
 1474 775 1474 775 1360 699 c 1,121,122
 1403 657 1403 657 1403 601 c 0,123,124
 1403 505 1403 505 1295 422.5 c 128,-1,125
 1187 340 1187 340 1030 340 c 0,126,127
 1001 340 1001 340 986 341 c 1,128,129
 959 312 959 312 920.5 272 c 0,130,131
 845.764705882 194.352941176 845.764705882 194.352941176 841 188 c 1,132,133
 811 158 811 158 754 114 c 1,134,135
 794 65 794 65 794 11 c 0,136,137
 794 -66 794 -66 712.5 -129.5 c 128,-1,138
 631 -193 631 -193 472 -217 c 1,139,-1
 472 -206 l 1,140,141
 611 -184 611 -184 685 -122.5 c 128,-1,142
 759 -61 759 -61 759 14 c 0,143,144
 759 58 759 58 732 99 c 1,145,146
 539 -36 539 -36 399 -36 c 0,147,148
 335 -36 335 -36 293 -16 c 1,149,150
 220 -37 220 -37 149 -37 c 128,-1,151
 78 -37 78 -37 40 -14.5 c 128,-1,152
 2 8 2 8 2 43 c 0,153,154
 2 91 2 91 68 140.5 c 128,-1,155
 134 190 134 190 251 215 c 1,156,157
 290 280 290 280 359.5 323.5 c 128,-1,158
 429 367 429 367 512 367 c 0,159,160
 563 367 563 367 588 345.5 c 128,-1,161
 613 324 613 324 613 288.25 c 128,-1,162
 613 252.5 613 252.5 592 212 c 1,163,164
 677 187 677 187 731 138 c 1,165,166
 784 190 784 190 937 349 c 1,167,-1
 908 354 l 1,64,-1
EndSplineSet
EndChar

StartChar: Q
Encoding: 81 81 43
Width: 1213
Flags: HMW
HStem: -248 222<835 1033.5> -63 172<140.5 194.5> -47 170<923.5 1026> 92 191<131.5 435.5> 109 174<140.5 435.5> 753 127
VStem: 789 25<641.5 717 620 731.5> 1076 43<530.5 648.5 518 652.5> 1122 21<25 59>
LayerCount: 2
Fore
SplineSet
729 13 m 1,0,1
 901 -26 901 -26 976 -26 c 128,-1,2
 1051 -26 1051 -26 1086.5 -5.5 c 128,-1,3
 1122 15 1122 15 1122 42.5 c 128,-1,4
 1122 70 1122 70 1083 89.5 c 128,-1,5
 1044 109 1044 109 963.5 109 c 128,-1,6
 883 109 883 109 822 82.5 c 128,-1,7
 761 56 761 56 729 13 c 1,0,1
188 92 m 0,8,9
 108 92 108 92 61.5 66.5 c 128,-1,10
 15 41 15 41 15 12.5 c 128,-1,11
 15 -16 15 -16 45 -33 c 128,-1,12
 75 -50 75 -50 131 -50 c 0,13,14
 308 -49 308 -49 498 33 c 1,15,16
 364.735426009 70.0179372197 364.735426009 70.0179372197 299.367713004 81.0089686099 c 128,-1,17
 234 92 234 92 188 92 c 0,8,9
260 340 m 0,18,19
 260 283 260 283 333 283 c 128,-1,20
 406 283 406 283 490.5 328.5 c 128,-1,21
 575 374 575 374 639.5 440.5 c 128,-1,22
 704 507 704 507 746.5 585.5 c 128,-1,23
 789 664 789 664 789 728 c 0,24,25
 789 735 789 735 787 749 c 1,26,27
 685 737 685 737 584.5 687.5 c 128,-1,28
 484 638 484 638 415 575.5 c 128,-1,29
 346 513 346 513 303 448.5 c 128,-1,30
 260 384 260 384 260 340 c 0,18,19
183 660 m 1,31,-1
 174 666 l 1,32,33
 244 753 244 753 374 816.5 c 128,-1,34
 504 880 504 880 608 880 c 0,35,36
 773 880 773 880 807 763 c 1,37,38
 839 765 839 765 857 765 c 0,39,40
 990 765 990 765 1054.5 720.5 c 128,-1,41
 1119 676 1119 676 1119 600 c 0,42,43
 1119 475 1119 475 967 313 c 128,-1,44
 815 151 815 151 590 46 c 1,45,46
 600 44 600 44 714 16 c 1,47,48
 750 64 750 64 818 93.5 c 128,-1,49
 886 123 886 123 972.5 123 c 128,-1,50
 1059 123 1059 123 1101 100 c 128,-1,51
 1143 77 1143 77 1143 42.5 c 128,-1,52
 1143 8 1143 8 1096 -19.5 c 128,-1,53
 1049 -47 1049 -47 971 -47 c 0,54,55
 850 -47 850 -47 710 -19 c 1,56,57
 697 -48 697 -48 697 -79 c 0,58,59
 697 -144 697 -144 752 -190.5 c 128,-1,60
 807 -237 807 -237 905 -237 c 0,61,62
 959 -237 959 -237 990 -222 c 1,63,-1
 995 -232 l 1,64,65
 969 -248 969 -248 915 -248 c 0,66,67
 801 -248 801 -248 739.5 -200 c 128,-1,68
 678 -152 678 -152 678 -83 c 0,69,70
 678 -49 678 -49 693 -16 c 1,71,72
 617 1 617 1 537 23 c 1,73,74
 328 -63 328 -63 123 -63 c 0,75,76
 65 -63 65 -63 32 -42.5 c 128,-1,77
 -1 -22 -1 -22 -1 7 c 0,78,79
 -1 47 -1 47 55 78 c 128,-1,80
 111 109 111 109 216.5 109 c 128,-1,81
 322 109 322 109 547 56 c 1,82,83
 765 162 765 162 920.5 326 c 128,-1,84
 1076 490 1076 490 1076 610 c 0,85,86
 1076 677 1076 677 1020 715 c 128,-1,87
 964 753 964 753 847 753 c 0,88,89
 834 753 834 753 810 751 c 1,90,91
 814 734 814 734 814 710 c 0,92,93
 814 642 814 642 775.5 565 c 128,-1,94
 737 488 737 488 672.5 422.5 c 128,-1,95
 608 357 608 357 513.5 313.5 c 128,-1,96
 419 270 419 270 319 270 c 0,97,98
 242 270 242 270 242 336 c 0,99,100
 242 374 242 374 268 424.5 c 128,-1,101
 294 475 294 475 344.5 529 c 128,-1,102
 395 583 395 583 459.5 631 c 128,-1,103
 524 679 524 679 610.5 714.5 c 128,-1,104
 697 750 697 750 786 760 c 1,105,106
 762 869 762 869 598 869 c 0,107,108
 506 869 506 869 377.5 806 c 128,-1,109
 249 743 249 743 183 660 c 1,31,-1
EndSplineSet
EndChar

StartChar: R
Encoding: 82 82 44
Width: 1510
Flags: HMW
HStem: -226 181<1139 1337.5> 223 144<380.5 537> 353 53 374 32 393 49 772 121
VStem: -8 22<22 68 22 73> -8 230<20.5 122> 573 30<279.5 309> 610 32<457.5 529.5 457.5 530.5> 749 35<-32.5 28.5> 900 168 1008 22<48.5 106.5 24 143> 1008 131<-56 143> 1039 29<668.5 740.5 661 744> 1125 53 1155 23<304 342 261.5 360.5> 1360 32<579 623 563.5 633> 1430 37<169.5 221.5 152 224.5> 1697 29<647.5 701>
LayerCount: 2
Fore
SplineSet
1055 426 m 1,0,-1
 1017 386 l 1,1,2
 1072 386 1072 386 1126 399 c 1,3,4
 1099 418 1099 418 1055 426 c 1,0,-1
1007 431 m 1,5,6
 998 432 998 432 978 432 c 0,7,8
 918 432 918 432 918 415 c 128,-1,9
 918 398 918 398 967 389 c 1,10,11
 997 421 997 421 1007 431 c 1,5,6
259 218 m 1,12,13
 341 233 341 233 415.5 233 c 128,-1,14
 490 233 490 233 552 220 c 1,15,16
 573 260 573 260 573 290 c 0,17,18
 573 353 573 353 490 353 c 0,19,20
 419 353 419 353 357.5 314.5 c 128,-1,21
 296 276 296 276 259 218 c 1,12,13
307 -9 m 1,22,23
 344 -23 344 -23 401.5 -23 c 128,-1,24
 459 -23 459 -23 552 20 c 0,25,26
 646.86 63.86 646.86 63.86 704 121 c 1,27,28
 659 173 659 173 575 199 c 1,29,30
 540 136 540 136 469 79 c 128,-1,31
 398 22 398 22 307 -9 c 1,22,23
14 41 m 0,32,33
 14 11 14 11 46.5 -7.5 c 128,-1,34
 79 -26 79 -26 141 -26 c 128,-1,35
 203 -26 203 -26 265 -6 c 1,36,37
 207 30 207 30 207 103 c 0,38,39
 207 152 207 152 234 202 c 1,40,41
 134 177 134 177 74 130.5 c 128,-1,42
 14 84 14 84 14 41 c 0,32,33
1167 543 m 0,43,44
 1148 524 1148 524 1065 436 c 1,45,46
 1116 427 1116 427 1144 404 c 1,47,48
 1240 433 1240 433 1300 494.5 c 128,-1,49
 1360 556 1360 556 1360 621 c 0,50,51
 1360 658 1360 658 1337 690 c 1,52,53
 1253 631 1253 631 1167 543 c 0,43,44
545 208 m 1,54,55
 480 223 480 223 405.5 223 c 128,-1,56
 331 223 331 223 251 206 c 1,57,58
 222 156 222 156 222 106 c 0,59,60
 222 34 222 34 285 0 c 1,61,62
 369 31 369 31 439 89 c 128,-1,63
 509 147 509 147 545 208 c 1,54,55
1139 -45 m 1,64,-1
 1154 -45 l 2,65,66
 1213 -45 1213 -45 1267 -17 c 128,-1,67
 1321 11 1321 11 1355.5 52 c 128,-1,68
 1390 93 1390 93 1410 136 c 128,-1,69
 1430 179 1430 179 1430 212 c 0,70,71
 1430 249 1430 249 1384 249 c 0,72,73
 1352 249 1352 249 1311 229 c 128,-1,74
 1270 209 1270 209 1231 173.5 c 128,-1,75
 1192 138 1192 138 1165.5 81 c 128,-1,76
 1139 24 1139 24 1139 -40 c 2,77,-1
 1139 -45 l 1,64,-1
668 564.5 m 128,-1,79
 642 518 642 518 642 482 c 128,-1,80
 642 446 642 446 661.5 426 c 128,-1,81
 681 406 681 406 717 406 c 0,82,83
 793 406 793 406 869 460 c 128,-1,84
 945 514 945 514 992 591.5 c 128,-1,85
 1039 669 1039 669 1039 738 c 0,86,87
 1039 757 1039 757 1035 772 c 1,88,89
 944 765 944 765 866.5 732.5 c 128,-1,90
 789 700 789 700 741.5 655.5 c 128,-1,78
 694 611 694 611 668 564.5 c 128,-1,79
1157 392 m 1,91,92
 1178 366 1178 366 1178 329 c 128,-1,93
 1178 292 1178 292 1163 259.5 c 128,-1,94
 1148 227 1148 227 1126 204 c 128,-1,95
 1104 181 1104 181 1082 158.5 c 0,96,97
 1030 105.318181818 1030 105.318181818 1030 50 c 0,98,99
 1030 -33 1030 -33 1125 -43 c 1,100,-1
 1125 -34 l 2,101,102
 1125 33 1125 33 1152.5 91 c 128,-1,103
 1180 149 1180 149 1221.5 185.5 c 128,-1,104
 1263 222 1263 222 1308.5 242.5 c 128,-1,105
 1354 263 1354 263 1390.5 263 c 0,106,107
 1467 263 1467 263 1467 200 c 0,108,109
 1467 164 1467 164 1442.5 119.5 c 128,-1,110
 1418 75 1418 75 1377 36 c 128,-1,111
 1336 -3 1336 -3 1275.5 -29.5 c 128,-1,112
 1215 -56 1215 -56 1150 -56 c 2,113,-1
 1139 -56 l 1,114,115
 1144 -127 1144 -127 1191.5 -171.5 c 128,-1,116
 1239 -216 1239 -216 1331 -216 c 0,117,118
 1363 -216 1363 -216 1399 -204 c 1,119,-1
 1407 -209 l 1,120,121
 1376 -226 1376 -226 1317 -226 c 0,122,123
 1227 -226 1227 -226 1179.5 -178.5 c 128,-1,124
 1132 -131 1132 -131 1126 -55 c 1,125,126
 1064 -48 1064 -48 1036 -10.5 c 128,-1,127
 1008 27 1008 27 1008 71 c 128,-1,128
 1008 115 1008 115 1023 146.5 c 128,-1,129
 1038 178 1038 178 1060 202 c 128,-1,130
 1082 226 1082 226 1103.5 249.5 c 0,131,132
 1155 305.790697674 1155 305.790697674 1155 355 c 0,133,134
 1155 373 1155 373 1140 388 c 1,135,136
 1070 374 1070 374 1006 374 c 1,137,138
 864 226 864 226 831 188 c 1,139,140
 801 158 801 158 744 114 c 1,141,142
 784 65 784 65 784 11 c 0,143,144
 784 -66 784 -66 702.5 -129.5 c 128,-1,145
 621 -193 621 -193 462 -217 c 1,146,-1
 462 -206 l 1,147,148
 601 -184 601 -184 675 -122.5 c 128,-1,149
 749 -61 749 -61 749 14 c 0,150,151
 749 58 749 58 722 99 c 1,152,153
 529 -36 529 -36 389 -36 c 0,154,155
 325 -36 325 -36 283 -16 c 1,156,157
 210 -37 210 -37 139 -37 c 128,-1,158
 68 -37 68 -37 30 -14.5 c 128,-1,159
 -8 8 -8 8 -8 43 c 0,160,161
 -8 91 -8 91 58 140.5 c 128,-1,162
 124 190 124 190 241 215 c 1,163,164
 280 280 280 280 349.5 323.5 c 128,-1,165
 419 367 419 367 502 367 c 0,166,167
 553 367 553 367 578 345.5 c 128,-1,168
 603 324 603 324 603 288.25 c 128,-1,169
 603 252.5 603 252.5 582 212 c 1,170,171
 667 187 667 187 721 138 c 1,172,173
 770 186 770 186 954 377 c 1,174,175
 900 386 900 386 900 410 c 0,176,177
 900 423 900 423 923 432.5 c 128,-1,178
 946 442 946 442 976.5 442 c 128,-1,179
 1007 442 1007 442 1017 441 c 1,180,-1
 1051 477 l 1,181,182
 1187 625 1187 625 1322 707 c 1,183,184
 1252 774 1252 774 1084 774 c 1,185,-1
 1063 773 l 1,186,187
 1068 753 1068 753 1068 734 c 0,188,189
 1068 660 1068 660 1019.5 581.5 c 128,-1,190
 971 503 971 503 885 448 c 128,-1,191
 799 393 799 393 705 393 c 0,192,193
 659 393 659 393 634.5 416 c 128,-1,194
 610 439 610 439 610 479 c 128,-1,195
 610 519 610 519 638.5 567 c 128,-1,196
 667 615 667 615 717.5 660.5 c 128,-1,197
 768 706 768 706 851.5 739.5 c 128,-1,198
 935 773 935 773 1033 781 c 1,199,200
 1004 878 1004 878 852 878 c 0,201,202
 802 878 802 878 745 861.5 c 128,-1,203
 688 845 688 845 643 821 c 0,204,205
 551.58490566 772.245283019 551.58490566 772.245283019 501 732.5 c 2,206,-1
 480 716 l 1,207,-1
 470 725 l 1,208,209
 494 746 494 746 543.5 779 c 128,-1,210
 593 812 593 812 637 834.5 c 128,-1,211
 681 857 681 857 742.5 875 c 128,-1,212
 804 893 804 893 860 893 c 0,213,214
 1027 893 1027 893 1061 783 c 1,215,216
 1080 784 1080 784 1092 784 c 0,217,218
 1254 784 1254 784 1337 716 c 1,219,220
 1461 788 1461 788 1564 788 c 0,221,222
 1642 788 1642 788 1684 757.5 c 128,-1,223
 1726 727 1726 727 1726 677 c 128,-1,224
 1726 627 1726 627 1670.5 578 c 128,-1,225
 1615 529 1615 529 1517 512 c 1,226,-1
 1507 520 l 1,227,228
 1598 537 1598 537 1647.5 581 c 128,-1,229
 1697 625 1697 625 1697 671 c 128,-1,230
 1697 717 1697 717 1659.5 746 c 128,-1,231
 1622 775 1622 775 1554 775 c 0,232,233
 1465 775 1465 775 1353 701 c 1,234,235
 1392 659 1392 659 1392 606 c 0,236,237
 1392 539 1392 539 1330 479 c 128,-1,238
 1268 419 1268 419 1157 392 c 1,91,92
EndSplineSet
EndChar

